<svg xmlns="http://www.w3.org/2000/svg" viewBox="0 0 2366.08 1829.37"><defs><style>.cls-1,.cls-4{fill:#fff;}.cls-1,.cls-3,.cls-4{stroke:#291d10;}.cls-1,.cls-2,.cls-4{stroke-linecap:round;stroke-linejoin:round;}.cls-1,.cls-7{stroke-width:60px;}.cls-2,.cls-3,.cls-5,.cls-6,.cls-7{fill:none;}.cls-2,.cls-6,.cls-7{stroke:#201600;}.cls-2,.cls-3,.cls-4,.cls-6{stroke-width:40px;}.cls-3,.cls-6,.cls-7{stroke-miterlimit:10;}</style></defs><title>Ресурс 4</title><g id="Слой_2" data-name="Слой 2"><g id="Слой_1-2" data-name="Слой 1"><rect class="cls-1" x="30" y="30" width="2306.08" height="1591.08" rx="45.29" ry="45.29"/><path class="cls-2" d="M84.68,31.06H2294.75a48,48,0,0,1,48,48V311.88a0,0,0,0,1,0,0H36.68a0,0,0,0,1,0,0V79.06A48,48,0,0,1,84.68,31.06Z"/><path class="cls-3" d="M1634.45,1386.2"/><path class="cls-3" d="M377.17,1386.2"/><path class="cls-4" d="M848.7,1445.46"/><path class="cls-3" d="M2478.37,1233.32"/><path class="cls-4" d="M1615.71,1298.37"/><circle class="cls-3" cx="190.43" cy="171.47" r="35.1"/><circle class="cls-3" cx="320.2" cy="171.47" r="35.1"/><circle class="cls-3" cx="443.46" cy="171.47" r="35.1"/><line class="cls-3" x1="257.56" y1="1133" x2="1006.66" y2="1137.38"/><line class="cls-3" x1="257.56" y1="679" x2="1006.66" y2="681.48"/><line class="cls-3" x1="257.56" y1="904" x2="1006.66" y2="903.43"/><line class="cls-3" x1="257.56" y1="1353.91" x2="1006.66" y2="1353.34"/><line class="cls-3" x1="1595.29" y1="1347.91" x2="2104.44" y2="1345.31"/><line class="cls-3" x1="1595.29" y1="1131.95" x2="2104.44" y2="1129.36"/><line class="cls-3" x1="1595.29" y1="910" x2="2104.44" y2="907.4"/><line class="cls-3" x1="1595.29" y1="682.04" x2="2104.44" y2="679.45"/><rect class="cls-5" x="26.3" y="496" width="56" height="208"/><rect class="cls-6" x="1132.63" y="657.48" width="341.93" height="677.86"/><rect class="cls-6" x="267.81" y="411.53" width="1811.64" height="101.98"/><ellipse class="cls-6" cx="744.72" cy="1474.32" rx="251.95" ry="260.95"/><line class="cls-7" x1="509.78" y1="1593.28" x2="137.85" y2="1803.24"/></g></g></svg>