<svg xmlns="http://www.w3.org/2000/svg" xmlns:xlink="http://www.w3.org/1999/xlink" viewBox="0 0 2362.3 1796.12"><defs><style>.cls-1,.cls-2,.cls-4{fill:none;}.cls-2,.cls-3{stroke:#291d10;}.cls-2{stroke-miterlimit:10;}.cls-2,.cls-4{stroke-width:40px;}.cls-3,.cls-5{fill:#fff;}.cls-3,.cls-4{stroke-linecap:round;stroke-linejoin:round;}.cls-3{stroke-width:60px;}.cls-4{stroke:#201600;}.cls-6{clip-path:url(#clip-path);}</style><clipPath id="clip-path"><rect class="cls-1" x="1096.33" y="911.29" width="1156.82" height="886.13"/></clipPath></defs><title>Ресурс 17</title><g id="Слой_2" data-name="Слой 2"><g id="Слой_1-2" data-name="Слой 1"><line class="cls-2" x1="216.01" y1="930.8" x2="942.01" y2="930.8"/><line class="cls-2" x1="224.42" y1="1148" x2="950.42" y2="1148"/><line class="cls-2" x1="209.41" y1="1363" x2="935.41" y2="1363"/><path class="cls-3" d="M2287,30H75.29A45.29,45.29,0,0,0,30,75.29V1628.71A45.29,45.29,0,0,0,75.29,1674H2287a46.27,46.27,0,0,0,32-13.27,45.15,45.15,0,0,0,13.27-32V75.29A45.29,45.29,0,0,0,2287,30Z"/><path class="cls-4" d="M78.08,34.25h2206.3a48,48,0,0,1,48,48V343.11a0,0,0,0,1,0,0H30.08a0,0,0,0,1,0,0V82.25a48,48,0,0,1,48-48Z"/><path class="cls-2" d="M197.58,188.73a33,33,0,0,1-66,0c0-18.23-6.56-33,33-33A33,33,0,0,1,197.58,188.73Z"/><path class="cls-2" d="M331.58,188.73a33,33,0,0,1-66,0c0-18.23-6.56-33,33-33A33,33,0,0,1,331.58,188.73Z"/><path class="cls-2" d="M451.58,186.68a33,33,0,0,1-66,0c0-18.23-6.56-33,33-33A33,33,0,0,1,451.58,186.68Z"/><text></text><line class="cls-2" x1="348.18" y1="605.69" x2="1428.57" y2="605.69"/><line class="cls-2" x1="344.18" y1="832.69" x2="1424.57" y2="832.69"/><line class="cls-2" x1="343.18" y1="1059.69" x2="1423.57" y2="1059.69"/><rect class="cls-5" x="1252.3" y="1486.44" width="815.84" height="277.54"/><g class="cls-6"><path d="M1457.5,1272.59c0,62.82,22.9,126.45,62.79,174.56,42,50.6,96.75,78.46,154.25,78.46s112.2-27.85,154.06-78.41c39.76-48.05,62.58-111.65,62.58-174.49v-55.35a749.24,749.24,0,0,0,19.42-167.44c0-49.36-5.4-83.46-10.42-98.91a18,18,0,0,0-18.9-12.4,18.36,18.36,0,0,0-4.18.09c-33.59,4.81-74.8-3.47-118.43-12.24-70.7-14.19-150.56-30.2-211.64,12.14-.55,0-1.09-.08-1.65-.08-34.28,0-64.72,13.69-85.71,38.57-19.38,23-30.06,54.59-30.06,89,0,56.38,24,160.59,27.89,177.18Zm343.26,151.57c-34.86,42.12-79.69,65.33-126.22,65.33s-91.46-23.23-126.44-65.39c-34.62-41.74-54.47-97-54.47-151.51v-21.66c0-44.67,30-105.4,41.38-126.84,162.44-18.55,271.15,26.29,295.83,37.85l24.21,57v53.73c0,54.58-19.79,109.78-54.29,151.46ZM1545.38,974.63a87,87,0,0,0,18.51-3.68c48.7-37,119.35-22.81,187.68-9.08,36.57,7.34,71.53,14.36,104.05,14.36q6.74,0,13.36-.43c5.45,30.59,9.83,96.42-2.4,177.87l-5.11-12a18.06,18.06,0,0,0-8-8.79c-5.18-2.84-129.09-69-330.72-43.73a18.05,18.05,0,0,0-14.75,9,510.34,510.34,0,0,0-30.47,64.54c-6.19-33.44-11.84-71.07-11.84-96.58,0-63.19,40-91.46,79.65-91.46Zm0,0"/></g><path d="M1985.58,1565.6c-.38-.11-.77-.21-1.17-.29l-107.46-22.48-28.41-43.08c-.2-.31-.42-.61-.63-.89a31.75,31.75,0,0,0-45.51-5.52,4.35,4.35,0,0,0-.35.29l-127.76,110-127.78-110-.34-.29a31.75,31.75,0,0,0-45.51,5.52c-.22.29-.43.58-.63.89l-28.41,43.08-107.46,22.48c-.4.08-.79.18-1.18.29-31.24,8.75-57.83,28.12-76.87,56a155,155,0,0,0-26.94,86.5v34c0,29.8,26.52,54,59.13,54h711.95c32.61,0,59.14-24.23,59.14-54v-34a155,155,0,0,0-26.94-86.5c-19-27.9-45.63-47.27-76.88-56Zm-164-41.12,22.42,34-89.73,123.39-53.44-53.44ZM1662.44,1724h23.7l7.19,36h-38.09Zm29.91-46c0,5.94-3.63,9.89-6,9.89h-24.09c-2.39,0-6-3.95-6-9.89v-7l18.07-18.06,18.06,18.06ZM1527,1524.48l120.76,104-53.44,53.44-89.74-123.4Zm-231.69,217.6v-34c0-42.61,26.41-93.13,76.88-107.59l102.7-21.48,102.66,141.16a18,18,0,0,0,13.19,7.37c.46,0,.94.06,1.41.06a18,18,0,0,0,12.77-5.29L1626,1701.3a46.65,46.65,0,0,0,3.15,5.06L1618.41,1760h-300.1c-12.48,0-23-8.19-23-17.9Zm758,0c0,9.71-10.54,17.91-23,17.91h-300.1l-10.73-53.63a46.72,46.72,0,0,0,3.16-5.06l21.07,21.06a18,18,0,0,0,12.76,5.29c.46,0,.94,0,1.41-.05a18.12,18.12,0,0,0,13.2-7.39l102.66-141.16,102.69,21.48c50.48,14.46,76.88,65,76.88,107.59Zm0,0"/><path d="M1241.19,1306.47c0,43.89,14.94,85.06,42,116,27.52,31.35,64.27,48.63,103.48,48.63,29.39,0,57.7-9.81,81.85-28.38a18.06,18.06,0,0,0-22-28.64c-17.78,13.67-38.47,20.89-59.84,20.89-60.32,0-109.4-57.62-109.4-128.46v-10.61c0-28.54,11.79-66.33,18-84.18,39-3.46,73.78,1.65,102.21,5.85l3.22.47a18.28,18.28,0,0,0,2.66.2,18.06,18.06,0,0,0,2.61-35.94l-3.21-.47c-33.19-4.91-74.5-11-122.74-4.82l-.16,0h0a1.07,1.07,0,0,0-.19,0,14.84,14.84,0,0,0-1.54.28c-.29.06-.56.16-.84.23s-.56.14-.83.24-.69.25-1,.39c-.19.09-.39.15-.57.24a11.17,11.17,0,0,0-1,.51l-.54.28c-.31.17-.61.36-.9.56l-.61.39c-.24.17-.49.36-.72.55s-.46.35-.68.55l-.55.51c-.24.23-.49.46-.74.72l-.42.47c-.25.29-.49.56-.73.85s-.25.36-.38.54-.42.57-.62.88-.3.52-.45.77-.28.49-.41.74c-.24.47-.46,1-.67,1.48a.66.66,0,0,1-.05.12v0l-.06.12c-.31.8-1.61,4.18-3.47,9.45a261.45,261.45,0,0,1-2.38-31c0-39,18.83-56.51,37.5-56.51a18.26,18.26,0,0,0,2.59-.21,16.91,16.91,0,0,0,2.59.21,17.92,17.92,0,0,0,10.91-3.68c16.86-12.8,38.61-17.11,70.51-14a18.06,18.06,0,0,0,3.55-36c-24.48-2.41-59.91-3.05-90.74,17.49-43,.34-73,38.33-73,92.62,0,38,15,107.35,17.87,120.29Zm0,0"/><path d="M1222.76,1633.6h-80.41c-5.67,0-9.9-3.39-9.9-6.43v-23.12c0-26.79,16.47-58.53,48-67.65l65.78-13.76,34,49a18.06,18.06,0,1,0,29.69-20.58l-33.83-48.8,10-15.15,70.44,52.58a18.06,18.06,0,1,0,21.61-28.94L1300.74,1453a27.38,27.38,0,0,0-38.85,5.07c-.22.3-.42.6-.63.9l-18,27.34-70.83,14.82-1.18.28c-49.17,13.78-74.89,62-74.89,102.6v23.12c0,23.46,20.65,42.55,46,42.55h80.41a18.06,18.06,0,0,0,0-36.13Zm0,0"/><path d="M1944.84,1073.7c26.56.53,55.91,5.28,84.31,9.88,21.45,3.47,42,6.77,59.85,7.92-.63,42.76-3.44,81.22-6.63,112.2l-.11-.08c-.27-.21-.57-.41-.87-.6-.13-.09-.25-.19-.4-.27l-.47-.28-.06,0c-36.15-21.77-79.95-34.33-133.91-38.37a18.06,18.06,0,1,0-2.7,36c46,3.46,83.28,13.56,113.71,30.82,4.29,10.1,13.7,35.63,13.7,65v10.61c0,70.84-49.08,128.46-109.4,128.46-21.36,0-42.05-7.22-59.84-20.89a18.06,18.06,0,1,0-22,28.64c24.15,18.56,52.45,28.38,81.85,28.38,39.21,0,76-17.27,103.47-48.63,27.12-30.9,42-72.07,42-116V1287c2.55-13.5,17.45-97.58,17.86-208.71a18,18,0,0,0-17.6-22.58l-.45,0c-.35,0-.69,0-1,.05-17.48.9-43.59-3.31-71.23-7.78-28.24-4.56-60.26-9.74-89.36-10.33a18.06,18.06,0,1,0-.72,36.11Zm0,0"/><path d="M2177.35,1501.46c-.38-.11-.78-.2-1.18-.28l-70.84-14.82-18-27.35-.63-.89a27.39,27.39,0,0,0-38.85-5.08l-77.31,57.72a18.06,18.06,0,0,0,21.61,28.95l70.44-52.59,10,15.16-33.83,48.79a18.06,18.06,0,1,0,29.69,20.58l34-49,65.77,13.76c31.49,9.14,48,40.86,48,67.65v23.12c0,3-4.23,6.43-9.91,6.43h-80.4a18.06,18.06,0,1,0,0,36.13h80.4c25.38,0,46-19.08,46-42.55v-23.12c0-40.55-25.73-88.81-74.9-102.59Zm0,0"/></g></g></svg>