<svg xmlns="http://www.w3.org/2000/svg" viewBox="0 0 2116.86 1841.38"><defs><style>.cls-1{fill:none;stroke:#201600;stroke-miterlimit:10;stroke-width:35.05px;}</style></defs><title>Ресурс 3</title><g id="Слой_2" data-name="Слой 2"><g id="Слой_1-2" data-name="Слой 1"><path d="M2116.86,344a107.56,107.56,0,0,0-107.42-107.45H1092.72v-46.8c62.46-21.1,104.82-78.56,56.3-151.7a56.09,56.09,0,0,0-15.65-15.68c-85.72-57.07-177,3.53-177,85,0,47.26,25.27,68,67.73,82.33v46.8H80c-14.3,0-33.81,8.71-43.29,19.41C-32.39,334.1,5.33,422.9,73.16,445.82V1784.67a56.71,56.71,0,0,0,56.71,56.71H1987a56.71,56.71,0,0,0,56.71-56.71V445.82A107.64,107.64,0,0,0,2116.86,344ZM1059.77,48.69c24.45-3.74,52.14,9.5,60.46,34.17,7.92,23.5-6,44.6-7.89,47.32-1.38,1.27-27,24.15-58.93,14.71-18.4-5.44-40.36-22.06-41-46.26C1011.81,72.83,1035.79,52.35,1059.77,48.69Zm860.6,1739.42H191.13c-21.43,0-68.33-21-68.33-84.1l5.26-1261.45L1994,437.31l1.67,1275.42c0,21.43,2.63,52.58-26.29,68.35ZM2030.11,381a.56.56,0,0,0,0-1.11L107.45,382.86c-33.94,0-57.86-43.71-18.38-77.71l1941.33-3.54a38.9,38.9,0,0,1,38.84,38.87c0,21.41-38.39,42.38-59.8,42.38Zm-20.67,1.82"/><path d="M773.7,1414.07l680.93-620.62v100.1c0,18.93-2.18,51.64,15.77,57.63,31.55,10.52,30.23-22,30.23-40.91l-1.31-153.62c0-18.93-3.53-32.81-22.46-32.81H1294c-18.93,0-28.62,6-28.62,24.92s31,23.66,49.95,23.66h100.11L740.65,1388.91c-.4.4-.74.83-1.1,1.23a106.57,106.57,0,0,0-47.82-11.28c-59.25,0-106.52,39.77-106.52,99,0,49.26,48.3,105.83,109.6,102.26,54.12-3.15,88.32-50.25,91.56-85.61,1.07-11.66-.28-34.35-5.79-57.44A214.38,214.38,0,0,0,773.7,1414.07Zm-82,117.26c-28.23,1.19-55.8-21.2-57.83-49.95-2.35-33.28,30.41-62.37,63.09-57.83,29.79,4.13,48.36,34.64,47.32,57.83a44.39,44.39,0,0,1-2.53,12.53C735.14,1512.82,715.51,1530.34,691.74,1531.34Zm0,0"/><path d="M1521.6,1014.72"/><line class="cls-1" x1="570" y1="740.51" x2="713.7" y2="866.68"/><line class="cls-1" x1="710.79" y1="734.14" x2="574.7" y2="868.48"/><line class="cls-1" x1="970.27" y1="737" x2="1113.97" y2="863.18"/><line class="cls-1" x1="1111.06" y1="730.64" x2="974.97" y2="864.98"/><line class="cls-1" x1="559.15" y1="1068.46" x2="702.85" y2="1194.63"/><line class="cls-1" x1="699.94" y1="1062.09" x2="563.85" y2="1196.43"/><line class="cls-1" x1="956.79" y1="1394.73" x2="1100.49" y2="1520.9"/><line class="cls-1" x1="1097.58" y1="1388.36" x2="961.49" y2="1522.7"/><line class="cls-1" x1="1377.28" y1="1392.1" x2="1520.97" y2="1518.27"/><line class="cls-1" x1="1518.06" y1="1385.73" x2="1381.98" y2="1520.07"/><line class="cls-1" x1="1366.85" y1="1072.57" x2="1510.55" y2="1198.74"/><line class="cls-1" x1="1507.64" y1="1066.21" x2="1371.55" y2="1200.55"/></g></g></svg>