<svg xmlns="http://www.w3.org/2000/svg" viewBox="0 0 2362.3 1855.07"><defs><style>.cls-1,.cls-5{fill:#fff;}.cls-1,.cls-3{stroke:#291d10;}.cls-1,.cls-2{stroke-linecap:round;stroke-linejoin:round;}.cls-1{stroke-width:60px;}.cls-2,.cls-3{fill:none;stroke-width:40px;}.cls-2{stroke:#201600;}.cls-3,.cls-4,.cls-6{stroke-miterlimit:10;}.cls-4{stroke:#000;stroke-width:80px;}.cls-6{fill:#201600;stroke:#fff;}</style></defs><title>Ресурс 20</title><g id="Слой_2" data-name="Слой 2"><g id="Слой_1-2" data-name="Слой 1"><path class="cls-1" d="M2287,30H75.29A45.29,45.29,0,0,0,30,75.29V1628.71A45.29,45.29,0,0,0,75.29,1674H2287a46.27,46.27,0,0,0,32-13.27,45.15,45.15,0,0,0,13.27-32V75.29A45.29,45.29,0,0,0,2287,30Z"/><path class="cls-2" d="M78.08,34.25h2206.3a48,48,0,0,1,48,48V343.11a0,0,0,0,1,0,0H30.08a0,0,0,0,1,0,0V82.25a48,48,0,0,1,48-48Z"/><path class="cls-3" d="M197.58,188.73a33,33,0,0,1-66,0c0-18.23-6.56-33,33-33A33,33,0,0,1,197.58,188.73Z"/><path class="cls-3" d="M331.58,188.73a33,33,0,0,1-66,0c0-18.23-6.56-33,33-33A33,33,0,0,1,331.58,188.73Z"/><path class="cls-3" d="M451.58,186.68a33,33,0,0,1-66,0c0-18.23-6.56-33,33-33A33,33,0,0,1,451.58,186.68Z"/><text></text><line class="cls-3" x1="348.18" y1="605.69" x2="1428.57" y2="605.69"/><line class="cls-3" x1="344.18" y1="832.69" x2="1424.57" y2="832.69"/><line class="cls-3" x1="343.18" y1="1059.69" x2="1423.57" y2="1059.69"/><path class="cls-4" d="M1698,1872"/><rect class="cls-5" x="1590.62" y="1529.77" width="351.18" height="210.54" transform="translate(-597.74 1182.72) rotate(-31.96)"/><path class="cls-6" d="M2067.13,1108H1391.84L1200,1363.76l529.56,490.63L2259,1363.87Zm-135.91,274.3-201.68,396.53-199.91-396.53Zm-382.94-42.13,181.26-181.29,181.16,181.29Zm232.18-189.94H2025.6l-69.14,175.91Zm-275.25,173.24-57.69-173.24h231Zm-22.77,58.83,175.48,348.2-375.82-348.2Zm496.19,0h198.25L1802,1729.69Zm17.73-42.13,66-168.18,126.15,168.18Zm-590.29-180.76,60.3,180.76h-195.9Zm0,0"/></g></g></svg>