<svg xmlns="http://www.w3.org/2000/svg" width="28" height="18" viewBox="0 0 28 18"><path fill="#fff" d="M24.52 3.1h-6.64V1.5h6.64zm-.67 6.6c-.16-1.7-1.03-2.6-2.61-2.6-.78 0-1.41.2-1.89.7-.49.5-.76 1.1-.81 1.9zm-2.4 5.1c.55 0 1.08-.1 1.59-.4.51-.3.84-.6.99-1.1h2.87c-.87 2.7-2.72 4-5.55 4-1.86 0-3.33-.5-4.43-1.7a6.48 6.48 0 0 1-1.64-4.6c0-1.8.56-3.4 1.69-4.6a5.75 5.75 0 0 1 4.38-1.8c1.19 0 2.24.3 3.13.9.88.6 1.55 1.4 1.99 2.4.43 1 .65 2.1.65 3.3l-.02.6h-8.56c0 1 .25 1.7.75 2.2.5.6 1.22.8 2.16.8zM4.09 9.6h3.93c1.72 0 2.59.8 2.59 2.4 0 1.5-.89 2.2-2.67 2.2H4.09zm0-6.4h3.38c1.65 0 2.47.6 2.47 1.9 0 .7-.19 1.2-.59 1.5-.39.3-.93.5-1.6.5H4.09zM.49 17h7.95c.6 0 1.18 0 1.74-.2a8 8 0 0 0 1.57-.5c.5-.3.92-.6 1.28-.9.36-.4.65-.9.86-1.4.21-.6.32-1.2.32-1.8 0-1.1-.25-2-.75-2.7A3.67 3.67 0 0 0 11.22 8c1.49-.8 2.24-1.9 2.24-3.5 0-.8-.14-1.5-.41-2.1a3.2 3.2 0 0 0-1.17-1.2 8.7 8.7 0 0 0-1.65-.7C9.64.4 8.97.4 8.21.4H.49z"/></svg>