<svg xmlns="http://www.w3.org/2000/svg" width="20" height="21" viewBox="0 0 20 21"><path fill="#fff" d="M17.5 18.4c-.16.2-.35.3-.56.3H3.04a.69.69 0 0 1-.57-.3c-.15-.1-.23-.3-.23-.5V9.3h1.84c-.18.5-.26 1.1-.26 1.7 0 1.7.6 3.2 1.82 4.3a6 6 0 0 0 4.38 1.8c1.13 0 2.17-.2 3.12-.8a5.97 5.97 0 0 0 3.09-5.3c0-.6-.08-1.2-.26-1.7h1.76v8.6c0 .2-.08.4-.23.5zM7.19 13.6a3.84 3.84 0 0 1-1.18-2.8c0-1.1.4-2 1.18-2.8.78-.8 1.73-1.1 2.83-1.1 1.11 0 2.06.3 2.84 1.1.78.8 1.18 1.7 1.18 2.8 0 1.1-.4 2-1.18 2.8-.78.8-1.73 1.2-2.84 1.2-1.1 0-2.05-.4-2.83-1.2zm10.28-6.9c-.17.2-.39.3-.64.3h-2.26a.83.83 0 0 1-.64-.3 1 1 0 0 1-.26-.7V3.9c0-.3.09-.5.26-.7.18-.2.39-.2.64-.2h2.26c.25 0 .47 0 .64.2.17.2.26.4.26.7V6a1 1 0 0 1-.26.7zm1.77-5.2c-.5-.5-1.11-.8-1.81-.8H2.58c-.7 0-1.3.3-1.81.8-.5.5-.75 1.1-.75 1.8v15.1c0 .7.25 1.3.75 1.8.51.5 1.11.8 1.81.8h14.85c.7 0 1.31-.3 1.81-.8s.75-1.1.75-1.8V3.3c0-.7-.25-1.3-.75-1.8z"/></svg>