<svg xmlns="http://www.w3.org/2000/svg" width="21" height="18" viewBox="0 0 21 18"><path fill="#fff" d="M18.38 3.1c.91-.6 1.52-1.4 1.84-2.4-.83.5-1.72.9-2.66 1A3.98 3.98 0 0 0 14.49.4a4.1 4.1 0 0 0-2.97 1.2 4.41 4.41 0 0 0-1.13 4 11.6 11.6 0 0 1-4.83-1.3c-1.5-.8-2.78-1.8-3.83-3.1-.38.6-.57 1.3-.57 2.1s.17 1.4.51 2.1c.34.6.79 1.1 1.36 1.5-.67 0-1.31-.2-1.89-.6v.1c0 1 .31 1.9.95 2.7.64.8 1.44 1.3 2.41 1.5-.36.1-.73.1-1.1.1h-.8c.27.8.77 1.5 1.49 2.1.72.5 1.53.8 2.44.8a8.18 8.18 0 0 1-5.21 1.8H.3c1.95 1.3 4.1 1.9 6.45 1.9a11.65 11.65 0 0 0 7.56-2.6c.93-.8 1.73-1.8 2.4-2.8a12.64 12.64 0 0 0 1.99-6.7l-.01-.6a8.2 8.2 0 0 0 2.11-2.2c-.81.3-1.62.6-2.42.7z"/></svg>