<svg xmlns="http://www.w3.org/2000/svg" width="25" height="16" viewBox="0 0 25 16"><path fill="#fff" d="M24.87 1.8c-.05-.1-.18-.2-.4-.3h-4.84c-.08.1-.14.1-.16.1h-.07l-.05.1c-.05 0-.09 0-.14.1-.06.1-.1.1-.13.2-.41 1.1-.88 2.1-1.4 3-.32.5-.61 1-.88 1.4-.27.4-.49.7-.68.9-.18.2-.34.3-.49.5-.15.1-.26.1-.34.1h-.22a.83.83 0 0 1-.29-.4c-.08-.1-.13-.3-.15-.5l-.05-.5.01-.7.01-.5.02-1.1.03-.9.02-.8c0-.2-.02-.4-.05-.6l-.14-.4c-.06-.1-.14-.2-.26-.3-.12-.1-.26-.1-.44-.2-.46-.1-1.04-.1-1.75-.2-1.62 0-2.65.1-3.11.4-.18.1-.35.2-.49.4-.16.2-.18.3-.07.3.52.1.89.2 1.11.5l.07.2c.06.1.12.3.19.6.06.3.1.6.11 1 .05.6.05 1.2 0 1.6-.04.5-.08.8-.12 1.1-.04.3-.1.5-.18.6-.07.2-.13.3-.15.3-.03 0-.05.1-.07.1h-.35c-.12 0-.27 0-.44-.1-.17-.2-.35-.3-.54-.5-.19-.3-.4-.6-.63-1-.24-.3-.48-.8-.73-1.3l-.21-.4c-.13-.3-.31-.6-.53-1.1-.23-.5-.43-.9-.6-1.4-.07-.1-.17-.3-.31-.4h-.07c-.04-.1-.11-.1-.2-.1-.1-.1-.2-.1-.3-.1H.84c-.36 0-.61.1-.74.3H.05L.01 2c0 .1.03.3.08.4.52 1.2 1.09 2.4 1.7 3.6a31.63 31.63 0 0 0 3.9 6c.15.2.27.3.36.4l.32.3c.21.2.51.5.92.8.4.3.85.5 1.34.8.49.3 1.06.6 1.71.7.65.2 1.28.3 1.9.3h1.49c.3-.1.53-.2.69-.3l.05-.1c.04-.1.07-.1.1-.2l.04-.4a4.26 4.26 0 0 1 .31-1.7c.08-.2.18-.3.28-.4.1-.1.18-.2.22-.2h.11c.2-.1.45-.1.73.2.28.2.55.4.79.7.25.3.55.7.89 1 .35.4.65.7.91.9l.26.2c.18.1.4.2.68.2.28.1.52.2.73.1h3.33c.33 0 .58-.1.76-.2.19-.1.3-.2.33-.4a.9.9 0 0 0 .01-.4c-.03-.2-.06-.3-.09-.4-.04 0-.06-.1-.09-.1-.43-.8-1.26-1.8-2.48-3h-.07c-.55-.6-.9-.9-1.05-1.1-.27-.3-.33-.7-.18-1.1.1-.2.49-.8 1.17-1.7.35-.5.63-.8.84-1.1 1.5-2.1 2.15-3.3 1.95-3.9z"/></svg>