<svg xmlns="http://www.w3.org/2000/svg" viewBox="0 0 2366.08 1816.01"><defs><style>.cls-1,.cls-4{fill:#fff;}.cls-1,.cls-3,.cls-4,.cls-5{stroke:#291d10;}.cls-1,.cls-2,.cls-4,.cls-5{stroke-linecap:round;stroke-linejoin:round;}.cls-1{stroke-width:60px;}.cls-2,.cls-3,.cls-5,.cls-6{fill:none;}.cls-2{stroke:#201600;}.cls-2,.cls-3,.cls-4,.cls-5{stroke-width:40px;}.cls-3{stroke-miterlimit:10;}</style></defs><title>Ресурс 18</title><g id="Слой_2" data-name="Слой 2"><g id="Слой_1-2" data-name="Слой 1"><rect class="cls-1" x="30" y="30" width="2306.08" height="1591.08" rx="45.29" ry="45.29"/><path class="cls-2" d="M75.68,31.06H2285.76a48,48,0,0,1,48,48V311.88a0,0,0,0,1,0,0H27.68a0,0,0,0,1,0,0V79.06A48,48,0,0,1,75.68,31.06Z"/><path class="cls-3" d="M1610.45,1386.2"/><path class="cls-3" d="M353.17,1386.2"/><path class="cls-4" d="M824.7,1445.46"/><path class="cls-3" d="M2454.38,1233.32"/><path class="cls-4" d="M2229.3,1702.93a383.24,383.24,0,0,0-59.77,32.72c-46.68,31.25-51.54,49.52-68.86,57.28-66.05,29.61-160.15-162.41-301.54-200.58-60.11-16.23-158.22-12.6-310.4,106.18,144.26-370.63,122-506.76,66.12-558-18.37-16.83-107.81-86.3-95.54-109.31,1.15-2.15,2.5-2.61,12.08-9.9,19.12-14.55,29.32-24.59,36.71-30.89,11.91-10.17,34.21-25.73,79.84-49.21l491.48-9.73q16.24,104.72,34.62,209Q2163.83,1423.12,2229.3,1702.93Z"/><path class="cls-4" d="M2100.67,1792.92l-740.57-4.41q23.55-280.45,66.12-558,15.32-99.85,33.09-199.31l491.48-9.73q16.24,104.72,34.62,209Q2035.2,1513.11,2100.67,1792.92Z"/><path class="cls-5" d="M1950.79,1029.67a289,289,0,0,1,128.63-90"/><path class="cls-4" d="M1591.71,1298.37"/><path class="cls-5" d="M1569.43,1130.3s70.82-181.2,129-181.2c64.33,0,14.14,51.61,118,181.2"/><path class="cls-5" d="M1726.86,939.24c24.07-41.75,53.74-80.66,80.7-80.66,43.37,0,34.7,23.44,56.24,78.43"/><circle class="cls-5" cx="1574.42" cy="1127.44" r="14.89" transform="translate(-336.09 1443.5) rotate(-45)"/><circle class="cls-5" cx="1816.41" cy="1127.44" r="14.89" transform="translate(-265.21 1614.62) rotate(-45)"/><circle class="cls-3" cx="166.43" cy="171.47" r="35.1"/><circle class="cls-3" cx="296.2" cy="171.47" r="35.1"/><circle class="cls-3" cx="419.46" cy="171.47" r="35.1"/><line class="cls-3" x1="233.56" y1="1133" x2="1313.95" y2="1133"/><line class="cls-3" x1="233.56" y1="679" x2="1313.95" y2="679"/><line class="cls-3" x1="233.56" y1="904" x2="1313.95" y2="904"/><rect class="cls-6" x="2.3" y="392" width="56" height="208"/></g></g></svg>