<svg xmlns="http://www.w3.org/2000/svg" viewBox="0 0 2366.08 1819.53"><defs><style>.cls-1,.cls-3,.cls-6{fill:#fff;}.cls-2{fill:#201600;}.cls-3,.cls-5,.cls-6,.cls-7{stroke:#291d10;}.cls-3,.cls-4,.cls-6{stroke-linecap:round;stroke-linejoin:round;}.cls-3{stroke-width:60px;}.cls-4,.cls-5,.cls-7{fill:none;}.cls-4{stroke:#201600;}.cls-4,.cls-7{stroke-width:40px;}.cls-5,.cls-7{stroke-miterlimit:10;}.cls-5,.cls-6{stroke-width:80px;}</style></defs><title>Ресурс 22</title><g id="Слой_2" data-name="Слой 2"><g id="Слой_1-2" data-name="Слой 1"><path class="cls-1" d="M53.58,258"/><path class="cls-1" d="M53.54,4.84"/><path d="M2219.58,396.84"/><path class="cls-2" d="M2219.58,401.34c5.79,0,5.8-9,0-9s-5.8,9,0,9Z"/><rect class="cls-3" x="30" y="30" width="2306.08" height="1591.08" rx="45.29" ry="45.29"/><path class="cls-4" d="M72.68,31.06H2282.76a48,48,0,0,1,48,48V311.88a0,0,0,0,1,0,0H24.68a0,0,0,0,1,0,0V79.06A48,48,0,0,1,72.68,31.06Z"/><path class="cls-5" d="M1607.45,1386.2"/><path class="cls-5" d="M350.17,1386.2"/><path class="cls-6" d="M821.7,1445.46"/><circle class="cls-7" cx="291.2" cy="173.47" r="35.1"/><circle class="cls-7" cx="155.16" cy="179.53" r="35.1"/><circle class="cls-7" cx="418.46" cy="172.47" r="35.1"/><line class="cls-7" x1="321.34" y1="1052.54" x2="1181.43" y2="1048.97"/><line class="cls-7" x1="321.34" y1="598.54" x2="1401.73" y2="598.54"/><line class="cls-7" x1="323.34" y1="823.54" x2="1403.73" y2="823.54"/><path d="M1727.75,885.54c-57.43,57.42-57.43,150.86,0,208.28a147.44,147.44,0,0,0,208.28,0c57.42-57.42,57.42-150.86,0-208.28s-150.86-57.42-208.28,0Zm192.31,183.72c-46.58,54.78-143.37,57.72-187.83,3.68-33-40.12-28.74-101.4-3.68-139.95,18.78-28.88,47.5-42.35,51.56-44.19,20.72-9.42,39.2-10.58,47.88-11a124,124,0,0,1,40.51,3.68c25.72,6.93,43.67,21.47,51.56,29.46C1954.65,945.94,1960.27,1022,1920.06,1069.25Z"/><path class="cls-2" d="M1724.56,882.35c-43,43.38-56.24,109.69-32.58,166.11,26.27,62.63,93,100.54,160.27,91.52,65-8.73,118.68-60.35,129.24-125.19,9.9-60.77-18.12-122.88-70.93-154.92-51.73-31.39-119.92-28.54-168.59,7.54a160.92,160.92,0,0,0-17.41,14.94c-4.12,4.08,2.24,10.45,6.36,6.36,40.66-40.26,102.48-52.74,155.53-31,53.65,22,88.92,76.24,88.13,134-.85,61.06-41.92,116.32-100.43,134.3-62.11,19.09-131.17-7-164.67-62.82-29.25-48.71-26.3-111.83,7.06-157.75a145,145,0,0,1,14.38-16.74C1735,884.6,1728.65,878.23,1724.56,882.35Z"/><path class="cls-2" d="M1916.87,1066.07c-30.09,35-80.6,48.55-124.94,37.86-21.69-5.23-41.74-16.46-56.12-33.69-16.83-20.16-23.65-47-22.59-72.89,1-25.35,9.5-51.23,25.7-71a123,123,0,0,1,43.46-33.68c44.33-20.19,104.65-12.93,137.61,24.74,14.59,16.69,21.7,39.53,23.3,61.33,1.81,24.61-3,49.91-15.34,71.43a108.31,108.31,0,0,1-11.06,15.89c-3.7,4.41,2.64,10.81,6.36,6.36,33.18-39.55,39.55-101.48,13.66-146.56s-84-59.8-132.44-49.73c-21.74,4.52-41.3,14.89-57.94,29.47-21,18.38-34.61,43.37-39.83,70.68-5.17,27-2.67,55.76,9.74,80.55,11.33,22.63,31,39.79,54.15,49.52,45.37,19,101.72,10.81,139.46-20.84a114.71,114.71,0,0,0,13.2-13.09C1927,1068.06,1920.66,1061.67,1916.87,1066.07Z"/><path d="M1130.72,1729.17a21.89,21.89,0,1,0,20.2,13.51,22.12,22.12,0,0,0-20.2-13.51Zm0,0"/><path class="cls-2" d="M1130.72,1724.67c-14.17.48-26.26,11.54-26.37,26.09a26.36,26.36,0,1,0,52.72.23c0-14.66-12.09-25.83-26.35-26.32-5.79-.2-5.79,8.8,0,9,9.36.32,17.41,7.67,17.35,17.32a17.35,17.35,0,0,1-34.7.48c-.31-9.82,7.79-17.48,17.36-17.8C1136.49,1733.48,1136.52,1724.48,1130.72,1724.67Z"/><path class="cls-2" d="M1130.72,1733.67c5.79,0,5.8-9,0-9s-5.8,9,0,9Z"/><path d="M1050.24,1592.77a21.88,21.88,0,1,0-23.56-9.15c-.19-.27-.31-.46,0,.08s.24.34.06.07a22.17,22.17,0,0,0,23.46,9Zm0,0"/><path class="cls-2" d="M1051.43,1597.11A26.92,26.92,0,0,0,1071,1575a26.34,26.34,0,0,0-46.45-20.22,27,27,0,0,0-1.78,31.07l7.77-4.54-.18-.26c-3.26-4.7-10.93-.39-7.77,4.54q.21.35.46.68c3.31,4.67,11.07.28,7.77-4.54l-.18-.26-7.77,4.54c6.79,9.2,17.27,13.48,28.54,11.06,5.66-1.22,3.26-9.89-2.39-8.68a17.94,17.94,0,0,1-18.38-6.92c-3.37-4.57-11.09-.3-7.77,4.54l.18.26,7.77-4.54q-.25-.33-.46-.68l-7.77,4.54.18.26c3.25,4.69,10.82.48,7.77-4.54-8.55-14.09,4.91-32.6,21.09-25.8,15.56,6.54,12.82,28.46-2.61,32.88C1043.48,1590,1045.84,1598.71,1051.43,1597.11Z"/><path class="cls-2" d="M1050.24,1597.27c5.79,0,5.8-9,0-9s-5.8,9,0,9Z"/><path d="M1140.64,1534.24l11.65-11.66a21.88,21.88,0,1,0-31-30.94l-11.64,11.64a21.89,21.89,0,1,0,31,31Zm0,0"/><path class="cls-2" d="M1143.83,1537.42c6.32-6.33,14.5-12.62,17.73-21.2,5.49-14.6-3.63-31.46-18.87-34.85a26.52,26.52,0,0,0-20.9,4.08c-3.64,2.57-6.66,6-9.8,9.18s-6.81,6.36-9.25,10.26a26.55,26.55,0,0,0-3,21.06c5.58,19.49,29.7,24.81,44.06,11.47,4.25-4-2.12-10.3-6.36-6.36-13.83,12.85-36.29-2.43-28-19.82,1.8-3.77,5.27-6.64,8.18-9.55s5.45-6,8.58-8.36c13-10,31.84,2.83,27.3,18.58-2.2,7.64-10.66,13.74-16.07,19.16C1133.36,1535.16,1139.73,1541.52,1143.83,1537.42Z"/><path class="cls-2" d="M1140.64,1538.74c5.79,0,5.8-9,0-9s-5.8,9,0,9Z"/><rect class="cls-1" x="1255.58" y="1433.28" width="488" height="227.56" rx="54" ry="54"/><path d="M2186.9,640.65a24.27,24.27,0,0,0-21.12-21.1,667,667,0,0,0-297,31c-32.87,11.3-133.19,58-253.31,158.21A1205.91,1205.91,0,0,0,1435.94,994.5c-122.32,3.44-211.5,6.06-215.86,6.18,0,0-5.57.16-8.51,2.76l-.07.07-.22.2c-.42.4-143.45,171.24-190.28,211.76-8.4,7.27-24.5,18.63-22.1,29.46,2.93,13.18,31.14,17.81,49.1,19.64l135,22.1,14.26,52.11-71.22,38.56a24.27,24.27,0,0,0-5.61,38.52l270.08,270.08a24.29,24.29,0,0,0,17.16,7.11,23.69,23.69,0,0,0,3.5-.25,24.29,24.29,0,0,0,17.86-12.47l38.56-71.22,42,9c12.28,55.65,34.33,192.93,40.23,196a9.11,9.11,0,0,0,6.42.47l17.19-19.64,225.41-194.52a24.23,24.23,0,0,0,6.91-14.05l18.12-230.92L1997.68,1191A663.12,663.12,0,0,0,2186.9,640.65Zm-1019.34,616-119.73-22.18,181.88-205.59,178.16-14.29Zm231.56,395.86-246.75-249.82,88.39-47.88,202.56,209.92Zm383-88.39L1572,1758.6l-22.17-119.72L1799.32,1380ZM1903.3,1237.8c-127.52,125.81-101.67,104.79-168.77,168.77-55.9,53.3-126.58,118.18-210.93,189.84L1210,1282.83a2027,2027,0,0,1,139.06-170.08c70.15-76.93,79.74-75.61,200.34-196.18C1656.79,809.24,1677.61,779.78,1740,742.37a566.32,566.32,0,0,1,156.6-64,233.93,233.93,0,0,0,15.69,78C1949.55,851.91,2040,891.55,2062,901.2a306.28,306.28,0,0,0,76.11,22.1,702.67,702.67,0,0,1-73.66,139.95C2027.22,1118,1997.15,1145.21,1903.3,1237.8Zm239.75-351.33C2126,885.3,2051,878.27,1991.4,815c-54.85-58.21-60.91-126.09-62-144.62a824.93,824.93,0,0,1,222.13-25.57,337.69,337.69,0,0,1,17.25,83.88C2174.08,798.49,2156.27,854.47,2143.05,886.47Zm-21.1-4"/><path class="cls-2" d="M2191.24,639.46c-2.1-13.19-12.38-22.62-25.46-24.4-17.52-2.39-35.27-3.63-52.93-4.37a668.17,668.17,0,0,0-106.17,4c-54.14,6.38-109.49,18-159.76,39.67-40.26,17.32-78.57,39.45-115.36,63.16a1216.69,1216.69,0,0,0-298.8,273.79l3.18-1.32q-97.66,2.75-195.32,5.58c-8.94.26-25.54-1.85-32.55,5-6.09,5.94-11.24,13.32-16.73,19.8q-44.3,52.26-89.64,103.62c-16.22,18.27-32.57,36.43-49.36,54.18-12.47,13.17-25.08,26.3-39,37.92-9,7.5-24.42,20.05-17.44,33.5,5.68,10.94,21.21,14.45,32.19,16.63,18.48,3.67,37.4,5.77,56,8.81l65.19,10.67,32.6,5.33-3.14-3.14L1193,1340l2.07-5.08-57.22,31c-8.1,4.39-17.9,8.28-23.46,15.95-8.56,11.81-6.5,27.5,3.44,37.71,22.35,23,45.36,45.36,68,68l119.25,119.25,79.27,79.27c3.72,3.72,7.36,7.15,12.39,9.24,15.11,6.27,30.12-1.44,37.48-15l34.14-63,3.18-5.87-5.08,2.07,42,9-3.14-3.14c8.52,38.77,15.09,78,22.37,117,3.35,17.92,6.69,35.85,10.54,53.66,1.28,5.9,2.57,11.82,4.21,17.63.84,3,1.63,7,3.89,9.3,4.24,4.29,11.35,2.88,14.94-1.23l9.18-10.49c5.83-6.66,12.14-12.22,18.84-18l77.54-66.91,77.54-66.91,39.67-34.23c10.5-9.06,24.21-17.31,26.18-32.2,2.51-19,3.06-38.58,4.56-57.73l4.48-57.13,9.15-116.65-1.32,3.18,130.78-123.72c20.69-19.57,41.88-38.69,61.2-59.63a668.66,668.66,0,0,0,172.36-534.6c-.69-5.68-9.7-5.75-9,0,14,115-2.18,233.41-47.85,340a668.39,668.39,0,0,1-79.9,137.93,651.12,651.12,0,0,1-52.37,61.33c-21.19,21.93-44.14,42.31-66.29,63.27l-68,64.3-33.56,31.74-8.6,8.14c-2.1,2-5.32,4.1-6.32,6.87s-.59,6.62-.81,9.53l-1,13.09-14.76,188.07c-.57,7.22-.48,14.87-1.81,22-1.49,8-7.82,12.35-13.57,17.31l-35.16,30.34-72.13,62.24-70.33,60.69-36.07,31.12c-4.9,4.23-9,9.23-13.22,14.1-1.72,2-4.56,6.87-7,8a.78.78,0,0,1-1.12-.41c-.32.3.51.56.53.75-.08-.74-.54-1.13-1.11-2.87-1.4-4.31-2.42-8.75-3.43-13.16-3.5-15.14-6.39-30.43-9.3-45.69-7-37-13.5-74.09-20.84-111-1.42-7.13-2.87-14.25-4.43-21.35a4.42,4.42,0,0,0-3.14-3.14l-42-9a4.62,4.62,0,0,0-5.08,2.07l-29.8,55c-3.64,6.73-7.07,16.16-12.85,21.45-8.89,8.14-20.93,5.8-28.87-2.07-23.2-23-46.18-46.18-69.27-69.27l-115.43-115.43-79.07-79.07c-1.59-1.59-3.25-3.13-4.78-4.78-7.37-8-7.85-20.13,0-28,2.44-2.45,5.58-3.94,8.59-5.57l61.73-33.43,5.57-3a4.57,4.57,0,0,0,2.07-5.08l-14.26-52.11a4.42,4.42,0,0,0-3.14-3.14l-117.58-19.24c-14.82-2.43-30.19-3.54-44.7-7.56-5.43-1.5-11.53-3.37-15.79-7.24-5.19-4.71-2.14-10.46,1.8-15,6.58-7.61,15.11-13.41,22.45-20.26,5.75-5.37,11.31-10.94,16.81-16.56,14.26-14.6,28.07-29.65,41.75-44.79,29.89-33.09,59.1-66.8,88.08-100.7q14.54-17,29-34.11c4.28-5.06,7.33-11.2,14.46-11.69,11-.75,22.17-.64,33.21-1L1330,1002l51.38-1.46,27.75-.79,13.85-.39c4.14-.12,10.94,1,14.71-.75,2.33-1.07,3.91-4.08,5.46-6.06q3-3.81,6-7.6,6.13-7.67,12.38-15.23,14-16.9,28.54-33.28a1217.79,1217.79,0,0,1,157.38-147.86c48.75-38.31,100.46-73.3,155.14-102.62,16.47-8.83,33.23-17.21,50.44-24.51,21.84-9.26,44.82-15.91,67.76-21.77a664.12,664.12,0,0,1,223-18c15.65,1.4,35.68.65,38.78,20.14C2183.46,647.55,2192.14,645.13,2191.24,639.46Z"/><path class="cls-2" d="M1168.75,1252.3,1064,1232.91l-15-2.78,2,7.52,141.68-160.15,40.2-45.44-3.18,1.32,178.16-14.29-3.18-7.68-186.91,188.27-53.4,53.79c-4.09,4.11,2.28,10.48,6.36,6.36l186.91-188.27,53.4-53.79c2.58-2.6.83-8-3.18-7.68l-89.08,7.15-45.53,3.65-21.78,1.75c-7.14.57-14.74.44-21.78,1.75-3.37.63-4.95,3.31-7.14,5.79l-6.59,7.45-15.82,17.88-29,32.78-59.31,67-67.21,76c-2.05,2.32-1.57,6.86,2,7.52l104.73,19.4,15,2.78C1172,1262,1174.45,1253.36,1168.75,1252.3Z"/><path class="cls-2" d="M1402.3,1649.32l-192.07-194.46-54.68-55.36-.91,7.07,88.39-47.88-5.45-.7L1395,1521.18l45.09,46.73-.7-5.45-44.19,87.77c-2.6,5.16,5.16,9.72,7.77,4.54L1447.2,1567a4.66,4.66,0,0,0-.7-5.45L1289,1398.35l-45.09-46.73a4.6,4.6,0,0,0-5.45-.7l-88.39,47.88a4.54,4.54,0,0,0-.91,7.07l192.07,194.46,54.68,55.36C1400,1659.81,1406.37,1653.45,1402.3,1649.32Z"/><path class="cls-2" d="M1779,1560.93,1615.48,1712.2l-46.7,43.22,7.52,2-19.4-104.72-2.78-15-1.16,4.38,194.08-201.37,55.45-57.53-7.68-3.18-17.19,184.14c-.54,5.76,8.47,5.73,9,0L1803.82,1380c.37-4-5.13-5.83-7.68-3.18L1597.9,1582.48c-16.63,17.26-33.51,34.3-49.91,51.78-2.41,2.56-2.79,4.41-2.22,7.54.44,2.47.92,4.94,1.37,7.42l11.38,61.46,9.1,49.12c.65,3.51,5.23,4.1,7.52,2l163.47-151.27,46.7-43.22C1789.58,1563.35,1783.2,1557,1779,1560.93Z"/><path class="cls-2" d="M1900.12,1234.61q-60.74,59.94-120.18,121.11c-41.06,42-84.42,82-127.82,121.55q-64.82,59.13-131.7,116h6.36L1495.6,1562l-74.88-74.88-90.59-90.59-78.32-78.32L1226,1292.44c-3.86-3.86-7.75-9.12-12.25-12.25a4.51,4.51,0,0,1-.53-.53l.7,5.45a2018.49,2018.49,0,0,1,140.8-171.84c28.53-31.17,58.69-60.38,89.65-89.1,50.61-47,99.76-95.41,148.13-144.66,21.45-21.84,42.64-44,64.45-65.45,14.95-14.72,30.3-29.12,46.94-41.93C1755,732.82,1816,705.4,1877.74,688q10-2.82,20-5.28l-5.7-4.34c2.13,59,25.06,114.36,65.72,157.21,26.92,28.37,60.05,50.6,95.59,66.71a322.88,322.88,0,0,0,83.56,25.38l-3.14-5.54a692.51,692.51,0,0,1-82.41,152c-22.73,31.57-49.52,59.67-77,87.13-24.6,24.62-49.54,48.9-74.32,73.34-4.13,4.07,2.23,10.44,6.36,6.36,38.38-37.86,78-74.84,114.2-114.84,31.85-35.17,58.76-74.42,81.68-115.93a720.39,720.39,0,0,0,40.11-85.72c.82-2.09-.92-5.19-3.14-5.54A321.08,321.08,0,0,1,2024,876.71c-41.25-24.78-76.9-59.34-98.82-102.53-15.1-29.74-22.87-62.57-24.07-95.84a4.56,4.56,0,0,0-5.7-4.34c-65.12,16-128.92,42.8-183.93,81.46-39.16,27.53-71.91,63.07-105.22,97.15-51,52.13-102.41,103.79-155.7,153.53-30.62,28.58-61.31,56.9-89.94,87.52a2005.68,2005.68,0,0,0-142.38,170.54q-6.08,8.15-12.08,16.36c-1.16,1.59-.6,4.15.7,5.45l31.18,31.18,74.88,74.88,90.59,90.59,78.32,78.32,25.81,25.81c4.05,4.05,7.94,8.47,12.25,12.25.19.17.36.36.53.53a4.61,4.61,0,0,0,6.36,0q109.3-92.89,213.14-192c26.45-25.25,51.88-51.39,77.44-77.53,29.38-30,59.22-59.62,89.12-89.13C1910.61,1236.9,1904.25,1230.54,1900.12,1234.61Z"/><path class="cls-2" d="M2143.05,882a229.93,229.93,0,0,1-99.77-31.25c-48.62-28.6-84.47-75.47-100.35-129.48a226.26,226.26,0,0,1-9-50.83l-3.3,4.34a827.54,827.54,0,0,1,220.94-25.41l-4.34-3.3A337.17,337.17,0,0,1,2152,847.37a362.31,362.31,0,0,1-13.24,37.9c-2.2,5.35,6.5,7.68,8.68,2.39,24.6-59.76,32.79-125.59,22.27-189.45a343.63,343.63,0,0,0-13.74-54.57,4.65,4.65,0,0,0-4.34-3.3,837,837,0,0,0-223.33,25.73,4.55,4.55,0,0,0-3.3,4.34,237.81,237.81,0,0,0,38.85,117c30.94,46.6,78.3,80.2,132,95.27a235.48,235.48,0,0,0,47.22,8.27C2148.83,891.37,2148.81,882.37,2143.05,882Z"/><path class="cls-2" d="M2122,887c5.79,0,5.8-9,0-9s-5.8,9,0,9Z"/><path d="M1178.64,1574c-2.91-4.58-10.31-6.41-15.48-6.41a21.82,21.82,0,0,0-15.48,6.41L959.88,1761.78a21.89,21.89,0,1,0,31,31l168.52-182.49C1177.14,1597.64,1183.37,1581.43,1178.64,1574Zm0,0"/><path class="cls-2" d="M1182.53,1571.7c-8.94-12.2-27.91-10.43-38-.91-1.18,1.11-2.29,2.29-3.43,3.43l-24.21,24.21L1033,1682.25l-69.43,69.43c-8.13,8.13-16,16-14.39,28.93a26.64,26.64,0,0,0,33.38,22c9.09-2.58,14.72-10.3,20.85-16.94l21.57-23.36,86.28-93.44,43.14-46.72c3.49-3.78,6.82-7.64,10.87-10.83a63,63,0,0,0,9.12-8.69c4.16-4.92,7.87-10.6,9.44-16.92,1.17-4.73,1.13-9.73-1.35-14-2.89-5-10.67-.49-7.77,4.54,2.13,3.7.28,8.71-1.47,12.19-3.37,6.75-8.84,12.35-14.79,16.89-7.18,5.48-13,13.34-19.18,20l-20.22,21.9-80.22,86.87-39.77,43.07c-5.95,6.44-12,16-21.31,17.32a17.54,17.54,0,0,1-19-11.76c-3.63-11.05,4.31-17.83,11.13-24.65l62.53-62.53,80.26-80.26,28-28c4.26-4.26,8.84-10.3,14.27-13.17,5.26-2.78,15.66-3.27,19.67,2.2C1178.15,1580.87,1186,1576.38,1182.53,1571.7Z"/><path class="cls-2" d="M1178.64,1578.47c5.79,0,5.8-9,0-9s-5.8,9,0,9Z"/><path d="M1260.1,1597.21l-84.61,84.61a21.89,21.89,0,0,0,31,31l84.61-84.61a21.89,21.89,0,0,0-31-31Zm0,0"/><path class="cls-2" d="M1256.92,1594l-45.12,45.12-29.29,29.29c-5.68,5.68-13,11.49-16,19.11-9.16,23,17.35,45.48,38.49,32.13,6.35-4,11.61-10.66,16.86-15.9l60-60c6.58-6.58,15.65-13.56,18.77-22.62a26.67,26.67,0,0,0-10.53-30.54c-10.52-7-24.14-5-33.13,3.41-4.23,4,2.14,10.32,6.36,6.36,8-7.49,20.92-6.52,27,3,4.53,7.09,3.08,15.82-2.53,21.78-4.56,4.85-9.43,9.43-14.14,14.14l-54.92,54.92c-5,5-9.95,10.09-15,15-6.25,6.08-15.72,7.41-23,2.09-8.7-6.41-9.2-18.62-2-26.31,12.45-13.34,25.88-25.88,38.78-38.78l45.83-45.83C1267.38,1596.29,1261,1589.93,1256.92,1594Z"/><path class="cls-2" d="M1260.1,1601.71c5.79,0,5.8-9,0-9s-5.8,9,0,9Z"/></g></g></svg>