<?xml version="1.0" encoding="UTF-8"?>
<svg viewBox="0 0 1457 216" version="1.1" xmlns="http://www.w3.org/2000/svg" xmlns:xlink="http://www.w3.org/1999/xlink">
    <g id="Page-1" stroke="none" stroke-width="1" fill="none" fill-rule="evenodd">
        <g id="logo" transform="translate(0.000000, -21.000000)">
            <path d="M116,123.6 C116,133.200048 114.133352,139.66665 110.4,143 C106.666648,146.33335 99.933382,148 90.2,148 L26.4,148 C15.866614,148 8.93335,146.133352 5.6,142.4 C2.26665,138.666648 0.6,131.46672 0.6,120.8 L21.8,116.4 L21.8,128.6 L94.8,128.6 L94.8,105 L30.4,105 C20.666618,105 13.966685,103.33335 10.3,100 C6.633315,96.66665 4.8,90.200048 4.8,80.6 L4.8,69.2 C4.8,59.599952 6.633315,53.13335 10.3,49.8 C13.966685,46.46665 20.666618,44.8 30.4,44.8 L89,44.8 C98.866716,44.8 105.599982,46.499983 109.2,49.9 C112.800018,53.300017 114.6,59.866618 114.6,69.6 L93.4,74.6 L93.4,62.8 L25.8,62.8 L25.8,85 L90.2,85 C99.933382,85 106.666648,86.66665 110.4,90 C114.133352,93.33335 116,99.799952 116,109.4 L116,123.6 Z" id="S" fill="#FFFFFF" fill-rule="nonzero"></path>
            <path d="M281.7,87.8 C281.7,101.1334 273.966744,107.8 258.5,107.8 L193.7,107.8 L193.7,148 L170.1,148 L170.1,44.8 L258.5,44.8 C273.966744,44.8 281.7,51.4666 281.7,64.8 L281.7,87.8 Z M258.5,81.8 L258.5,70.8 C258.5,67.333316 257.50001,65.066672 255.5,64 C254.033326,63.066662 251.433352,62.6 247.7,62.6 L193.7,62.6 L193.7,90 L247.7,90 C251.433352,90 254.033326,89.533338 255.5,88.6 C257.50001,87.533328 258.5,85.266684 258.5,81.8 Z" id="P" fill="#FFFFFF" fill-rule="nonzero"></path>
            <path d="M444.3,148 L417.3,148 L404.9,125.4 L339.5,125.4 L327.5,148 L303.5,148 L361.9,44.8 L385.1,44.8 L444.3,148 Z M394.9,106.8 L372.7,64.8 L349.7,106.8 L394.9,106.8 Z" id="A" fill="#FFFFFF" fill-rule="nonzero"></path>
            <path d="M592.9,123.6 C592.9,133.200048 591.066685,139.66665 587.4,143 C583.733315,146.33335 577.033382,148 567.3,148 L505.7,148 C495.966618,148 489.266685,146.33335 485.6,143 C481.933315,139.66665 480.1,133.200048 480.1,123.6 L480.1,69.2 C480.1,59.599952 481.933315,53.13335 485.6,49.8 C489.266685,46.46665 495.966618,44.8 505.7,44.8 L567.3,44.8 C579.566728,44.8 587.166652,47.666638 590.1,53.4 C591.966676,56.73335 592.9,65.266598 592.9,79 L568.9,82.8 L568.9,63.2 L504.1,63.2 L504.1,128.6 L568.9,128.6 L568.9,106.4 L592.9,111.4 L592.9,123.6 Z" id="C" fill="#FFFFFF" fill-rule="nonzero"></path>
            <polygon id="E" fill="#FFFFFF" fill-rule="nonzero" points="753.5 148 646.9 148 646.9 44.8 752.5 44.8 752.5 62.4 670.9 62.4 670.9 85.4 718.5 85.4 718.5 103 670.9 103 670.9 128.6 753.5 128.6"></polygon>
            <path d="M912.9,123.6 C912.9,133.200048 911.066685,139.66665 907.4,143 C903.733315,146.33335 897.033382,148 887.3,148 L825.7,148 C815.966618,148 809.266685,146.33335 805.6,143 C801.933315,139.66665 800.1,133.200048 800.1,123.6 L800.1,69.2 C800.1,59.599952 801.933315,53.13335 805.6,49.8 C809.266685,46.46665 815.966618,44.8 825.7,44.8 L887.3,44.8 C899.566728,44.8 907.166652,47.666638 910.1,53.4 C911.966676,56.73335 912.9,65.266598 912.9,79 L888.9,82.8 L888.9,63.2 L824.1,63.2 L824.1,128.6 L888.9,128.6 L888.9,106.4 L912.9,111.4 L912.9,123.6 Z" id="C" fill="#FFFFFF" fill-rule="nonzero"></path>
            <g id="comet" transform="translate(1030.741042, 139.143391) rotate(-54.000000) translate(-1030.741042, -139.143391) translate(913.241042, 64.143391)">
                <rect id="Rectangle" fill="#FFFFFF" fill-rule="nonzero" x="79" y="0" width="100" height="20" rx="10"></rect>
                <rect id="Rectangle-Copy-2" fill="#FFFFFF" fill-rule="nonzero" x="38" y="32" width="85" height="20" rx="10"></rect>
                <rect id="Rectangle-Copy-4" fill="#FFFFFF" fill-rule="nonzero" x="0" y="65" width="110" height="20" rx="10"></rect>
                <rect id="Rectangle-Copy-3" fill="#FFFFFF" fill-rule="nonzero" x="38" y="98" width="85" height="20" rx="10"></rect>
                <rect id="Rectangle-Copy" fill="#FFFFFF" fill-rule="nonzero" x="79" y="130" width="100" height="20" rx="10"></rect>
                <circle id="Oval" stroke="#FFFFFF" stroke-width="20" cx="170" cy="75" r="65"></circle>
                <circle id="Oval-2" fill="#FFFFFF" fill-rule="nonzero" cx="152.504113" cy="101.085401" r="15"></circle>
                <circle id="Oval-2-Copy" fill="#FFFFFF" fill-rule="nonzero" cx="192.227778" cy="48.7589405" r="10"></circle>
                <circle id="Oval-2-Copy-2" fill="#FFFFFF" fill-rule="nonzero" cx="193.17096" cy="102.225314" r="7"></circle>
            </g>
            <path d="M1301.6,95.8 C1301.6,115.8001 1294.00008,130.533286 1278.8,140 C1270.13329,145.33336 1256.0001,148 1236.4,148 L1176.2,148 L1176.2,44.8 L1242.6,44.8 C1260.46676,44.8 1274.46662,48.79996 1284.6,56.8 C1295.93339,65.600044 1301.6,78.599914 1301.6,95.8 Z M1276.8,95.4 C1276.8,73.933226 1265.46678,63.2 1242.8,63.2 L1200.2,63.2 L1200.2,128.6 L1231.2,128.6 C1245.86674,128.6 1256.5333,126.733352 1263.2,123 C1272.26671,117.933308 1276.8,108.7334 1276.8,95.4 Z" id="D" fill="#FFFFFF" fill-rule="nonzero"></path>
            <polygon id="E" fill="#FFFFFF" fill-rule="nonzero" points="1456.5 148 1349.9 148 1349.9 44.8 1455.5 44.8 1455.5 62.4 1373.9 62.4 1373.9 85.4 1421.5 85.4 1421.5 103 1373.9 103 1373.9 128.6 1456.5 128.6"></polygon>
        </g>
    </g>
</svg>
