<svg xmlns="http://www.w3.org/2000/svg" viewBox="0 0 1590.26 1839.97"><title>Ресурс 7</title><g id="Слой_2" data-name="Слой 2"><g id="Слой_1-2" data-name="Слой 1"><path d="M512.88,1840c-122.58,0-238.7-93.54-338.7-274.18C45.16,1333.54,0,1081.94,0,936.78,0,672.28,225.8,375.51,551.59,375.51c74.19,0,122.58,29,167.74,54.84,38.71,22.58,74.19,41.93,122.58,41.93,71,0,129-25.81,183.86-54.84,51.61-25.81,100-48.39,154.83-48.39,171,0,280.63,109.67,345.15,190.32l25.81,32.26L1512.84,611C1412.85,682,1358,788.4,1358,914.2c0,148.38,67.74,258.05,212.89,335.47l16.13,9.68v38.71c0,6.45,3.23,12.9,3.23,19.35,0,200-216.12,519.33-470.95,519.33-51.61,0-103.22-19.35-151.61-35.48s-96.77-35.48-145.16-35.48c-58.06,0-116.12,19.35-167.74,41.93C603.2,1823.85,558,1840,512.88,1840ZM551.59,440c-229,0-487.08,203.22-487.08,496.75,0,138.7,45.16,377.4,167.74,600,58.06,109.67,158.06,238.7,280.63,238.7,32.26,0,74.19-16.13,116.12-32.26,54.84-22.58,119.35-45.16,190.32-45.16,58.06,0,112.9,19.35,167.74,38.71,45.16,16.13,90.32,32.26,132.25,32.26,154.83,0,406.44-212.89,406.44-454.82v-19.35c-154.83-87.09-229-212.89-229-380.63,0-138.7,58.06-258.05,161.28-338.7-61.29-71-148.38-138.7-274.18-138.7-41.93,0-80.64,19.35-129,41.93C996.73,507.77,929,540,845.13,540c-64.51,0-109.67-25.81-154.83-51.61S606.43,440,551.59,440Z"/><path d="M835.45,536.8c-6.45,0-12.9-3.23-19.35-6.45-9.68-6.45-12.9-16.13-12.9-25.81v-6.45c-6.45-29-6.45-51.61-6.45-74.19,0-238.7,180.64-374.18,351.6-422.56,9.68-3.23,16.13,0,25.81,3.23s12.9,12.9,16.13,19.35l3.23,9.68v9.68c3.23,22.58,3.23,41.93,3.23,61.29,0,203.22-129,361.28-351.6,429C841.9,536.8,838.68,536.8,835.45,536.8ZM1129,75.53C993.51,123.91,858,236.81,858,423.9c0,9.68,0,22.58,3.23,38.71C964.48,423.9,1129,327.13,1129,107.78,1132.21,98.11,1132.21,88.43,1129,75.53Z"/></g></g></svg>