<svg xmlns="http://www.w3.org/2000/svg" xmlns:xlink="http://www.w3.org/1999/xlink" viewBox="0 0 1546.56 1832.78"><defs><style>.cls-1{fill:none;}.cls-2{clip-path:url(#clip-path);}.cls-3{fill:#050007;}</style><clipPath id="clip-path"><rect class="cls-1" width="1543.15" height="1851"/></clipPath></defs><title>Ресурс 8</title><g id="Слой_2" data-name="Слой 2"><g id="Слой_1-2" data-name="Слой 1"><g class="cls-2"><path class="cls-3" d="M947.22,398.06c-32,0-57.48,25.52-57.48,56.7a57.28,57.28,0,1,0,114.57,0c0-31.18-25.52-56.7-57.09-56.7ZM1386,579.56c-50.66,0-94.79,17.15-124.12,44.52,0-.68-.39-1.85-.39-3-19.78-125.19-89-235.56-193.68-310.09l107.65-170.88a91,91,0,0,0,11.11-70.82c-6.53-24.74-23.58-45.69-46.47-57.87A98.06,98.06,0,0,0,1094,0c-33.41,0-63.91,16.37-81.35,44.13l-118,187.24a489.82,489.82,0,0,0-119.15-14.81A498.7,498.7,0,0,0,655,231.38L536.59,44.13C519.45,16.76,489.05,0,455.15,0a100.34,100.34,0,0,0-45.69,11,96.14,96.14,0,0,0-46.76,58.26,91.75,91.75,0,0,0,11,71.22l108,171.17C377.89,386.27,309,496.26,289.24,621.06a2.89,2.89,0,0,1-.39,1.95c-29.32-29.32-75-47.93-127.52-47.93C70.82,575.08,0,631,0,702.12v432.35c0,71.12,70.82,127,161.33,127,54.07,0,101.22-19.78,130.54-51,0,42.28-.39,77.65-.39,100.44,0,142.33,68.87,200.2,141.55,222.22v174c0,70.34,70.82,125.58,161,125.58S755,1777.54,755,1707.21V1545.78H793.1v161.42c0,70.34,70.34,125.58,160.94,125.58,90.21,0,160.55-55.24,160.55-125.58V1533.6c93.23-28.15,143.89-104.63,143.89-220.27V1209.39c29.32,28.93,75,47.64,127.14,47.64,90.12,0,160.94-55.24,160.94-125.67V705.13c0-70.34-70.44-125.58-160.55-125.58ZM267.13,1134.47c0,39.16-47.15,70.73-105.8,70.73-57.87,0-105.41-31.56-105.41-70.73V702.12c0-39.17,47.54-70.73,105.41-70.73,58.65,0,105.8,31.56,105.8,70.73Zm935.44,178.86c0,103.46-44.13,163.57-143.89,174.29v219.58c0,38-46.76,69.56-104.63,69.56s-104.63-31.56-104.63-69.56V1489.86c-49.49-.39-101.22-.39-150.32-.39v217.73c0,38-47.25,69.56-105,69.56s-104.73-31.56-104.73-69.56v-220c-97-10.33-141.56-65.08-141.56-176.23,0-123.63.78-605.08.78-605.08h854ZM344.77,629.83c20.16-129.77,102.39-239.37,215.78-301.42a34.18,34.18,0,0,1-4.19-4.19L421.25,110c-11-17.15-4.58-39.16,14.51-49.1a39.64,39.64,0,0,1,19.39-5c13.35,0,26.59,6.53,33.9,18.31L624.47,288.07c1.95,3,2.73,6.53,3.41,9.94a449.3,449.3,0,0,1,147.69-25.14c51.34,0,100.05,9.16,145.75,24.74,1.17-3,1.56-6.53,3.8-9.55L1059.84,74.23a41,41,0,0,1,53.68-13.35c19,9.94,25.43,32,14.42,49.1L992.82,324.22c-1.07,1.56-2.63,1.95-3.8,3.41,113.78,62.45,196.4,172,217,302.2Zm1145.87,501.52c0,38.48-46.86,69.66-104.63,69.66s-105.12-31.17-105.12-69.66V705.13c0-38.39,47.25-69.56,105.12-69.56s104.63,31.17,104.63,69.56ZM599.72,398.06c-31.56,0-57.48,25.52-57.48,56.7a57.29,57.29,0,1,0,114.57,0c0-31.18-25.53-56.7-57.09-56.7Zm0,0"/></g></g></g></svg>