<svg xmlns="http://www.w3.org/2000/svg" viewBox="0 0 1833.2 1855.44"><defs><style>.cls-1,.cls-2{fill:#fff;}.cls-1{stroke:#291d10;stroke-linecap:round;stroke-linejoin:round;stroke-width:0.25px;}</style></defs><title>Ресурс 23</title><g id="Слой_2" data-name="Слой 2"><g id="Слой_1-2" data-name="Слой 1"><rect class="cls-1" x="817" y="1603.57" width="64" height="128" transform="translate(46.87 -23.05) rotate(1.6)"/><path class="cls-2" d="M1048,986.84c4.73-14,10-42.73,14.68-56.76H1823c0-172.89,0-333.11,0-493.32,0-146.82-.06-146.94-145.49-147-204.94-.11-409.88,0-619.28,0-2.57-48.27-5.3-81.23-5.9-114.24-2.63-143.33-21-162.43-162.76-162.62C638.3,12.51,387.06,14.24,135.85,12,46.26,11.22,4.49,49.05,4.6,138.85q1,793-.1,1586.1c-.13,87.84,36.17,131,127.8,130.3q393.69-3,787.41.17c97.62.93,134.92-45,132.85-137.51-2.16-96.58-.48-193.24-.48-286.45,23.07-8.19,33.45-15,43.9-15.11q224.9-2.4,449.82-3.09c278.8-.43,281,.5,287.24-273.54,2.4-104.74-21.67-114.82-115.06-111.91-183.55,5.73-390,6.44-573.59,2.19C1111.93,1029.25,1080.09,1001.91,1048,986.84Z"/><path d="M1056.88,1019c0,9.63,15.83,9.4,33,9,28.62-.66,67.12-3,70.73-2.88,183.64,4.25,376.14-.07,559.71,5,67.56,1.87,103.85,2.85,103.85,2.85s1.38,50,.1,105.76c-6.28,274-4.18,262.09-283,262.52q-224.91.34-449.82,3.09c-10.45.11-10.6-.35-34.6-2.35,0,93.21-3.18,187.08,1,293,3.56,90.36-41.28,149.53-142.68,148.42-262.45-2.88-525-2.16-787.41-.17C36.17,1843.95-.13,1800.79,0,1713q1.21-793,.1-1586.1C0,37.05,41.76-.78,131.35,0,382.56,2.24,633.8.51,885,.86c141.73.2,148.23,13.81,150.86,157.14.61,33-.57,73.73,2,122,209.4,0,430.15-2.36,635.09-2.25,145.43.08,145.46.19,145.49,147,0,160.21,0,320.43,0,493.32L1058.88,917M748.81,330.32V875.86c326.37,0,643.95.91,961.49-2.15,20.14-.19,56.86-30.91,57.33-48.2,4.42-163,2.63-326.12,2.63-495.18Zm-8.27,729.08c0,84.56-5.68,159.19,3.2,232,2.95,24.19,43,62.36,66.59,62.71q443.11,6.5,886.32.29c24.94-.34,67.95-35.77,70.65-58.65,9-76.17,3.4-154.05,3.4-236.39Zm-687.68-791c3.69,676,6.81,1167.67,6.82,1215.87,0,6.26,0,24.66,11.94,39.22C91,1547,129.09,1545.1,141.14,1544.7c255-8.29,510.25.75,765.36-1.47,30.28-.26,82.49,6.18,91.38-13.23,13.09-28.59,6-126,6-126l-102,6s.74,45-6,58c-8.45,16.28-26.41,17.86-42.87,18.38-217.39,6.86-435.16.52-652.7,4.31-105.28,1.83-85.56-68.55-87.1-130-1.53-61-10.53-122.26,85.57-118.84,134.89,4.8,270.1,1.77,405.15.26,24.55-.27,75.46,3.92,100-1.06-.93-11.33-.07-38.67-1-50l-589.7,2.78c0-96.2-1-174.3.19-252.36C117.21,696.95,74.61,733.56,325.88,731c114.71-1.17,230.27,4,345,4,16,1,47,1,47,1s.3-36.8,0-46c-156.39,0-361,2.7-517.14-3-29.6-1.08-78.95-32.84-83.65-57.28C94.64,512.86,102.37,436.77,109,390.55,119.32,318.69,227.72,320,391.88,320c76.94,0,151.63.61,194,2,40.48,1.32,88,.41,112,2,16-6-2.76-27.43,16.1-33.56,14.07-4.57,203.38,1.78,271.9-4.44,13.41-1.22,3.48-20,.36-20C773.33,264.48,260.35,270,52.86,268.39ZM990.71,1597.65H60.77C30.49,1787.05,44.07,1790,221.88,1790c206,.06,394,6.1,600,6,134.49-.06,184.59-4,179.4-103.62C1000,1667.1,996.12,1636,990.71,1597.65Zm-.29-1390.89c1.4-157,10.32-149.05-120.09-149.46C641.61,56.58,415.6,51.45,186.88,52c-138.12.33-135.13,10.33-131,156.79ZM715.88,782s-381.42-10.74-558-10.74L163.24,1147c178,0,360.06,1,538.64,1,11.26-32.93,3-63.09,4-90,.42-11.87,7.14-20,30-26,32-8.37,74.6-3.43,128-3s111.58-1.64,136.94,1.74c7.79,1,4.67-21.91,5.06-42.74.5-26.34-.33-70.89-8-72-68.11-9.88-188.6-1.5-264-2.25-19-.19-24-41.75-24-41.75s-59.89-1.4-84,0c-51.1,3-156.19,4.23-190.53,1.25C357.3,866.49,307.52,869,228.88,869c1.34-11.69-11.77-26.75,0-27,279.54-5.9,485,2,485,2Zm-10-372c-.32-17.59.32-38.41,0-56-42.13,0-105.86,2.85-148,2.71-72-.25-144.08-.4-216.1.61C136.35,360.17,156.9,323.38,155.5,553.72c0,3.75.4,7.54,0,11.24-7,64.25,23.86,85.83,85.5,84,101.1-2.94,202.35-.62,303.54-.69,102.23-.08,153.81,18.75,165.36-20.3,4-13.51,0-24,0-64,0-41.14,1-88,0-116l-480-7-.6-31.2Zm154,1031.76c0-37.76-148.21-35.11-160-152.76-.48-4.76-63.55-4.11-81.74-4.22-127.08-.77-254.17.77-381.23-1-54-.76-82.1,13.94-82.82,75.46-.77,65.81,28,84.19,87.8,83,112.08-2.26,224.25-.51,336.38-.47Q719.1,1441.81,859.93,1441.76Z"/><path class="cls-2" d="M748.81,330.32H1770.26c0,169.06,1.79,332.2-2.63,495.18-.47,17.29-37.19,48-57.33,48.2-317.54,3.07-635.12,2.15-961.49,2.15ZM850.53,435.51l.35,23.84h810.84l-.14-23.84Zm581.95,266.57.81-23.69H850.64l.53,23.69ZM851.35,553l-.81,23.87h410.11l-.81-23.87Z"/><path class="cls-2" d="M740.54,1059.4H1770.7c0,82.33,5.58,160.22-3.4,236.39-2.7,22.89-45.7,58.31-70.64,58.65q-443.12,6.1-886.32-.29c-11.78-.17-43.26,1.19-56.6-11.42s-17.28-30.54-18.76-42.63C726.09,1227.24,740.54,1144,740.54,1059.4Zm926.56,89.89-1.1-25.62H841.54q.07,12.81.14,25.62ZM1260.79,1270.6l.32-24.43H849.61l.66,24.43Z"/><path class="cls-2" d="M1003.34,1591.41c4.11,185.38,0,197-167.35,204.58-205.82,9.35-412.07.06-618.1,0C40.07,1796,31.23,1780.71,44,1588.85,351.26,1588.85,689.36,1591.41,1003.34,1591.41ZM518.95,1784.14c33.94-38,78.25-67.75,74.18-87.63C587,1666.69,550.38,1631.23,520,1623c-16.52-4.47-64,40.93-66.2,66.51C451.66,1714.81,489,1743.45,518.95,1784.14Z"/><path class="cls-2" d="M859.93,1441.76q-140.83,0-281.67,0c-112.13,0-224.29-1.8-336.38.47-59.77,1.21-88.57-17.18-87.8-83,.72-61.52,28.84-76.22,82.82-75.46,127.05,1.78,254.15.24,381.23,1,18.19.11,51.79,4,52.27,8.77,7,69.56,43,90,88.23,97.86,32.12,5.56,68.89,4.74,103.24,10.59C859.82,1411.33,862,1432.43,859.93,1441.76Z"/><path d="M850.53,435.51h811.05l.14,23.84H850.88Z"/><path d="M1432.48,702.08H851.16l-.53-23.69h582.65Z"/><path d="M851.35,553h408.48l.81,23.87H850.54Z"/><path d="M1667.1,1149.29H841.68q-.07-12.81-.14-25.62H1666Z"/><path d="M1260.79,1270.6H850.27l-.66-24.43h411.5Z"/><path d="M523.52,1765.64c-25.05-2.92-44.6-21.64-47.75-44.34-3.92-28.31,18.46-57,46-58,29.57-1,54.39,30.32,49.45,59.69C567.63,1744.63,548.33,1762.48,523.52,1765.64Z"/><path d="M224,1010.79H661.7l.76,25.7H227.6Z"/><path d="M224.71,929.25h312.6l.39,21.54H225.59Z"/><path d="M529,534.53H237.33l.45-20.46h291.7Z"/></g></g></svg>