<svg xmlns="http://www.w3.org/2000/svg" viewBox="0 0 2404.08 1814.69"><defs><style>.cls-1,.cls-4,.cls-7{fill:#fff;}.cls-1,.cls-3,.cls-4{stroke:#291d10;}.cls-1,.cls-2,.cls-4{stroke-linecap:round;stroke-linejoin:round;}.cls-1{stroke-width:57.04px;}.cls-2,.cls-3,.cls-5,.cls-6{fill:none;}.cls-2,.cls-6,.cls-7,.cls-8{stroke:#201600;}.cls-2{stroke-width:40.23px;}.cls-3,.cls-6,.cls-7,.cls-8{stroke-miterlimit:10;}.cls-3,.cls-4{stroke-width:44.61px;}.cls-6{stroke-width:22.95px;}.cls-7{stroke-width:30px;}.cls-8{fill:#201600;stroke-width:20px;}</style></defs><title>Ресурс 6</title><g id="Слой_2" data-name="Слой 2"><g id="Слой_1-2" data-name="Слой 1"><rect class="cls-1" x="28.52" y="28.52" width="2347.03" height="1757.65" rx="45.29" ry="45.29"/><path class="cls-2" d="M85.94,35.83H2323.56a48,48,0,0,1,48,48V316.46a0,0,0,0,1,0,0H37.94a0,0,0,0,1,0,0V83.83A48,48,0,0,1,85.94,35.83Z"/><path class="cls-3" d="M1791.24,1506.45"/><path class="cls-3" d="M389,1506.45"/><path class="cls-4" d="M914.88,1572.54"/><circle class="cls-3" cx="180.68" cy="168.62" r="39.15"/><circle class="cls-3" cx="324.42" cy="171.62" r="39.15"/><circle class="cls-3" cx="473.9" cy="170.62" r="39.15"/><line class="cls-3" x1="255.56" y1="1224.04" x2="1460.55" y2="1224.04"/><line class="cls-3" x1="240.77" y1="1517.91" x2="1522.34" y2="1502.23"/><line class="cls-3" x1="255.56" y1="717.68" x2="1460.55" y2="717.68"/><line class="cls-3" x1="255.56" y1="968.63" x2="1460.55" y2="968.63"/><rect class="cls-5" x="0.56" y="355.83" width="56" height="208"/><rect class="cls-6" x="1672.01" y="486.22" width="156.27" height="188.17"/><rect class="cls-7" x="1779.99" y="579.41" width="204.25" height="245.95"/><rect class="cls-8" x="1954.25" y="1383.25" width="77.98" height="95.98"/><rect class="cls-8" x="1810.28" y="1383.25" width="77.98" height="95.98"/><rect class="cls-8" x="2104.22" y="1383.25" width="77.98" height="95.98"/><rect class="cls-8" x="1972.25" y="1203.29" width="77.98" height="95.98"/><rect class="cls-8" x="2104.22" y="1197.29" width="77.98" height="95.98"/><path d="M2388.89,800.49,2228.38,640,1521,1347.39l-15.41,175.93,74.17-6.55.3.38.47-.38,100.91-8.86Zm-44.72,0-46,46L2182.36,730.72l46-46.1Zm-739.62,508,520.53-520.53L2143.26,806l-520.52,520.54Zm561-480.06L2206,868.87l-520.53,520.54L1645,1348.93Zm62.84,62.76L2241,903.7l-520.53,520.54-12.57-12.55Zm-81-125.6L2160,753l115.79,115.87-12.47,12.55Zm-607.1,723,.85-10.24,9.32,9.32Zm51.25-4.46-46.79-46.87,6.63-75.65,30.85-30.83,115.79,115.87-30.85,30.85Zm0,0"/></g></g></svg>