<svg xmlns="http://www.w3.org/2000/svg" viewBox="0 0 2566.35 1892.29"><defs><style>.cls-1{stroke:#000;stroke-miterlimit:10;stroke-width:0.75px;}</style></defs><title>Ресурс 14</title><g id="Слой_2" data-name="Слой 2"><g id="Слой_1-2" data-name="Слой 1"><path class="cls-1" d="M2553.94,533.18,2042.22,44.5a41,41,0,0,0-58,0L1752.32,277.39a41,41,0,0,0,0,58l24.86,24.86-57.12,57.11c-37.08,37.07-94.62,47.18-143.17,25.15a354.42,354.42,0,0,0-316,11.75,276.59,276.59,0,0,0-160.63,8.57c-48.44,17.6-100.35,6.69-135.51-28.46L862.12,331.82l12.21-12.21a41,41,0,0,0,0-58L625.16,12.4a41,41,0,0,0-58,0L12.4,567.12a41,41,0,0,0,0,58L261.57,874.33a41,41,0,0,0,58,0l14.86-14.86,72.34,72.34a125.52,125.52,0,0,1,35,65.9,644.46,644.46,0,0,0,178.51,338.89l13.62,13.62a146.63,146.63,0,0,0-40.56,101.12c-.13,39.2,27.11,66.32,54.79,94.08,28.82,28.89,55,54,92.91,54q3.69,0,7.38-.19c-2,40.25,28.17,74.62,58.84,105.29,27.9,27.9,49.15,49.8,88.6,49.8,1.1,0,2.19-.05,3.29-.08-.84,38.89,19.61,64.79,49.22,94.4a146.73,146.73,0,0,0,104.45,43.26c39.45,0,70.44-2.1,98.34-30,2.35-2.35,4.56-4.78,6.72-7.24a138.06,138.06,0,0,0,174.17-80.52l4.2,4.2a138,138,0,0,0,226.93-49.57,138,138,0,0,0,219.08-111.64,139.16,139.16,0,0,0-3.88-32.63,138,138,0,0,0,84.75-215l32.92-32.92a644.23,644.23,0,0,0,179.29-343.13c3.93-21.87,13.93-37.23,47-55.25l135.11-126.1,21.76,4.85c8,8,51.29-17.85,59.31-25.87L2554,591.21a41,41,0,0,0,0-58ZM62.7,587.66,597.48,57.4,840.62,291.54,300.3,822.85Zm632,910.58a65.21,65.21,0,0,1-19.22-46.41c0-17.53-1.68-66.08,10.72-78.47a65.4,65.4,0,0,1,46.4-19.19c16.8,0,42.12,38.47,54.91,51.26a65.62,65.62,0,1,1-92.8,92.81Zm201.22,174a65.18,65.18,0,0,1-46.4-19.22c-25.59-25.59-22.33-92,3.26-117.6a65.41,65.41,0,0,1,46.4-19.19c16.8,0,30.34,31.19,43.13,44,14.18,45.2,25.59,67.22,0,92.81A65.15,65.15,0,0,1,895.88,1672.27ZM1118.6,1815.6c-12.39,12.39-51.53,27-69.05,27s-50.66-23.63-63-36c-25.59-25.59-27.38-93.65-1.79-119.24,12.79-12.79,51-27.88,67.84-27.88s48,9,66.05,63C1127.6,1767.57,1144.19,1790,1118.6,1815.6Zm691.49-312.22a55.8,55.8,0,0,1-79,0L1313,1090.81a41,41,0,0,0-58,58l450,449.63a55.9,55.9,0,1,1-79.06,79.06l-93.49-93.18c-.4-.42-.79-.84-1.21-1.25-.12-.12-.26-.22-.38-.34L1198.28,1250.2a41,41,0,0,0-58,58l333.64,333.63c10.2,10.45,27,39,27,53.66a55.87,55.87,0,0,1-95.37,39.51l-372.91-376.47a41,41,0,0,0-58,58l268.16,268.17c.08.08.14.16.21.23,10.54,10.52,43.17,46.15,43.17,61.06a56,56,0,0,1-55.9,55.92c-3.61,0-57.07-15.75-60.52-16.4,6.64-44.73-16.68-103.75-51-138.11-27.9-27.9-32.4-37.7-71.85-37.7-1.1,0-38.14-7.37-39.23-7.34.84-38.89-2.19-56.56-31.81-86.18-27.9-27.9-67.76-55-107.21-55q-3.7,0-7.37.18c2-40.22-21.37-76.59-52-107.24-37.31-37.3-85.94-57-133.92-45.94l-29.43-29.43c-81-81-114.15-169.47-135.12-282-7.68-41.22-45.18-64.46-75.2-94.49l-60.49-86.47L831.61,372.59l94.56,99.06c39.42,39.42,96.1,49.78,151.09,49.78a215.15,215.15,0,0,0,73.5-13c11.63-4.23,51.39-3.39,63.58-5.31L926.17,822.85c-31.09,31.09-31.52,59.6-31.52,103.56s10.13,51.37,41.21,82.45C968,1041,1010.09,1039,1052.24,1039s76-13,108.06-45L1270.23,906l34.7,18.56,0,0,1.43,1.43,1.38,1.38,0,0,0,0c.39.39.78.76,1.17,1.13l501.11,495.7a55.89,55.89,0,0,1,0,79Zm280-609.4c-28.48,28.48-53.91,43.52-60.81,82-20.48,114-89.17,228.71-171.1,310.68l-63,54-277.53-291.89c34.86,2.12,11.3.69,17,.69a209.43,209.43,0,0,0,80-15.56c21-8.58,8.51-14.54-.07-35.51A41,41,0,0,0,1561,975.94c-105.62,43.22-180.67-76.19-194.76-89.91l-.71-.68-1.46-1.46h0l-1.27-1.26,0,0L1328.25,848l39.17-39.18a41,41,0,0,0,0-58c-16-16-64.69,65.8-80.71,81.83l-68,52.1-.08.08-.08.08L1098.52,972c21-21-60.36,57.82-130.51-12.31A82.52,82.52,0,0,1,968,843l277.84-294.77a272.16,272.16,0,0,1,304.68-55.41c79.51,36.08,152,31,213.13-30.14l73.44-73.14,393.31,375.3Zm207.08-135.6L1808.69,296,2006.81,88.92l507.59,468.19Z"/></g></g></svg>