<svg xmlns="http://www.w3.org/2000/svg" viewBox="0 0 1797.23 1937.46"><defs><style>.cls-1,.cls-2{fill:#fff;}.cls-1,.cls-3,.cls-4,.cls-5{stroke:#291d10;stroke-linecap:round;stroke-linejoin:round;}.cls-1,.cls-3{stroke-width:60px;}.cls-3,.cls-4,.cls-5{fill:none;}.cls-4{stroke-width:30.38px;}.cls-5{stroke-width:45.57px;}</style></defs><title>Ресурс 16</title><g id="Слой_2" data-name="Слой 2"><g id="Слой_1-2" data-name="Слой 1"><path class="cls-1" d="M1575.8,261.73H265.5a26.93,26.93,0,0,0-26.83,27V1215.9a26.93,26.93,0,0,0,26.83,27H1575.8a26.93,26.93,0,0,0,26.83-27V288.76A26.93,26.93,0,0,0,1575.8,261.73Z"/><path class="cls-2" d="M1567.81,1246.06l-1280.32,4c-14.47,0-32.72,15.68-32.72,15.68l-14.43,34.47-2.15,5.15c-1.57,3.73-3.12,7.42-4.69,11.2l-2.54,6-16.57,39.55c-64.53,154-183.77,438.46-183.77,438.46-3.61,8.61,8.84,15.61,27.81,15.63l1022.17,1.14,181.57.2,162.14.18,313,.35c2.29,0,14.45-.09,22.92-4.59,5.33-2.85,8-6.78,6.6-11.14L1599,1261.74C1596.25,1253,1582.31,1246,1567.81,1246.06Z"/><path class="cls-3" d="M1567.81,1246.06l-1280.32,4c-14.47,0-32.72,15.68-32.72,15.68l-14.43,34.47-2.15,5.15c-1.57,3.73-3.12,7.42-4.69,11.2l-2.54,6-16.57,39.55c-64.53,154-183.77,438.46-183.77,438.46-3.61,8.61,8.84,15.61,27.81,15.63l1022.17,1.14,181.57.2,162.14.18,313,.35c2.29,0,14.45-.09,22.92-4.59,5.33-2.85,8-6.78,6.6-11.14L1599,1261.74C1596.25,1253,1582.31,1246,1567.81,1246.06Z"/><path class="cls-2" d="M1091.82,1703.3l-310.54,0a34.09,34.09,0,0,0-7.91,1.29l-3.47,2.86-.52.43-1.13.93-.61.5-4,3.28L719.49,1749c-.87.71,2.15,1.3,6.73,1.3l247.36.28,44,0,39.29,0,75.89.09a36.78,36.78,0,0,0,5.56-.38c1.29-.23,1.93-.56,1.6-.92l-40.54-44.83C1098.73,1703.88,1095.34,1703.3,1091.82,1703.3Z"/><path class="cls-4" d="M1091.82,1703.3l-310.54,0a34.09,34.09,0,0,0-7.91,1.29l-3.47,2.86-.52.43-1.13.93-.61.5-4,3.28L719.49,1749c-.87.71,2.15,1.3,6.73,1.3l247.36.28,44,0,39.29,0,75.89.09a36.78,36.78,0,0,0,5.56-.38c1.29-.23,1.93-.56,1.6-.92l-40.54-44.83C1098.73,1703.88,1095.34,1703.3,1091.82,1703.3Z"/><path class="cls-5" d="M32.09,1826.19c0,43.66,21.74,79,48.6,79"/><path class="cls-5" d="M1771.57,1820.45c5.82,41.57-11,78.22-37.61,81.95"/><line class="cls-3" x1="74.63" y1="1907.46" x2="1730.23" y2="1902.9"/><line class="cls-5" x1="343.13" y1="1085.72" x2="782.43" y2="538.17"/><line class="cls-5" x1="1000.05" y1="702.96" x2="1528.33" y2="48.99"/><line class="cls-5" x1="1004.19" y1="702.21" x2="785.47" y2="532.09"/><line class="cls-5" x1="1393.61" y1="86.06" x2="1542.77" y2="22.78"/><line class="cls-5" x1="1550.02" y1="26.92" x2="1509.28" y2="183.75"/></g></g></svg>