<svg xmlns="http://www.w3.org/2000/svg" viewBox="0 0 2300.22 1953.38"><defs><style>.cls-1,.cls-3{fill:#fff;}.cls-1,.cls-2,.cls-3{stroke:#291d10;stroke-linecap:round;stroke-linejoin:round;}.cls-1{stroke-width:40px;}.cls-2{fill:none;}.cls-2,.cls-3{stroke-width:60px;}</style></defs><title>Ресурс 13</title><g id="Слой_2" data-name="Слой 2"><g id="Слой_1-2" data-name="Слой 1"><path class="cls-1" d="M1001.48,461.94H813.19c-2.13,0-3.86,15.94-3.86,35.59V1718.35c0,19.66,1.73,35.59,3.86,35.59h188.29c.26,0,1.62-.24,2.73-10.43a246.92,246.92,0,0,0,1.13-25.17V497.54C1005.34,477.88,1003.61,461.94,1001.48,461.94Z"/><path class="cls-1" d="M1284.48,619.95H1096.19c-2.13,0-3.86,13.86-3.86,31V1713c0,17.1,1.73,31,3.86,31h188.29c.26,0,1.62-.21,2.73-9.07a187.12,187.12,0,0,0,1.13-21.9V650.91C1288.34,633.81,1286.61,619.95,1284.48,619.95Z"/><path class="cls-1" d="M1578.48,766.67H1390.19c-2.13,0-3.86,12.17-3.86,27.17v931.93c0,15,1.73,27.17,3.86,27.17h188.29c.26,0,1.62-.18,2.73-8a144.29,144.29,0,0,0,1.13-19.21V793.84C1582.33,778.83,1580.61,766.67,1578.48,766.67Z"/><path class="cls-1" d="M721.48,1021.94H533.19c-2.13,0-3.86,9-3.86,20.17v691.67c0,11.14,1.73,20.17,3.86,20.17H721.48c.26,0,1.62-.13,2.73-5.91a79.91,79.91,0,0,0,1.13-14.26V1042.11C725.34,1031,723.61,1021.94,721.48,1021.94Z"/><line class="cls-2" x1="124.26" y1="36.33" x2="30" y2="179.66"/><line class="cls-2" x1="157.36" y1="44.19" x2="224.84" y2="195.75"/><line class="cls-2" x1="2077.76" y1="1721.49" x2="2264.71" y2="1817.47"/><line class="cls-3" x1="138.01" y1="30" x2="146.64" y2="1917.09"/><line class="cls-3" x1="2269.27" y1="1827.67" x2="152.36" y2="1837.98"/><line class="cls-2" x1="2270.22" y1="1829.47" x2="2083.75" y2="1923.38"/></g></g></svg>