<svg xmlns="http://www.w3.org/2000/svg" viewBox="0 0 1838.52 1955.59"><defs><style>.cls-1,.cls-2{fill:#fff;}.cls-1,.cls-2,.cls-3,.cls-5{stroke:#291d10;}.cls-1,.cls-2,.cls-5{stroke-linecap:round;stroke-linejoin:round;}.cls-1{stroke-width:60px;}.cls-2,.cls-3,.cls-5{stroke-width:30.9px;}.cls-3,.cls-5{fill:none;}.cls-3,.cls-4{stroke-miterlimit:10;}.cls-4{stroke:#1a1715;stroke-width:0.19px;}</style></defs><title>Ресурс 15</title><g id="Слой_2" data-name="Слой 2"><g id="Слой_1-2" data-name="Слой 1"><path class="cls-1" d="M1773.53,30H65C45.66,30,30,53.38,30,82.22V1873.36c0,28.84,15.66,52.22,35,52.22H1773.53c2.33,0,14.73-.35,24.74-15.3,6.33-9.45,10.25-22.51,10.25-36.93V82.22C1808.52,53.38,1792.86,30,1773.53,30Z"/><path class="cls-2" d="M1656.57,136.84H203.41c-16.44,0-29.76,2.88-29.76,6.43V363.82c0,3.55,13.32,6.43,29.76,6.43H1656.57c2,0,12.52,0,21-1.88,5.39-1.16,8.72-2.77,8.72-4.55V143.27C1686.33,139.72,1673,136.84,1656.57,136.84Z"/><path class="cls-2" d="M620.88,475.13H187.17c-4.91,0-8.88,7.89-8.88,17.63v604.56c0,9.73,4,17.63,8.88,17.63H620.88c.59,0,3.74-.12,6.28-5.16a28.4,28.4,0,0,0,2.6-12.46V492.75C629.76,483,625.78,475.13,620.88,475.13Z"/><path class="cls-2" d="M1672.81,484.39H1239.1c-4.91,0-8.88,4.8-8.88,10.72V862.93c0,5.92,4,10.72,8.88,10.72h433.71a8.24,8.24,0,0,0,6.28-3.14,11.9,11.9,0,0,0,2.6-7.58V495.12C1681.69,489.2,1677.71,484.39,1672.81,484.39Z"/><path class="cls-2" d="M1691.35,1068.29H1257.64c-4.91,0-8.88,8.29-8.88,18.51v634.92c0,10.22,4,18.51,8.88,18.51h433.71c.59,0,3.74-.12,6.28-5.42a31.09,31.09,0,0,0,2.6-13.09V1086.8C1700.23,1076.57,1696.25,1068.29,1691.35,1068.29Z"/><line class="cls-3" x1="753.91" y1="487.15" x2="1125.02" y2="487.15"/><line class="cls-3" x1="750.82" y1="614.59" x2="1121.92" y2="614.59"/><line class="cls-3" x1="1246.97" y1="487.67" x2="1657.94" y2="864.65"/><line class="cls-3" x1="180.93" y1="1099.49" x2="611.63" y2="494.22"/><line class="cls-3" x1="1268.6" y1="1084.04" x2="1679.57" y2="1723.67"/><line class="cls-3" x1="752.37" y1="741.28" x2="1123.47" y2="741.28"/><line class="cls-3" x1="755.46" y1="864.88" x2="1126.56" y2="864.88"/><line class="cls-3" x1="757" y1="983.84" x2="1128.1" y2="983.84"/><line class="cls-3" x1="754.68" y1="1104.35" x2="1125.79" y2="1104.35"/><line class="cls-3" x1="153.12" y1="1216.91" x2="1122.7" y2="1215.6"/><line class="cls-3" x1="156.21" y1="1321.97" x2="1125.79" y2="1320.66"/><line class="cls-3" x1="156.21" y1="1423.92" x2="1125.79" y2="1422.61"/><line class="cls-3" x1="156.21" y1="1535.14" x2="1125.79" y2="1533.83"/><line class="cls-3" x1="156.21" y1="1641.72" x2="1125.79" y2="1640.41"/><line class="cls-3" x1="156.21" y1="1748.31" x2="1125.79" y2="1746.99"/><path class="cls-4" d="M60.42,82.88"/><polyline class="cls-5" points="313.8 252.83 449.72 299.18 681.58 252.83 825.5 302.27 945.43 271.37 1009.39 249.74 1137.32 299.18 1265.24 317.72 1393.17 293 1473.12 311.54 1557.78 294.09 1593.05 286.82"/></g></g></svg>