<?xml version="1.0" encoding="UTF-8"?>
<svg width="255px" height="87px" viewBox="0 0 255 87" version="1.1" xmlns="http://www.w3.org/2000/svg" xmlns:xlink="http://www.w3.org/1999/xlink">
    <!-- Generator: Sketch 46.2 (44496) - http://www.bohemiancoding.com/sketch -->
    <title>С уважением, команда</title>
    <desc>Created with Sketch.</desc>
    <defs></defs>
    <g id="Page-1" stroke="none" stroke-width="1" fill="none" fill-rule="evenodd">
        <g id="Artboard" transform="translate(-132.000000, -104.000000)" fill="#FFFFFF">
            <path d="M218.876,130.792 C219.55067,131.026668 220.217997,131.231999 220.878,131.408 C221.538003,131.584001 222.131997,131.672 222.66,131.672 C222.894668,131.672 223.165998,131.657333 223.474,131.628 C223.782002,131.598667 224.104665,131.54 224.442,131.452 C224.779335,131.364 225.343996,131.129335 226.136,130.748 C226.928004,130.366665 227.397333,130.146667 227.544,130.088 C227.602667,130 227.829998,129.787335 228.226,129.45 C228.622002,129.112665 228.907999,128.834001 229.084,128.614 C229.260001,128.393999 229.348,128.166668 229.348,127.932 C229.348,127.521331 229.230668,127.316 228.996,127.316 C228.878666,127.316 228.82,127.462665 228.82,127.756 C227.793328,128.284003 227.016003,128.650666 226.488,128.856 C225.490662,129.266669 224.640004,129.472 223.936,129.472 C223.525331,129.472 223.158668,129.413334 222.836,129.296 C222.454665,129.296 221.992669,129.083335 221.45,128.658 C220.907331,128.232665 220.357336,127.785336 219.8,127.316 C219.623999,126.699997 219.389335,126.025337 219.096,125.292 C218.538664,123.913326 218.26,122.784004 218.26,121.904 C218.26,121.639999 218.391999,120.848007 218.656,119.528 C218.802667,118.794663 218.876,118.222669 218.876,117.812 C219.609337,115.817323 220.386663,114.248006 221.208,113.104 C221.88267,112.135995 222.674662,111.344003 223.584,110.728 C223.877335,110.522666 224.236665,110.361334 224.662,110.244 C225.087335,110.126666 225.563997,110.068 226.092,110.068 C226.85467,110.068 227.477998,110.199999 227.962,110.464 C228.446002,110.728001 228.688,111.15333 228.688,111.74 C228.688,112.238669 228.453336,112.854663 227.984,113.588 C227.573331,114.116003 227.199335,115.127993 226.862,116.624 C226.524665,118.120007 226.356,119.601326 226.356,121.068 C226.414667,121.097333 226.583332,121.134 226.862,121.178 C227.140668,121.222 227.367999,121.244 227.544,121.244 C228.189337,121.244 228.687998,120.994669 229.04,120.496 C229.274668,120.143998 229.523999,119.469338 229.788,118.472 C230.052001,117.70933 230.359998,116.580007 230.712,115.084 C230.946668,114.086662 231.064,113.470668 231.064,113.236 C231.122667,113.089333 231.152,112.913334 231.152,112.708 L231.152,112.224 C231.152,111.226662 231.005335,110.332004 230.712,109.54 C230.712,108.835996 230.41867,108.278669 229.832,107.868 C229.24533,107.457331 228.482671,107.252 227.544,107.252 C227.279999,107.281333 227.074667,107.296 226.928,107.296 C225.754661,107.296 224.398008,107.779995 222.858,108.748 C221.317992,109.716005 220.445334,110.522663 220.24,111.168 C219.770664,111.402668 219.272003,111.871996 218.744,112.576 C218.421332,113.016002 218.098668,113.558663 217.776,114.204 C216.749328,116.022676 216.030669,117.723992 215.62,119.308 C215.326665,120.452006 215.18,121.669327 215.18,122.96 C215.18,124.720009 215.524663,126.355326 216.214,127.866 C216.903337,129.376674 217.790661,130.351998 218.876,130.792 Z M256.276,126.216 C256.305333,125.981332 256.525331,125.717335 256.936,125.424 C257.288002,125.218666 257.639998,124.998668 257.992,124.764 C258.168001,124.793333 258.175334,125.225996 258.014,126.062 C257.852666,126.898004 257.786667,127.433332 257.816,127.668 C257.581332,127.990668 257.295335,128.584662 256.958,129.45 C256.620665,130.315338 256.422667,130.835999 256.364,131.012 C256.070665,131.217334 255.674669,131.605997 255.176,132.178 C254.677331,132.750003 254.208002,133.343997 253.768,133.96 C253.503999,134.136001 253.152002,134.531997 252.712,135.148 C252.271998,135.764003 251.993334,136.189332 251.876,136.424 C251.758666,136.424 251.604668,136.614665 251.414,136.996 C251.223332,137.377335 251.040001,137.597333 250.864,137.656 C250.541332,138.125336 250.292001,138.491999 250.116,138.756 C249.734665,139.284003 249.602666,139.723998 249.72,140.076 C249.837334,140.281334 250.115998,140.384 250.556,140.384 C250.966669,140.384 251.413998,140.274001 251.898,140.054 C252.382002,139.833999 252.777998,139.533335 253.086,139.152 C253.394002,138.770665 253.679999,138.418668 253.944,138.096 C254.090667,138.037333 254.273999,137.839335 254.494,137.502 C254.714001,137.164665 254.897333,136.952 255.044,136.864 C255.454669,136.013329 255.99733,135.118671 256.672,134.18 C257.200003,133.475996 257.581332,132.977335 257.816,132.684 C258.344003,131.539994 259.326659,130.366673 260.764,129.164 C262.70001,127.550659 263.741333,126.656001 263.888,126.48 C263.946667,126.392 263.946667,126.142669 263.888,125.732 C263.829333,125.321331 263.829333,124.969335 263.888,124.676 C263.741333,124.470666 263.35267,124.668664 262.722,125.27 C262.09133,125.871336 261.717334,126.186667 261.6,126.216 C261.453333,126.362667 261.226002,126.611998 260.918,126.964 C260.609998,127.316002 260.426667,127.492 260.368,127.492 L260.544,126.26 C260.984002,125.027994 261.423998,123.78134 261.864,122.52 C262.010667,122.109331 262.149999,121.698669 262.282,121.288 C262.414001,120.877331 262.48,120.554668 262.48,120.32 C262.48,120.114666 262.406667,119.968 262.26,119.88 C261.233328,119.88 260.280004,120.305329 259.4,121.156 C258.519996,122.006671 257.669337,122.827996 256.848,123.62 C256.525332,123.796001 256.100003,124.206663 255.572,124.852 C254.662662,125.43867 254.120001,125.863999 253.944,126.128 C253.591998,126.245334 253.416,126.069336 253.416,125.6 C253.826669,124.279993 254.237331,122.94534 254.648,121.596 C254.706667,121.126664 254.596668,120.804001 254.318,120.628 C254.039332,120.451999 253.738668,120.393333 253.416,120.452 C253.122665,120.510667 252.726669,120.803997 252.228,121.332 C251.729331,121.860003 251.245336,122.373331 250.776,122.872 C250.629333,123.048001 250.101338,123.561329 249.192,124.412 C248.751998,124.822669 248.502667,125.086666 248.444,125.204 C248.473333,125.585335 248.488,125.878666 248.488,126.084 C248.488,126.377335 248.444,126.685332 248.356,127.008 L248.444,127.228 C248.620001,127.14 248.971997,126.846669 249.5,126.348 C250.028003,125.849331 250.336,125.6 250.424,125.6 C250.541334,125.6 250.614667,125.878664 250.644,126.436 C250.673333,126.993336 250.717333,127.316 250.776,127.404 C250.717333,127.873336 250.688,128.195999 250.688,128.372 C250.688,128.753335 250.819999,129.009999 251.084,129.142 C251.348001,129.274001 251.626665,129.34 251.92,129.34 C252.741337,129.34 253.503996,128.812005 254.208,127.756 C254.589335,127.726667 254.970665,127.536002 255.352,127.184 C255.792002,126.714664 256.099999,126.392001 256.276,126.216 Z M271.984,128.548 C271.661332,128.988002 271.030671,129.611329 270.092,130.418 C269.153329,131.224671 268.405336,131.686666 267.848,131.804 C267.730666,131.833333 267.584001,131.848 267.408,131.848 C266.175994,131.848 265.398668,130.777344 265.076,128.636 C264.988,128.04933 264.929333,127.330671 264.9,126.48 C264.841333,126.48 264.702001,126.604665 264.482,126.854 C264.261999,127.103335 264.122667,127.213333 264.064,127.184 C264.005333,127.154667 263.983333,126.964002 263.998,126.612 C264.012667,126.259998 264.064,125.732004 264.152,125.028 L264.834,124.346 C265.054001,124.125999 265.164,123.942667 265.164,123.796 C265.281334,122.827995 265.391333,122.131335 265.494,121.706 C265.596667,121.280665 265.721333,120.77467 265.868,120.188 C265.838667,119.865332 265.948665,119.220005 266.198,118.252 C266.447335,117.283995 266.762665,116.066674 267.144,114.6 C267.525335,113.602662 267.928665,112.576005 268.354,111.52 C268.779335,110.463995 269.241331,109.55467 269.74,108.792 C269.74,108.645333 269.893998,108.403335 270.202,108.066 C270.510002,107.728665 270.693333,107.472001 270.752,107.296 C270.84,107.266667 271.235996,107.054002 271.94,106.658 C272.644004,106.261998 273.142665,106.137333 273.436,106.284 C273.846669,106.137333 274.125333,106.261998 274.272,106.658 C274.418667,107.054002 274.492,107.559997 274.492,108.176 C274.492,108.410668 274.477333,108.689332 274.448,109.012 C273.597329,111.505346 272.746671,113.734657 271.896,115.7 C270.869328,118.046678 269.769339,120.143991 268.596,121.992 C268.273332,122.344002 268.002001,122.85733 267.782,123.532 C267.561999,124.20667 267.452,124.92533 267.452,125.688 C267.452,126.27467 267.510666,126.817331 267.628,127.316 C267.745334,127.814669 267.965332,128.313331 268.288,128.812 C268.522668,128.9 269.094662,128.724002 270.004,128.284 C270.238668,128.019999 270.356,127.785334 270.356,127.58 C270.356,127.403999 270.216668,127.250001 269.938,127.118 C269.659332,126.985999 269.505333,126.890667 269.476,126.832 C269.476,126.333331 269.541999,125.871335 269.674,125.446 C269.806001,125.020665 269.989332,124.676001 270.224,124.412 C270.341334,124.147999 270.671331,123.72267 271.214,123.136 C271.756669,122.54933 272.145332,122.197334 272.38,122.08 C272.468,122.138667 272.614666,122.168 272.82,122.168 C273.025334,122.168 273.303998,122.153333 273.656,122.124 C273.920001,122.124 274.132666,122.175333 274.294,122.278 C274.455334,122.380667 274.536,122.563999 274.536,122.828 C274.536,123.092001 274.477334,123.392665 274.36,123.73 C274.242666,124.067335 274.022668,124.52933 273.7,125.116 C273.523999,125.556002 273.348001,125.981331 273.172,126.392 C273.142667,126.48 272.922669,126.846663 272.512,127.492 C272.306666,127.844002 272.130667,128.195998 271.984,128.548 Z M272.908,127.844 C273.964005,126.934662 274.521333,126.450667 274.58,126.392 C275.225337,125.775997 275.694665,125.204003 275.988,124.676 C276.134667,124.646667 276.237333,124.734666 276.296,124.94 C276.354667,125.145334 276.457333,125.423998 276.604,125.776 C276.604,126.36267 276.31067,126.846665 275.724,127.228 C274.873329,127.81467 274.389334,128.166666 274.272,128.284 C274.095999,128.372 273.788002,128.577332 273.348,128.9 C273.171999,129.017334 272.937335,129.076 272.644,129.076 C272.526666,128.988 272.468,128.870667 272.468,128.724 C272.468,128.636 272.512,128.518667 272.6,128.372 C272.688,128.225333 272.790666,128.049334 272.908,127.844 Z M269.3,117.636 C269.652002,117.137331 269.996665,116.220673 270.334,114.886 C270.671335,113.551327 271.045331,112.605336 271.456,112.048 C271.720001,111.637331 271.808,111.380667 271.72,111.278 C271.632,111.175333 271.544,111.168 271.456,111.256 C270.429328,113.250677 269.784001,114.58533 269.52,115.26 C268.93333,116.726674 268.522668,118.149326 268.288,119.528 C268.346667,119.381333 268.507999,119.117335 268.772,118.736 C269.036001,118.354665 269.212,117.988002 269.3,117.636 Z M276.296,126.656 L276.56,124.852 C276.589333,124.646666 276.794665,124.382668 277.176,124.06 C277.410668,123.883999 277.894663,123.488003 278.628,122.872 C279.009335,122.10933 279.757328,121.302671 280.872,120.452 C282.456008,119.278661 283.335999,118.589334 283.512,118.384 C284.685339,117.562663 285.425998,117.078667 285.734,116.932 C286.042002,116.785333 286.371998,116.712 286.724,116.712 C287.222669,116.712 287.618665,116.961331 287.912,117.46 C287.794666,117.782668 287.618668,118.075999 287.384,118.34 C287.149332,118.604001 286.797336,118.853332 286.328,119.088 C286.093332,119.557336 285.646003,120.121997 284.986,120.782 C284.325997,121.442003 283.805335,121.816 283.424,121.904 C283.306666,122.138668 283.130668,122.387999 282.896,122.652 C282.661332,122.916001 282.426668,123.135999 282.192,123.312 C281.957332,123.488001 281.678668,123.766665 281.356,124.148 C280.827997,124.73467 280.512667,125.123332 280.41,125.314 C280.307333,125.504668 280.168001,125.805331 279.992,126.216 C280.226668,126.216 280.578664,126.040002 281.048,125.688 C281.517336,125.335998 281.796,125.145333 281.884,125.116 C282.118668,124.617331 282.719995,124.07467 283.688,123.488 C283.834667,123.194665 284.22333,122.813336 284.854,122.344 C285.48467,121.874664 285.961332,121.654667 286.284,121.684 C286.694669,121.537333 286.973333,121.683998 287.12,122.124 C287.178667,122.358668 287.266666,122.725331 287.384,123.224 C287.237333,123.664002 287.164,124.015999 287.164,124.28 C287.164,125.248005 287.54533,125.732 288.308,125.732 C288.630668,125.732 288.923999,125.614668 289.188,125.38 C289.393334,125.321333 289.671998,125.086669 290.024,124.676 C290.082667,124.646667 290.119333,124.690666 290.134,124.808 C290.148667,124.925334 290.170667,125.218664 290.2,125.688 C290.141333,125.981335 290.112,126.142667 290.112,126.172 C290.112,126.26 290.141333,126.421332 290.2,126.656 C290.170667,126.744 290.046001,126.883332 289.826,127.074 C289.605999,127.264668 289.481333,127.404 289.452,127.492 C289.334666,127.550667 289.070669,127.711999 288.66,127.976 C288.102664,128.357335 287.648002,128.489334 287.296,128.372 C287.002665,128.430667 286.797334,128.46 286.68,128.46 C285.91733,128.46 285.316002,128.034671 284.876,127.184 C284.553332,126.567997 284.392,125.908004 284.392,125.204 C283.981331,125.438668 283.512003,125.819997 282.984,126.348 C282.015995,127.286671 281.356002,127.843999 281.004,128.02 C280.387997,128.69467 280.021334,129.076 279.904,129.164 C279.639999,129.369334 279.376001,129.472 279.112,129.472 C278.789332,129.794668 278.408002,129.956 277.968,129.956 C277.498664,129.956 277.205334,129.794668 277.088,129.472 C276.794665,129.354666 276.618667,129.178668 276.56,128.944 L276.56,127.932 C276.706667,127.579998 276.78,127.345334 276.78,127.228 C276.78,127.022666 276.618668,126.832001 276.296,126.656 Z M299.396,129.56 C299.278666,129.472 299.22,129.281335 299.22,128.988 C299.22,128.665332 299.388665,127.946672 299.726,126.832 C300.063335,125.717328 300.217333,125.028001 300.188,124.764 C299.982666,125.057335 299.689335,125.343332 299.308,125.622 C298.926665,125.900668 298.428003,126.274664 297.812,126.744 C297.459998,127.770672 296.895337,128.606663 296.118,129.252 C295.340663,129.897337 294.453338,130.22 293.456,130.22 C292.898664,130.22 292.422002,130.154001 292.026,130.022 C291.629998,129.889999 291.373334,129.765334 291.256,129.648 C291.050666,129.442666 290.948,129.193335 290.948,128.9 C290.948,128.870667 290.830668,128.56267 290.596,127.976 C290.478666,127.682665 290.42,127.433334 290.42,127.228 C290.42,127.051999 290.507999,126.890667 290.684,126.744 C291.153336,126.274664 291.72533,126.04 292.4,126.04 C292.576001,126.128 292.715333,126.479997 292.818,127.096 C292.920667,127.712003 293.177331,128.02 293.588,128.02 C293.705334,128.137334 293.837333,128.196 293.984,128.196 C294.336002,128.196 294.709998,127.910003 295.106,127.338 C295.502002,126.765997 295.787999,126.208669 295.964,125.666 C296.140001,125.123331 296.352665,124.485337 296.602,123.752 C296.851335,123.018663 296.976,122.446669 296.976,122.036 C296.976,121.830666 296.946667,121.647334 296.888,121.486 C296.829333,121.324666 296.726667,121.156001 296.58,120.98 C296.433333,120.803999 296.301334,120.716 296.184,120.716 C296.037333,120.716 295.868668,120.811332 295.678,121.002 C295.487332,121.192668 295.362667,121.302667 295.304,121.332 C295.186666,121.654668 295.076667,121.962665 294.974,122.256 C294.871333,122.549335 294.629335,122.783999 294.248,122.96 C294.16,122.989333 294.086667,123.004 294.028,123.004 C293.675998,122.916 293.412001,122.300006 293.236,121.156 C293.617335,120.510663 294.14533,119.89467 294.82,119.308 C295.641337,118.603996 296.38933,118.252 297.064,118.252 C297.680003,118.252 298.178665,118.54533 298.56,119.132 C299.117336,119.601336 299.396,120.21733 299.396,120.98 C299.484,121.126667 299.476667,121.419998 299.374,121.86 C299.271333,122.300002 299.102668,122.930663 298.868,123.752 C299.190668,123.517332 299.608664,123.070003 300.122,122.41 C300.635336,121.749997 300.906667,121.42 300.936,121.42 C301.258668,121.214666 301.551999,120.789337 301.816,120.144 C302.080001,119.498663 302.226667,119.161333 302.256,119.132 C302.402667,119.044 302.79133,119.087999 303.422,119.264 C304.05267,119.440001 304.397333,119.615999 304.456,119.792 C304.544,120.026668 304.368002,120.642662 303.928,121.64 C303.370664,122.872006 303.018667,123.751997 302.872,124.28 C302.842667,124.514668 302.732668,124.837331 302.542,125.248 C302.351332,125.658669 302.256,125.951999 302.256,126.128 L303.444,125.072 C304.265337,124.338663 304.72,123.854668 304.808,123.62 C305.424003,122.651995 305.981331,121.933336 306.48,121.464 C307.24267,120.730663 308.019996,120.364 308.812,120.364 C309.105335,120.364 309.442665,120.437333 309.824,120.584 C310.176002,120.672 310.352,120.877332 310.352,121.2 C310.352,121.464001 310.205335,121.815998 309.912,122.256 C309.647999,122.754669 309.164004,123.077333 308.46,123.224 C307.755996,123.370667 307.257335,123.649331 306.964,124.06 C306.817333,124.382668 306.722,124.639332 306.678,124.83 C306.634,125.020668 306.612,125.321331 306.612,125.732 C306.612,126.758672 306.846664,127.345333 307.316,127.492 C307.550668,127.668001 307.785332,127.756 308.02,127.756 C308.342668,127.756 308.826663,127.536002 309.472,127.096 C310.088003,126.919999 310.615998,126.333338 311.056,125.336 L311.452,124.94 C311.54,125.086667 311.598667,125.189333 311.628,125.248 C311.833334,125.688002 311.936,126.054665 311.936,126.348 C311.936,126.641335 311.833334,126.802667 311.628,126.832 C311.217331,127.653337 310.572004,128.35733 309.692,128.944 C308.811996,129.53067 307.844005,129.824 306.788,129.824 C306.083996,129.824 305.512002,129.662668 305.072,129.34 C304.543997,128.929331 304.28,128.269338 304.28,127.36 C304.28,127.037332 304.324,126.626669 304.412,126.128 L303.796,126.656 C303.502665,127.096002 303.268001,127.433332 303.092,127.668 C302.563997,128.34267 302.109335,128.811999 301.728,129.076 C301.698667,129.222667 301.684,129.310667 301.684,129.34 C301.566666,129.633335 301.273336,129.824 300.804,129.912 C300.627999,129.912 300.437334,129.926667 300.232,129.956 C299.967999,129.956 299.689335,129.824001 299.396,129.56 Z M312.464,128.724 C312.258666,128.401332 312.068001,128.064002 311.892,127.712 C311.539998,127.066663 311.364,126.084007 311.364,124.764 C311.364,124.529332 311.495999,124.082003 311.76,123.422 C312.024001,122.761997 312.273332,122.212002 312.508,121.772 C312.742668,121.331998 312.991999,120.899335 313.256,120.474 C313.520001,120.048665 313.754666,119.792 313.96,119.704 C314.224001,119.381332 314.561331,119.044002 314.972,118.692 C315.382669,118.339998 315.749332,118.076001 316.072,117.9 C316.130667,117.753333 316.306665,117.621334 316.6,117.504 C316.893335,117.386666 317.186665,117.328 317.48,117.328 C317.802668,117.328 318.088665,117.372 318.338,117.46 C318.587335,117.548 318.814666,117.723999 319.02,117.988 C319.313335,118.134667 319.46,118.559996 319.46,119.264 C319.46,119.880003 319.313335,120.246666 319.02,120.364 C319.078667,120.628001 318.719337,121.221995 317.942,122.146 C317.164663,123.070005 316.409337,123.707998 315.676,124.06 C315.529333,124.265334 315.338668,124.455999 315.104,124.632 C314.986666,124.72 314.796001,124.851999 314.532,125.028 C314.444,125.292001 314.4,125.526666 314.4,125.732 C314.4,126.201336 314.561332,126.531332 314.884,126.722 C315.206668,126.912668 315.646664,127.008 316.204,127.008 C317.377339,127.008 318.34533,126.773336 319.108,126.304 C319.342668,126.127999 319.650665,125.922668 320.032,125.688 C320.061333,125.688 320.354664,125.497335 320.912,125.116 C321.117334,125.086667 321.337332,125.042667 321.572,124.984 C321.572,125.130667 321.542667,125.262666 321.484,125.38 C321.484,126.230671 321.410667,126.773332 321.264,127.008 C320.970665,127.125334 319.944009,127.682662 318.184,128.68 C316.951994,129.384004 315.910671,129.736 315.06,129.736 C314.590664,129.736 314.158002,129.662667 313.762,129.516 C313.365998,129.369333 312.933336,129.105335 312.464,128.724 Z M316.512,120.452 C316.306666,120.452 316.035335,120.605998 315.698,120.914 C315.360665,121.222002 315.060001,121.551998 314.796,121.904 C314.590666,122.285335 314.480667,122.534666 314.466,122.652 C314.451333,122.769334 314.531999,122.813333 314.708,122.784 C315.206669,122.784 315.529333,122.578669 315.676,122.168 C315.852001,122.08 316.101332,121.808669 316.424,121.354 C316.746668,120.899331 316.776001,120.598667 316.512,120.452 Z M326.676,123.532 L327.6,123.224 C327.688,123.077333 327.834666,123.033333 328.04,123.092 C328.245334,123.150667 328.377333,123.194667 328.436,123.224 C328.641334,123.312 328.846666,123.517332 329.052,123.84 C329.14,124.016001 329.301332,124.265332 329.536,124.588 C329.741334,124.793334 329.917333,124.896 330.064,124.896 C330.210667,124.896 330.371999,124.786001 330.548,124.566 C330.724001,124.345999 330.899999,124.118668 331.076,123.884 C331.076,123.355997 331.244665,122.681337 331.582,121.86 C331.919335,121.038663 332.278665,120.540001 332.66,120.364 C333.041335,120.187999 333.451998,120.129333 333.892,120.188 C334.361336,120.276 334.610667,120.554664 334.64,121.024 C334.64,121.170667 334.588667,121.419998 334.486,121.772 C334.383333,122.124002 334.244001,122.549331 334.068,123.048 C333.921333,123.840004 333.848,124.52933 333.848,125.116 C333.848,125.79067 333.935999,126.245332 334.112,126.48 C334.434668,126.597334 334.874664,126.421336 335.432,125.952 C335.842669,125.599998 336.355997,125.028004 336.972,124.236 C337.06,124.353334 337.148,124.456 337.236,124.544 C337.265333,124.690667 337.28,125.130663 337.28,125.864 C337.397334,126.274669 337.045337,126.831996 336.224,127.536 C335.813331,127.888002 335.285337,128.313331 334.64,128.812 C333.847996,129.457337 333.386001,129.816666 333.254,129.89 C333.121999,129.963334 332.924001,130 332.66,130 C332.307998,130 331.970668,129.824002 331.648,129.472 C331.56,129.266666 331.435334,128.958669 331.274,128.548 C331.112666,128.137331 331.032,127.712002 331.032,127.272 C331.032,127.007999 331.046667,126.802667 331.076,126.656 C330.958666,126.802667 330.841334,126.92 330.724,127.008 C330.430665,127.242668 330.122668,127.550665 329.8,127.932 C329.506665,127.990667 329.316,128.02 329.228,128.02 C328.963999,128.02 328.751334,127.954001 328.59,127.822 C328.428666,127.689999 328.260001,127.521334 328.084,127.316 C327.819999,127.198666 327.570668,126.993335 327.336,126.7 C327.218666,126.553333 327.028001,126.318668 326.764,125.996 C326.646666,125.908 326.514667,125.842 326.368,125.798 C326.221333,125.754 326.133333,125.746667 326.104,125.776 C325.957333,126.040001 325.825334,126.46533 325.708,127.052 C325.590666,127.63867 325.532,128.137331 325.532,128.548 C325.532,129.13467 325.444001,129.618665 325.268,130 C325.091999,130.381335 324.857335,130.572 324.564,130.572 C324.211998,130.572 323.948001,130.601333 323.772,130.66 C323.566666,130.66 323.295335,130.638 322.958,130.594 C322.620665,130.55 322.452,130.352002 322.452,130 C322.452,129.823999 322.532666,129.340004 322.694,128.548 C322.855334,127.755996 322.965333,127.154669 323.024,126.744 C323.082667,126.597333 323.185333,126.23067 323.332,125.644 L323.728,124.06 L323.112,124.94 C322.935999,125.204001 322.672002,125.497332 322.32,125.82 C322.114666,125.996001 321.748003,126.303998 321.22,126.744 L321.044,126.48 C320.897333,126.215999 320.824,125.937335 320.824,125.644 C320.824,125.115997 321.190663,124.485337 321.924,123.752 C322.452003,123.223997 322.76,122.901334 322.848,122.784 C322.906667,122.578666 323.141331,122.241336 323.552,121.772 C324.285337,120.891996 324.703333,120.349334 324.806,120.144 C324.908667,119.938666 325.025999,119.762667 325.158,119.616 C325.290001,119.469333 325.370667,119.366667 325.4,119.308 L326.148,118.516 C326.558669,118.222665 326.793333,118.061333 326.852,118.032 C327.116001,117.855999 327.335999,117.782667 327.512,117.812 C327.746668,117.841333 327.944666,117.965999 328.106,118.186 C328.267334,118.406001 328.348,118.589333 328.348,118.736 C328.348,119.000001 328.186668,119.51333 327.864,120.276 C327.159996,121.948008 326.764,123.033331 326.676,123.532 Z M340.096,129.824 C339.567997,129.442665 339.245334,128.269343 339.128,126.304 C338.981333,126.039999 338.849334,125.776001 338.732,125.512 L337.852,126.48 C337.382664,126.949336 337.074667,127.184 336.928,127.184 C336.781333,127.184 336.708,126.89067 336.708,126.304 C336.708,125.981332 336.752,125.666002 336.84,125.358 C336.928,125.049998 337.074666,124.822667 337.28,124.676 C337.925337,124.118664 338.673329,123.282672 339.524,122.168 C340.140003,121.346663 340.755997,120.437338 341.372,119.44 C341.636001,119.234666 341.914665,119.058667 342.208,118.912 C342.501335,118.765333 342.750666,118.692 342.956,118.692 C343.132001,118.692 343.271333,118.743333 343.374,118.846 C343.476667,118.948667 343.528,119.117332 343.528,119.352 C343.528,119.645335 343.374002,120.224662 343.066,121.09 C342.757998,121.955338 342.604,122.519999 342.604,122.784 C342.251998,123.840005 342.076,124.939994 342.076,126.084 C342.076,126.75867 342.163999,127.227999 342.34,127.492 C342.398667,127.58 342.567332,127.514001 342.846,127.294 C343.124668,127.073999 343.322666,126.949333 343.44,126.92 C344.02667,126.215996 344.627997,125.497337 345.244,124.764 C345.684002,124.118663 346.145998,123.444004 346.63,122.74 C347.114002,122.035996 347.605331,121.684 348.104,121.684 C348.573336,121.684 348.895999,121.845332 349.072,122.168 C349.248001,122.490668 349.336,122.871998 349.336,123.312 C349.336,123.488001 349.321333,123.707999 349.292,123.972 C349.38,124.617337 349.504666,125.064665 349.666,125.314 C349.827334,125.563335 350.039999,125.688 350.304,125.688 C350.568001,125.688 350.927331,125.512002 351.382,125.16 C351.836669,124.807998 352.093333,124.617333 352.152,124.588 C352.210667,124.588 352.262,124.683332 352.306,124.874 C352.35,125.064668 352.372,125.335998 352.372,125.688 C352.372,126.597338 352.181335,127.096 351.8,127.184 C351.359998,127.448001 350.927335,127.697332 350.502,127.932 C350.076665,128.166668 349.585336,128.284 349.028,128.284 C347.942661,128.284 347.165336,127.624007 346.696,126.304 C346.519999,126.157333 346.358667,126.010667 346.212,125.864 C345.390663,127.096006 344.716003,127.990664 344.188,128.548 C343.190662,129.574672 342.222671,130.088 341.284,130.088 C340.902665,130.088 340.506669,130.000001 340.096,129.824 Z M353.252,128.724 C353.046666,128.401332 352.856001,128.064002 352.68,127.712 C352.327998,127.066663 352.152,126.084007 352.152,124.764 C352.152,124.529332 352.283999,124.082003 352.548,123.422 C352.812001,122.761997 353.061332,122.212002 353.296,121.772 C353.530668,121.331998 353.779999,120.899335 354.044,120.474 C354.308001,120.048665 354.542666,119.792 354.748,119.704 C355.012001,119.381332 355.349331,119.044002 355.76,118.692 C356.170669,118.339998 356.537332,118.076001 356.86,117.9 C356.918667,117.753333 357.094665,117.621334 357.388,117.504 C357.681335,117.386666 357.974665,117.328 358.268,117.328 C358.590668,117.328 358.876665,117.372 359.126,117.46 C359.375335,117.548 359.602666,117.723999 359.808,117.988 C360.101335,118.134667 360.248,118.559996 360.248,119.264 C360.248,119.880003 360.101335,120.246666 359.808,120.364 C359.866667,120.628001 359.507337,121.221995 358.73,122.146 C357.952663,123.070005 357.197337,123.707998 356.464,124.06 C356.317333,124.265334 356.126668,124.455999 355.892,124.632 C355.774666,124.72 355.584001,124.851999 355.32,125.028 C355.232,125.292001 355.188,125.526666 355.188,125.732 C355.188,126.201336 355.349332,126.531332 355.672,126.722 C355.994668,126.912668 356.434664,127.008 356.992,127.008 C358.165339,127.008 359.13333,126.773336 359.896,126.304 C360.130668,126.127999 360.438665,125.922668 360.82,125.688 C360.849333,125.688 361.142664,125.497335 361.7,125.116 C361.905334,125.086667 362.125332,125.042667 362.36,124.984 C362.36,125.130667 362.330667,125.262666 362.272,125.38 C362.272,126.230671 362.198667,126.773332 362.052,127.008 C361.758665,127.125334 360.732009,127.682662 358.972,128.68 C357.739994,129.384004 356.698671,129.736 355.848,129.736 C355.378664,129.736 354.946002,129.662667 354.55,129.516 C354.153998,129.369333 353.721336,129.105335 353.252,128.724 Z M357.3,120.452 C357.094666,120.452 356.823335,120.605998 356.486,120.914 C356.148665,121.222002 355.848001,121.551998 355.584,121.904 C355.378666,122.285335 355.268667,122.534666 355.254,122.652 C355.239333,122.769334 355.319999,122.813333 355.496,122.784 C355.994669,122.784 356.317333,122.578669 356.464,122.168 C356.640001,122.08 356.889332,121.808669 357.212,121.354 C357.534668,120.899331 357.564001,120.598667 357.3,120.452 Z M363.988,127.448 C364.310668,127.242666 364.662665,126.876003 365.044,126.348 L365.836,125.028 C366.481337,124.617331 367.346661,123.150679 368.432,120.628 C368.930669,119.454661 369.590663,118.560003 370.412,117.944 C370.764002,117.856 371.203997,117.980665 371.732,118.318 C372.260003,118.655335 372.524,118.955999 372.524,119.22 C372.524,119.337334 372.340668,119.747996 371.974,120.452 C371.607331,121.156004 371.394667,121.610666 371.336,121.816 C371.336,122.109335 371.233334,122.798661 371.028,123.884 C370.822666,124.969339 370.72,125.702665 370.72,126.084 C370.72,126.377335 370.764,126.568 370.852,126.656 C371.174668,126.773334 371.570664,126.436004 372.04,125.644 C372.421335,124.998663 372.714666,124.529335 372.92,124.236 C373.066667,123.883998 373.301332,123.605334 373.624,123.4 C374.269337,122.989331 374.650666,122.578669 374.768,122.168 C375.120002,121.375996 375.361999,120.892001 375.494,120.716 C375.626001,120.539999 375.897331,120.364001 376.308,120.188 C376.836003,120.188 377.349331,120.510663 377.848,121.156 C378.082668,121.449335 378.112001,121.64 377.936,121.728 C377.789333,121.933334 377.679334,122.167999 377.606,122.432 C377.532666,122.696001 377.474,122.996665 377.43,123.334 C377.386,123.671335 377.334667,124.001332 377.276,124.324 L377.276,124.94 C377.276,125.556003 377.378666,125.981332 377.584,126.216 C378.229337,126.480001 379.021329,125.922674 379.96,124.544 C380.106667,124.514667 380.202,124.675998 380.246,125.028 C380.29,125.380002 380.341333,125.731998 380.4,126.084 C380.458667,126.465335 380.268002,126.846665 379.828,127.228 C379.387998,127.609335 378.713338,128.107997 377.804,128.724 C377.569332,128.900001 377.334668,129.024666 377.1,129.098 C376.865332,129.171334 376.630668,129.208 376.396,129.208 C375.80933,129.208 375.310669,128.988002 374.9,128.548 C374.9,128.283999 374.826667,127.976002 374.68,127.624 C374.533333,127.271998 374.46,126.978668 374.46,126.744 L374.46,126.546 C374.46,126.443333 374.474667,126.348 374.504,126.26 C374.533333,126.201333 374.562667,126.025335 374.592,125.732 C374.533333,125.644 374.489333,125.541334 374.46,125.424 C373.931997,126.450672 373.28667,127.374663 372.524,128.196 C371.526662,129.281339 370.588004,129.824 369.708,129.824 C369.355998,129.824 369.004002,129.736001 368.652,129.56 C368.505333,129.207998 368.373334,128.856002 368.256,128.504 C368.021332,127.82933 367.904,127.257336 367.904,126.788 C367.904,126.523999 367.948,126.230668 368.036,125.908 C368.036,125.761333 368.028667,125.585334 368.014,125.38 C367.999333,125.174666 367.933334,125.072 367.816,125.072 C367.082663,126.186672 366.598668,126.919998 366.364,127.272 C365.865331,127.976004 365.308003,128.650663 364.692,129.296 C364.193331,130.176004 363.621337,130.616 362.976,130.616 C362.653332,130.616 362.492,130.484001 362.492,130.22 C362.433333,130.102666 362.301334,129.941334 362.096,129.736 C361.890666,129.530666 361.758667,129.325334 361.7,129.12 C361.7,128.885332 361.612001,128.518669 361.436,128.02 C361.259999,127.521331 361.172,127.198667 361.172,127.052 C361.201333,126.964 361.391998,126.568004 361.744,125.864 C361.949334,125.541332 362.139999,125.350667 362.316,125.292 C362.521334,125.233333 362.770665,125.291999 363.064,125.468 C363.298668,126.377338 363.467333,126.919999 363.57,127.096 C363.672667,127.272001 363.811999,127.389333 363.988,127.448 Z M382.38,127.756 L382.116,129.296 C382.028,129.648002 381.969333,129.941332 381.94,130.176 C381.793333,130.792003 381.617334,131.43733 381.412,132.112 C381.206666,132.78667 381.104,133.197333 381.104,133.344 C381.104,133.520001 381.221332,133.608 381.456,133.608 C381.720001,133.608 382.057331,133.432002 382.468,133.08 C382.732001,132.845332 382.878667,132.654667 382.908,132.508 C382.908,132.214665 383.032665,131.77467 383.282,131.188 C383.531335,130.60133 383.656,130.264 383.656,130.176 C383.773334,130.176 383.897999,130.007335 384.03,129.67 C384.162001,129.332665 384.308666,128.966002 384.47,128.57 C384.631334,128.173998 384.836665,127.653337 385.086,127.008 C385.335335,126.362663 385.430667,125.981334 385.372,125.864 L384.8,125.424 C384.447998,125.365333 384.228,125.336 384.14,125.336 C383.758665,125.336 383.443335,125.438666 383.194,125.644 C382.944665,125.849334 382.673335,126.186664 382.38,126.656 C382.350667,126.744 382.336,126.890666 382.336,127.096 C382.336,127.301334 382.350667,127.521332 382.38,127.756 Z M132.064,175.364 C132.445335,175.364 132.811998,175.129336 133.164,174.66 C133.721336,173.955996 134.014667,173.589333 134.044,173.56 C134.454669,173.090664 134.777332,172.680002 135.012,172.328 C135.246668,171.975998 135.495999,171.609335 135.76,171.228 C135.906667,170.963999 136.067999,170.832 136.244,170.832 C136.508001,170.832 136.984663,171.139997 137.674,171.756 C138.363337,172.372003 138.898665,172.724 139.28,172.812 C139.896003,172.812 140.54133,172.51867 141.216,171.932 C142.008004,171.25733 142.404,170.480004 142.404,169.6 C142.404,169.453333 142.374667,169.233335 142.316,168.94 C142.228,168.763999 142.110667,168.705333 141.964,168.764 C141.347997,169.468004 140.805336,169.82 140.336,169.82 C139.837331,169.82 139.397335,169.468004 139.016,168.764 C138.839999,168.646666 138.671334,168.485334 138.51,168.28 C138.348666,168.074666 138.268,167.854668 138.268,167.62 C138.268,167.297332 138.414665,166.930669 138.708,166.52 C138.766667,166.402666 139.191996,165.684007 139.984,164.364 C140.629337,163.307995 140.952,162.472003 140.952,161.856 C140.952,161.445331 140.849334,161.130001 140.644,160.91 C140.438666,160.689999 140.248001,160.58 140.072,160.58 C139.778665,160.58 139.536668,160.814664 139.346,161.284 C139.155332,161.753336 139.001334,162.178665 138.884,162.56 C138.766666,162.794668 138.32667,163.557327 137.564,164.848 C137.241332,165.405336 136.992001,165.874665 136.816,166.256 C135.818662,166.373334 135.276,166.79133 135.188,167.51 C135.1,168.22867 135.041333,168.763998 135.012,169.116 L133.516,171.844 C133.398666,171.961334 133.296,171.998 133.208,171.954 C133.12,171.91 133.076,171.770668 133.076,171.536 C133.076,171.095998 133.222665,170.480004 133.516,169.688 C133.516,169.482666 133.721331,168.602674 134.132,167.048 C134.542669,165.493326 134.748,164.540002 134.748,164.188 C134.894667,163.835998 135.070666,163.30067 135.276,162.582 C135.481334,161.86333 135.649999,161.298669 135.782,160.888 C135.914001,160.477331 135.98,160.184001 135.98,160.008 C135.98,159.714665 135.811335,159.502001 135.474,159.37 C135.136665,159.237999 134.836001,159.172 134.572,159.172 C134.073331,159.172 133.721334,159.362665 133.516,159.744 L130.524,166.784 C129.966664,167.54667 129.585334,168.074665 129.38,168.368 C129.057332,168.866669 128.896,169.45333 128.896,170.128 C128.925333,170.186667 128.866667,170.479997 128.72,171.008 C129.160002,171.008 129.621998,170.604671 130.106,169.798 C130.590002,168.991329 130.993332,168.588 131.316,168.588 C131.316,168.940002 131.250001,169.43133 131.118,170.062 C130.985999,170.69267 130.964,171.081333 131.052,171.228 C130.934666,171.492001 130.832,171.821998 130.744,172.218 C130.656,172.614002 130.612,173.031998 130.612,173.472 C130.612,174.088003 130.721999,174.586665 130.942,174.968 C131.162001,175.349335 131.535997,175.481334 132.064,175.364 Z M145.616,173.56 C145.175998,173.472 144.875334,173.288668 144.714,173.01 C144.552666,172.731332 144.472,172.386669 144.472,171.976 C144.472,171.653332 144.523333,171.17667 144.626,170.546 C144.728667,169.91533 144.78,169.541334 144.78,169.424 C144.515999,169.424 144.208002,169.599998 143.856,169.952 C143.122663,170.656004 142.712,171.008 142.624,171.008 C142.565333,170.890666 142.565333,170.641335 142.624,170.26 C142.682667,169.878665 142.653334,169.658667 142.536,169.6 L142.536,169.028 C143.240004,168.323996 143.914663,167.664003 144.56,167.048 C145.586672,166.050662 146.202666,165.508 146.408,165.42 C147.346671,164.481329 148.285329,163.528005 149.224,162.56 C149.253333,162.56 149.326666,162.530667 149.444,162.472 L149.708,162.472 C149.942668,162.472 150.250665,162.501333 150.632,162.56 C150.778667,162.589333 150.852,162.677333 150.852,162.824 C150.852,162.912 150.771334,163.087999 150.61,163.352 C150.448666,163.616001 150.426666,163.792 150.544,163.88 C151.21867,163.498665 151.84933,163.308 152.436,163.308 C153.257337,163.308 153.917331,163.659996 154.416,164.364 C154.621334,165.009337 154.724,165.66933 154.724,166.344 C154.724,167.10667 154.592001,167.766664 154.328,168.324 C154.269333,168.441334 153.976003,168.910663 153.448,169.732 C153.301333,169.966668 153.213333,170.157333 153.184,170.304 C153.096,170.392 152.934668,170.560665 152.7,170.81 C152.465332,171.059335 152.289334,171.286666 152.172,171.492 C151.790665,171.844002 151.174671,172.430663 150.324,173.252 C149.502663,173.868003 148.534672,174.176 147.42,174.176 C147.038665,174.117333 146.672002,174.073333 146.32,174.044 C145.967998,173.956 145.733334,173.794668 145.616,173.56 Z M151.732,169.512 C152.084002,169.159998 152.26,168.661337 152.26,168.016 C152.26,167.575998 152.150001,167.187335 151.93,166.85 C151.709999,166.512665 151.438668,166.344 151.116,166.344 C150.793332,166.344 150.456002,166.461332 150.104,166.696 L149.312,167.664 C149.047999,167.986668 148.769335,168.148 148.476,168.148 C147.771996,169.057338 147.42,169.89333 147.42,170.656 C147.302666,171.565338 147.58133,172.02 148.256,172.02 C148.784003,172.02 149.370663,171.741336 150.016,171.184 C150.485336,170.890665 150.881332,170.553335 151.204,170.172 C151.321334,170.054666 151.497332,169.834668 151.732,169.512 Z M153.096,173.076 C152.949333,173.046667 152.876,172.958667 152.876,172.812 C152.876,172.635999 152.978666,172.394002 153.184,172.086 C153.389334,171.777998 153.594666,171.550667 153.8,171.404 C153.917334,171.227999 154.151998,171.000668 154.504,170.722 C154.856002,170.443332 155.134666,170.098669 155.34,169.688 C155.516001,169.541333 155.706666,169.365334 155.912,169.16 C156.117334,168.954666 156.264,168.852 156.352,168.852 C156.469334,168.852 156.645332,169.18933 156.88,169.864 C156.88,170.333336 156.630669,170.758665 156.132,171.14 C155.867999,171.345334 155.486669,171.609332 154.988,171.932 C154.958667,171.932 154.518671,172.22533 153.668,172.812 C153.374665,172.988001 153.184,173.076 153.096,173.076 Z M158.112,171.448 C158.434668,171.242666 158.786665,170.876003 159.168,170.348 L159.96,169.028 C160.605337,168.617331 161.470661,167.150679 162.556,164.628 C163.054669,163.454661 163.714663,162.560003 164.536,161.944 C164.888002,161.856 165.327997,161.980665 165.856,162.318 C166.384003,162.655335 166.648,162.955999 166.648,163.22 C166.648,163.337334 166.464668,163.747996 166.098,164.452 C165.731331,165.156004 165.518667,165.610666 165.46,165.816 C165.46,166.109335 165.357334,166.798661 165.152,167.884 C164.946666,168.969339 164.844,169.702665 164.844,170.084 C164.844,170.377335 164.888,170.568 164.976,170.656 C165.298668,170.773334 165.694664,170.436004 166.164,169.644 C166.545335,168.998663 166.838666,168.529335 167.044,168.236 C167.190667,167.883998 167.425332,167.605334 167.748,167.4 C168.393337,166.989331 168.774666,166.578669 168.892,166.168 C169.244002,165.375996 169.485999,164.892001 169.618,164.716 C169.750001,164.539999 170.021331,164.364001 170.432,164.188 C170.960003,164.188 171.473331,164.510663 171.972,165.156 C172.206668,165.449335 172.236001,165.64 172.06,165.728 C171.913333,165.933334 171.803334,166.167999 171.73,166.432 C171.656666,166.696001 171.598,166.996665 171.554,167.334 C171.51,167.671335 171.458667,168.001332 171.4,168.324 L171.4,168.94 C171.4,169.556003 171.502666,169.981332 171.708,170.216 C172.353337,170.480001 173.145329,169.922674 174.084,168.544 C174.230667,168.514667 174.326,168.675998 174.37,169.028 C174.414,169.380002 174.465333,169.731998 174.524,170.084 C174.582667,170.465335 174.392002,170.846665 173.952,171.228 C173.511998,171.609335 172.837338,172.107997 171.928,172.724 C171.693332,172.900001 171.458668,173.024666 171.224,173.098 C170.989332,173.171334 170.754668,173.208 170.52,173.208 C169.93333,173.208 169.434669,172.988002 169.024,172.548 C169.024,172.283999 168.950667,171.976002 168.804,171.624 C168.657333,171.271998 168.584,170.978668 168.584,170.744 L168.584,170.546 C168.584,170.443333 168.598667,170.348 168.628,170.26 C168.657333,170.201333 168.686667,170.025335 168.716,169.732 C168.657333,169.644 168.613333,169.541334 168.584,169.424 C168.055997,170.450672 167.41067,171.374663 166.648,172.196 C165.650662,173.281339 164.712004,173.824 163.832,173.824 C163.479998,173.824 163.128002,173.736001 162.776,173.56 C162.629333,173.207998 162.497334,172.856002 162.38,172.504 C162.145332,171.82933 162.028,171.257336 162.028,170.788 C162.028,170.523999 162.072,170.230668 162.16,169.908 C162.16,169.761333 162.152667,169.585334 162.138,169.38 C162.123333,169.174666 162.057334,169.072 161.94,169.072 C161.206663,170.186672 160.722668,170.919998 160.488,171.272 C159.989331,171.976004 159.432003,172.650663 158.816,173.296 C158.317331,174.176004 157.745337,174.616 157.1,174.616 C156.777332,174.616 156.616,174.484001 156.616,174.22 C156.557333,174.102666 156.425334,173.941334 156.22,173.736 C156.014666,173.530666 155.882667,173.325334 155.824,173.12 C155.824,172.885332 155.736001,172.518669 155.56,172.02 C155.383999,171.521331 155.296,171.198667 155.296,171.052 C155.325333,170.964 155.515998,170.568004 155.868,169.864 C156.073334,169.541332 156.263999,169.350667 156.44,169.292 C156.645334,169.233333 156.894665,169.291999 157.188,169.468 C157.422668,170.377338 157.591333,170.919999 157.694,171.096 C157.796667,171.272001 157.935999,171.389333 158.112,171.448 Z M174.348,170.656 L174.612,168.852 C174.641333,168.646666 174.846665,168.382668 175.228,168.06 C175.462668,167.883999 175.946663,167.488003 176.68,166.872 C177.061335,166.10933 177.809328,165.302671 178.924,164.452 C180.508008,163.278661 181.387999,162.589334 181.564,162.384 C182.737339,161.562663 183.477998,161.078667 183.786,160.932 C184.094002,160.785333 184.423998,160.712 184.776,160.712 C185.274669,160.712 185.670665,160.961331 185.964,161.46 C185.846666,161.782668 185.670668,162.075999 185.436,162.34 C185.201332,162.604001 184.849336,162.853332 184.38,163.088 C184.145332,163.557336 183.698003,164.121997 183.038,164.782 C182.377997,165.442003 181.857335,165.816 181.476,165.904 C181.358666,166.138668 181.182668,166.387999 180.948,166.652 C180.713332,166.916001 180.478668,167.135999 180.244,167.312 C180.009332,167.488001 179.730668,167.766665 179.408,168.148 C178.879997,168.73467 178.564667,169.123332 178.462,169.314 C178.359333,169.504668 178.220001,169.805331 178.044,170.216 C178.278668,170.216 178.630664,170.040002 179.1,169.688 C179.569336,169.335998 179.848,169.145333 179.936,169.116 C180.170668,168.617331 180.771995,168.07467 181.74,167.488 C181.886667,167.194665 182.27533,166.813336 182.906,166.344 C183.53667,165.874664 184.013332,165.654667 184.336,165.684 C184.746669,165.537333 185.025333,165.683998 185.172,166.124 C185.230667,166.358668 185.318666,166.725331 185.436,167.224 C185.289333,167.664002 185.216,168.015999 185.216,168.28 C185.216,169.248005 185.59733,169.732 186.36,169.732 C186.682668,169.732 186.975999,169.614668 187.24,169.38 C187.445334,169.321333 187.723998,169.086669 188.076,168.676 C188.134667,168.646667 188.171333,168.690666 188.186,168.808 C188.200667,168.925334 188.222667,169.218664 188.252,169.688 C188.193333,169.981335 188.164,170.142667 188.164,170.172 C188.164,170.26 188.193333,170.421332 188.252,170.656 C188.222667,170.744 188.098001,170.883332 187.878,171.074 C187.657999,171.264668 187.533333,171.404 187.504,171.492 C187.386666,171.550667 187.122669,171.711999 186.712,171.976 C186.154664,172.357335 185.700002,172.489334 185.348,172.372 C185.054665,172.430667 184.849334,172.46 184.732,172.46 C183.96933,172.46 183.368002,172.034671 182.928,171.184 C182.605332,170.567997 182.444,169.908004 182.444,169.204 C182.033331,169.438668 181.564003,169.819997 181.036,170.348 C180.067995,171.286671 179.408002,171.843999 179.056,172.02 C178.439997,172.69467 178.073334,173.076 177.956,173.164 C177.691999,173.369334 177.428001,173.472 177.164,173.472 C176.841332,173.794668 176.460002,173.956 176.02,173.956 C175.550664,173.956 175.257334,173.794668 175.14,173.472 C174.846665,173.354666 174.670667,173.178668 174.612,172.944 L174.612,171.932 C174.758667,171.579998 174.832,171.345334 174.832,171.228 C174.832,171.022666 174.670668,170.832001 174.348,170.656 Z M193.488,167.532 L194.412,167.224 C194.5,167.077333 194.646666,167.033333 194.852,167.092 C195.057334,167.150667 195.189333,167.194667 195.248,167.224 C195.453334,167.312 195.658666,167.517332 195.864,167.84 C195.952,168.016001 196.113332,168.265332 196.348,168.588 C196.553334,168.793334 196.729333,168.896 196.876,168.896 C197.022667,168.896 197.183999,168.786001 197.36,168.566 C197.536001,168.345999 197.711999,168.118668 197.888,167.884 C197.888,167.355997 198.056665,166.681337 198.394,165.86 C198.731335,165.038663 199.090665,164.540001 199.472,164.364 C199.853335,164.187999 200.263998,164.129333 200.704,164.188 C201.173336,164.276 201.422667,164.554664 201.452,165.024 C201.452,165.170667 201.400667,165.419998 201.298,165.772 C201.195333,166.124002 201.056001,166.549331 200.88,167.048 C200.733333,167.840004 200.66,168.52933 200.66,169.116 C200.66,169.79067 200.747999,170.245332 200.924,170.48 C201.246668,170.597334 201.686664,170.421336 202.244,169.952 C202.654669,169.599998 203.167997,169.028004 203.784,168.236 C203.872,168.353334 203.96,168.456 204.048,168.544 C204.077333,168.690667 204.092,169.130663 204.092,169.864 C204.209334,170.274669 203.857337,170.831996 203.036,171.536 C202.625331,171.888002 202.097337,172.313331 201.452,172.812 C200.659996,173.457337 200.198001,173.816666 200.066,173.89 C199.933999,173.963334 199.736001,174 199.472,174 C199.119998,174 198.782668,173.824002 198.46,173.472 C198.372,173.266666 198.247334,172.958669 198.086,172.548 C197.924666,172.137331 197.844,171.712002 197.844,171.272 C197.844,171.007999 197.858667,170.802667 197.888,170.656 C197.770666,170.802667 197.653334,170.92 197.536,171.008 C197.242665,171.242668 196.934668,171.550665 196.612,171.932 C196.318665,171.990667 196.128,172.02 196.04,172.02 C195.775999,172.02 195.563334,171.954001 195.402,171.822 C195.240666,171.689999 195.072001,171.521334 194.896,171.316 C194.631999,171.198666 194.382668,170.993335 194.148,170.7 C194.030666,170.553333 193.840001,170.318668 193.576,169.996 C193.458666,169.908 193.326667,169.842 193.18,169.798 C193.033333,169.754 192.945333,169.746667 192.916,169.776 C192.769333,170.040001 192.637334,170.46533 192.52,171.052 C192.402666,171.63867 192.344,172.137331 192.344,172.548 C192.344,173.13467 192.256001,173.618665 192.08,174 C191.903999,174.381335 191.669335,174.572 191.376,174.572 C191.023998,174.572 190.760001,174.601333 190.584,174.66 C190.378666,174.66 190.107335,174.638 189.77,174.594 C189.432665,174.55 189.264,174.352002 189.264,174 C189.264,173.823999 189.344666,173.340004 189.506,172.548 C189.667334,171.755996 189.777333,171.154669 189.836,170.744 C189.894667,170.597333 189.997333,170.23067 190.144,169.644 L190.54,168.06 L189.924,168.94 C189.747999,169.204001 189.484002,169.497332 189.132,169.82 C188.926666,169.996001 188.560003,170.303998 188.032,170.744 L187.856,170.48 C187.709333,170.215999 187.636,169.937335 187.636,169.644 C187.636,169.115997 188.002663,168.485337 188.736,167.752 C189.264003,167.223997 189.572,166.901334 189.66,166.784 C189.718667,166.578666 189.953331,166.241336 190.364,165.772 C191.097337,164.891996 191.515333,164.349334 191.618,164.144 C191.720667,163.938666 191.837999,163.762667 191.97,163.616 C192.102001,163.469333 192.182667,163.366667 192.212,163.308 L192.96,162.516 C193.370669,162.222665 193.605333,162.061333 193.664,162.032 C193.928001,161.855999 194.147999,161.782667 194.324,161.812 C194.558668,161.841333 194.756666,161.965999 194.918,162.186 C195.079334,162.406001 195.16,162.589333 195.16,162.736 C195.16,163.000001 194.998668,163.51333 194.676,164.276 C193.971996,165.948008 193.576,167.033331 193.488,167.532 Z M203.828,171.316 C203.916,171.051999 203.96,170.729335 203.96,170.348 C203.96,169.995998 203.916,169.644002 203.828,169.292 C203.828,169.057332 204.033331,168.793335 204.444,168.5 C204.854669,168.206665 205.279998,167.898668 205.72,167.576 C206.130669,167.165331 206.614664,166.747335 207.172,166.322 C207.729336,165.896665 208.242664,165.566668 208.712,165.332 C208.8,165.126666 209.005332,164.921334 209.328,164.716 C210.09067,164.217331 210.537999,163.931334 210.67,163.858 C210.802001,163.784666 211.20533,163.579335 211.88,163.242 C212.55467,162.904665 213.023999,162.736 213.288,162.736 C213.581335,162.736 213.815999,162.838666 213.992,163.044 C214.344002,163.454669 214.534667,163.674667 214.564,163.704 C214.564,163.909334 214.432001,164.099999 214.168,164.276 C213.903999,164.452001 213.552002,164.657332 213.112,164.892 C212.818665,165.214668 212.393336,165.559331 211.836,165.926 C211.278664,166.292668 210.956,166.52 210.868,166.608 C210.19333,167.312004 209.51867,168.00133 208.844,168.676 C208.315997,169.233336 208.052,169.629332 208.052,169.864 C207.611998,170.304002 207.465333,170.685332 207.612,171.008 C207.876001,170.890666 208.154665,170.751334 208.448,170.59 C208.741335,170.428666 209.005332,170.304 209.24,170.216 C209.621335,169.570663 210.281329,168.896004 211.22,168.192 C211.748003,167.810665 212.525328,167.253337 213.552,166.52 C213.64,166.52 213.867331,166.314669 214.234,165.904 C214.600668,165.493331 214.908665,165.236667 215.158,165.134 C215.407335,165.031333 215.649332,164.98 215.884,164.98 C216.118668,164.98 216.367999,165.009333 216.632,165.068 C216.778667,165.185334 216.852,165.346666 216.852,165.552 C216.852,165.728001 216.800667,165.977332 216.698,166.3 C216.595333,166.622668 216.426668,167.091997 216.192,167.708 C216.162667,167.972001 215.825337,168.969325 215.18,170.7 L214.74,172.724 C214.769333,172.724 214.915999,172.562668 215.18,172.24 C215.444001,171.917332 215.693332,171.668001 215.928,171.492 C216.074667,171.433333 216.46333,171.103336 217.094,170.502 C217.72467,169.900664 218.113333,169.687999 218.26,169.864 C218.230667,170.010667 218.216,170.201332 218.216,170.436 C218.216,170.729335 218.230667,171.000665 218.26,171.25 C218.289333,171.499335 218.289333,171.668 218.26,171.756 C218.083999,171.961334 217.042676,172.841326 215.136,174.396 C213.698659,175.569339 212.716003,176.727994 212.188,177.872 C211.982666,178.136001 211.748001,178.480665 211.484,178.906 C211.219999,179.331335 211.014667,179.617333 210.868,179.764 C210.78,179.969334 210.604001,180.262665 210.34,180.644 C209.782664,181.524004 209.474667,182.008 209.416,182.096 C208.770663,182.829337 208.140003,183.562663 207.524,184.296 C207.201332,184.736002 206.812669,185.065999 206.358,185.286 C205.903331,185.506001 205.456002,185.616 205.016,185.616 C204.575998,185.616 204.268001,185.498668 204.092,185.264 C204.004,184.970665 204.055332,184.640669 204.246,184.274 C204.436668,183.907331 204.751998,183.43067 205.192,182.844 C205.368001,182.814667 205.558666,182.624002 205.764,182.272 C205.969334,181.919998 206.130666,181.744 206.248,181.744 C206.365334,181.450665 206.643998,181.003336 207.084,180.402 C207.524002,179.800664 207.875999,179.382668 208.14,179.148 C208.521335,178.590664 208.975997,178.01867 209.504,177.432 C210.032003,176.84533 210.427999,176.449334 210.692,176.244 C210.926668,175.56933 211.117333,175.041335 211.264,174.66 C211.616002,173.809329 211.923999,173.222668 212.188,172.9 C212.158667,172.694666 212.173333,172.386669 212.232,171.976 C212.290667,171.565331 212.378666,171.02267 212.496,170.348 C212.496,170.113332 212.437334,169.981333 212.32,169.952 C212.085332,170.216001 211.762669,170.494665 211.352,170.788 C210.941331,171.081335 210.589335,171.315999 210.296,171.492 C209.650663,172.07867 209.240001,172.423333 209.064,172.526 C208.887999,172.628667 208.712001,172.724 208.536,172.812 C208.242665,173.252002 207.868669,173.603999 207.414,173.868 C206.959331,174.132001 206.497336,174.264 206.028,174.264 C205.235996,174.264 204.678668,173.912004 204.356,173.208 C204.297333,173.090666 204.268,172.958667 204.268,172.812 C204.268,172.518665 204.319333,172.203335 204.422,171.866 C204.524667,171.528665 204.649333,171.154669 204.796,170.744 C204.619999,170.744 204.297336,170.934665 203.828,171.316 Z M218.612,170.656 C218.934668,170.832001 219.096,171.022666 219.096,171.228 C219.096,171.345334 219.022667,171.579998 218.876,171.932 L218.876,172.944 C218.934667,173.178668 219.110665,173.354666 219.404,173.472 C219.521334,173.794668 219.814664,173.956 220.284,173.956 C220.724002,173.956 221.105332,173.794668 221.428,173.472 C221.692001,173.472 221.955999,173.369334 222.22,173.164 C222.337334,173.076 222.703997,172.69467 223.32,172.02 C223.672002,171.843999 224.331995,171.286671 225.3,170.348 C225.828003,169.819997 226.297331,169.438668 226.708,169.204 C226.708,169.908004 226.869332,170.567997 227.192,171.184 C227.632002,172.034671 228.23333,172.46 228.996,172.46 C229.113334,172.46 229.318665,172.430667 229.612,172.372 C229.964002,172.489334 230.418664,172.357335 230.976,171.976 C231.386669,171.711999 231.650666,171.550667 231.768,171.492 C231.797333,171.404 231.921999,171.264668 232.142,171.074 C232.362001,170.883332 232.486667,170.744 232.516,170.656 C232.457333,170.421332 232.428,170.26 232.428,170.172 C232.428,170.142667 232.457333,169.981335 232.516,169.688 C232.486667,169.218664 232.464667,168.925334 232.45,168.808 C232.435333,168.690666 232.398667,168.646667 232.34,168.676 C231.987998,169.086669 231.709334,169.321333 231.504,169.38 C231.239999,169.614668 230.946668,169.732 230.624,169.732 C229.86133,169.732 229.48,169.248005 229.48,168.28 C229.48,168.015999 229.553333,167.664002 229.7,167.224 C229.582666,166.725331 229.494667,166.358668 229.436,166.124 C229.289333,165.683998 229.010669,165.537333 228.6,165.684 C228.277332,165.654667 227.80067,165.874664 227.17,166.344 C226.53933,166.813336 226.150667,167.194665 226.004,167.488 C225.035995,168.07467 224.434668,168.617331 224.2,169.116 C224.112,169.145333 223.833336,169.335998 223.364,169.688 C222.894664,170.040002 222.542668,170.216 222.308,170.216 C222.484001,169.805331 222.623333,169.504668 222.726,169.314 C222.828667,169.123332 223.143997,168.73467 223.672,168.148 C223.994668,167.766665 224.273332,167.488001 224.508,167.312 C224.742668,167.135999 224.977332,166.916001 225.212,166.652 C225.446668,166.387999 225.622666,166.138668 225.74,165.904 C226.121335,165.816 226.641997,165.442003 227.302,164.782 C227.962003,164.121997 228.409332,163.557336 228.644,163.088 C229.113336,162.853332 229.465332,162.604001 229.7,162.34 C229.934668,162.075999 230.110666,161.782668 230.228,161.46 C229.934665,160.961331 229.538669,160.712 229.04,160.712 C228.687998,160.712 228.358002,160.785333 228.05,160.932 C227.741998,161.078667 227.001339,161.562663 225.828,162.384 C225.651999,162.589334 224.772008,163.278661 223.188,164.452 C222.073328,165.302671 221.325335,166.10933 220.944,166.872 C220.210663,167.488003 219.726668,167.883999 219.492,168.06 C219.110665,168.382668 218.905333,168.646666 218.876,168.852 L218.612,170.656 Z M258.256,156.708 C258.314667,156.708 258.373333,156.532002 258.432,156.18 C258.490667,155.827998 258.52,155.549334 258.52,155.344 C258.52,155.138666 258.607999,154.728003 258.784,154.112 C259.282669,152.381325 259.532,151.501333 259.532,151.472 C259.649334,151.031998 259.502669,150.812 259.092,150.812 C258.593331,150.812 258.109336,151.251996 257.64,152.132 C257.170664,153.012004 256.936,153.715997 256.936,154.244 C256.789333,154.273333 256.554668,154.691329 256.232,155.498 C255.909332,156.304671 255.660001,157.059996 255.484,157.764 C255.307999,158.174669 255.22,158.409333 255.22,158.468 C255.22,158.585334 255.337332,158.688 255.572,158.776 C255.748001,158.893334 255.88,158.966667 255.968,158.996 C256.290668,159.172001 256.481333,159.245333 256.54,159.216 C256.980002,159.128 257.317332,158.981334 257.552,158.776 C257.64,158.688 257.874665,158.409336 258.256,157.94 C258.344,157.793333 258.388,157.617334 258.388,157.412 C258.388,157.235999 258.380667,157.096667 258.366,156.994 C258.351333,156.891333 258.314667,156.796 258.256,156.708 Z M253.416,156.708 C253.474667,156.708 253.533333,156.532002 253.592,156.18 C253.650667,155.827998 253.68,155.549334 253.68,155.344 C253.68,155.226666 253.782666,154.816004 253.988,154.112 C254.457336,152.469325 254.706667,151.589334 254.736,151.472 C254.853334,151.031998 254.706669,150.812 254.296,150.812 C253.797331,150.812 253.313336,151.259329 252.844,152.154 C252.374664,153.048671 252.14,153.745331 252.14,154.244 C251.993333,154.273333 251.758668,154.727996 251.436,155.608 C251.230666,156.136003 250.981335,156.854662 250.688,157.764 C250.629333,157.998668 250.6,158.16 250.6,158.248 C250.6,158.864003 250.93733,159.172 251.612,159.172 C251.993335,159.172 252.359998,159.062001 252.712,158.842 C253.064002,158.621999 253.298666,158.321335 253.416,157.94 C253.504,157.793333 253.548,157.617334 253.548,157.412 C253.548,157.235999 253.540667,157.096667 253.526,156.994 C253.511333,156.891333 253.474667,156.796 253.416,156.708 Z M261.864,175.98 C261.218663,175.745332 260.822667,175.584 260.676,175.496 C260.206664,175.231999 259.942667,174.880002 259.884,174.44 C260.001334,173.882664 260.719993,173.252004 262.04,172.548 C263.125339,172.049331 264.210661,171.536003 265.296,171.008 C265.560001,170.890666 265.787332,170.919999 265.978,171.096 C266.168668,171.272001 266.176001,171.462666 266,171.668 C265.677332,171.902668 265.369335,172.122666 265.076,172.328 C264.899999,172.445334 264.856,172.548 264.944,172.636 C265.325335,172.577333 265.655332,172.408668 265.934,172.13 C266.212668,171.851332 266.483999,171.536002 266.748,171.184 C266.66,170.802665 266.747999,170.509334 267.012,170.304 C267.452002,170.157333 267.672,169.849336 267.672,169.38 C267.672,169.115999 267.613334,168.844668 267.496,168.566 C267.378666,168.287332 267.158668,167.957335 266.836,167.576 C266.219997,166.842663 265.457338,166.006671 264.548,165.068 C262.993326,163.454659 262.216,162.560001 262.216,162.384 C261.247995,161.445329 260.764,160.404006 260.764,159.26 C260.764,157.969327 261.379994,156.605341 262.612,155.168 C263.609338,153.994661 264.797326,152.968004 266.176,152.088 C266.645336,151.706665 267.26133,151.354668 268.024,151.032 C268.493336,150.826666 269.241328,150.548002 270.268,150.196 C270.649335,150.049333 270.942666,149.976 271.148,149.976 C271.558669,149.976 271.844666,150.122665 272.006,150.416 C272.167334,150.709335 272.248,151.046665 272.248,151.428 C272.248,152.337338 272.152668,152.836 271.962,152.924 C271.771332,153.012 271.177338,153.495996 270.18,154.376 C269.769331,154.728002 269.468668,154.940666 269.278,155.014 C269.087332,155.087334 268.786669,155.255999 268.376,155.52 C267.642663,155.989336 267.144001,156.224 266.88,156.224 C266.615999,156.224 266.44,156.048002 266.352,155.696 C266.352,155.373332 266.491332,155.116668 266.77,154.926 C267.048668,154.735332 267.334665,154.537334 267.628,154.332 C267.774667,154.097332 267.811334,153.943334 267.738,153.87 C267.664666,153.796666 267.569334,153.804 267.452,153.892 C266.571996,154.361336 265.853336,154.95533 265.296,155.674 C264.738664,156.39267 264.46,157.162663 264.46,157.984 C264.46,158.336002 264.511333,158.687998 264.614,159.04 C264.716667,159.392002 264.907332,159.773331 265.186,160.184 C265.464668,160.594669 265.853331,161.019998 266.352,161.46 C266.586668,161.900002 266.865332,162.41333 267.188,163 C267.393334,163.352002 267.686665,163.645332 268.068,163.88 C268.977338,164.965339 269.578665,165.757331 269.872,166.256 C270.312002,167.048004 270.532,167.913329 270.532,168.852 C270.796001,168.852 271.001333,168.983999 271.148,169.248 C271.294667,169.512001 271.294667,169.775999 271.148,170.04 C271.118667,170.069333 270.950002,170.171999 270.642,170.348 C270.333998,170.524001 270.048001,170.743999 269.784,171.008 C269.578666,171.096 269.373334,171.279332 269.168,171.558 C268.962666,171.836668 268.845333,171.990667 268.816,172.02 C268.463998,172.430669 268.104669,172.767999 267.738,173.032 C267.371331,173.296001 266.924003,173.559999 266.396,173.824 C266.161332,174.088001 265.868002,174.322666 265.516,174.528 C265.339999,174.645334 265.068668,174.791999 264.702,174.968 C264.335331,175.144001 263.932002,175.349332 263.492,175.584 C262.875997,175.848001 262.333336,175.98 261.864,175.98 Z M273.216,182.844 C273.039999,183.577337 272.673336,183.944 272.116,183.944 C271.499997,183.944 271.192,183.548004 271.192,182.756 C271.192,182.579999 271.206667,182.433334 271.236,182.316 C271.236,181.083994 271.382665,179.50001 271.676,177.564 C272.292003,173.51598 272.6,170.920006 272.6,169.776 C272.306665,169.834667 272.042668,170.061998 271.808,170.458 C271.573332,170.854002 271.353334,171.037333 271.148,171.008 C271.089333,170.949333 271.06,170.744002 271.06,170.392 C271.06,170.186666 271.030667,170.04 270.972,169.952 C271.089334,169.834666 271.148,169.497336 271.148,168.94 C272.321339,167.766661 273.406662,166.344008 274.404,164.672 C275.196004,163.32266 276.002663,161.709343 276.824,159.832 C277.000001,159.626666 277.175999,159.414001 277.352,159.194 C277.528001,158.973999 277.689333,158.864 277.836,158.864 C278.217335,158.952 278.408,159.435996 278.408,160.316 C278.408,160.756002 278.290668,161.232664 278.056,161.746 C277.821332,162.259336 277.674667,162.633332 277.616,162.868 C277.557333,163.102668 277.498667,163.439998 277.44,163.88 C277.058665,164.232002 276.721335,164.921328 276.428,165.948 C276.017331,167.356007 275.79,168.162666 275.746,168.368 C275.702,168.573334 275.166672,170.567981 274.14,174.352 C273.758665,175.818674 273.480001,177.079995 273.304,178.136 C273.480001,178.077333 273.699999,177.490672 273.964,176.376 C274.110667,175.759997 274.257333,175.305335 274.404,175.012 C274.902669,173.398659 275.342665,172.078672 275.724,171.052 C276.31067,169.438659 276.89733,168.162671 277.484,167.224 C277.806668,166.490663 278.246664,166.124 278.804,166.124 C279.302669,166.124 279.84533,166.46133 280.432,167.136 C280.901336,167.693336 281.238666,168.26533 281.444,168.852 C281.708001,169.174668 281.935332,169.387333 282.126,169.49 C282.316668,169.592667 282.529332,169.644 282.764,169.644 C283.028001,169.644 283.423997,169.424002 283.952,168.984 C284.128001,168.837333 284.274666,168.793333 284.392,168.852 C284.450667,168.852 284.48,169.027998 284.48,169.38 C284.48,170.05467 284.450667,170.538665 284.392,170.832 C283.775997,171.242669 283.394667,171.492 283.248,171.58 C282.66133,171.932002 282.133336,172.108 281.664,172.108 C281.018663,172.108 280.344004,171.741337 279.64,171.008 L278.936,170.304 C278.701332,170.069332 278.510667,169.952 278.364,169.952 C278.070665,169.952 277.777335,170.340663 277.484,171.118 C277.190665,171.895337 276.926668,172.547997 276.692,173.076 C276.457332,173.604003 276.266667,173.999999 276.12,174.264 C276.002666,174.880003 275.819335,175.50333 275.57,176.134 C275.320665,176.76467 275.078668,177.37333 274.844,177.96 C274.579999,179.22134 274.242669,180.247996 273.832,181.04 C273.832,181.480002 273.744001,181.890665 273.568,182.272 C273.538667,182.36 273.421334,182.550665 273.216,182.844 Z M284.568,170.656 C284.890668,170.832001 285.052,171.022666 285.052,171.228 C285.052,171.345334 284.978667,171.579998 284.832,171.932 L284.832,172.944 C284.890667,173.178668 285.066665,173.354666 285.36,173.472 C285.477334,173.794668 285.770664,173.956 286.24,173.956 C286.680002,173.956 287.061332,173.794668 287.384,173.472 C287.648001,173.472 287.911999,173.369334 288.176,173.164 C288.293334,173.076 288.659997,172.69467 289.276,172.02 C289.628002,171.843999 290.287995,171.286671 291.256,170.348 C291.784003,169.819997 292.253331,169.438668 292.664,169.204 C292.664,169.908004 292.825332,170.567997 293.148,171.184 C293.588002,172.034671 294.18933,172.46 294.952,172.46 C295.069334,172.46 295.274665,172.430667 295.568,172.372 C295.920002,172.489334 296.374664,172.357335 296.932,171.976 C297.342669,171.711999 297.606666,171.550667 297.724,171.492 C297.753333,171.404 297.877999,171.264668 298.098,171.074 C298.318001,170.883332 298.442667,170.744 298.472,170.656 C298.413333,170.421332 298.384,170.26 298.384,170.172 C298.384,170.142667 298.413333,169.981335 298.472,169.688 C298.442667,169.218664 298.420667,168.925334 298.406,168.808 C298.391333,168.690666 298.354667,168.646667 298.296,168.676 C297.943998,169.086669 297.665334,169.321333 297.46,169.38 C297.195999,169.614668 296.902668,169.732 296.58,169.732 C295.81733,169.732 295.436,169.248005 295.436,168.28 C295.436,168.015999 295.509333,167.664002 295.656,167.224 C295.538666,166.725331 295.450667,166.358668 295.392,166.124 C295.245333,165.683998 294.966669,165.537333 294.556,165.684 C294.233332,165.654667 293.75667,165.874664 293.126,166.344 C292.49533,166.813336 292.106667,167.194665 291.96,167.488 C290.991995,168.07467 290.390668,168.617331 290.156,169.116 C290.068,169.145333 289.789336,169.335998 289.32,169.688 C288.850664,170.040002 288.498668,170.216 288.264,170.216 C288.440001,169.805331 288.579333,169.504668 288.682,169.314 C288.784667,169.123332 289.099997,168.73467 289.628,168.148 C289.950668,167.766665 290.229332,167.488001 290.464,167.312 C290.698668,167.135999 290.933332,166.916001 291.168,166.652 C291.402668,166.387999 291.578666,166.138668 291.696,165.904 C292.077335,165.816 292.597997,165.442003 293.258,164.782 C293.918003,164.121997 294.365332,163.557336 294.6,163.088 C295.069336,162.853332 295.421332,162.604001 295.656,162.34 C295.890668,162.075999 296.066666,161.782668 296.184,161.46 C295.890665,160.961331 295.494669,160.712 294.996,160.712 C294.643998,160.712 294.314002,160.785333 294.006,160.932 C293.697998,161.078667 292.957339,161.562663 291.784,162.384 C291.607999,162.589334 290.728008,163.278661 289.144,164.452 C288.029328,165.302671 287.281335,166.10933 286.9,166.872 C286.166663,167.488003 285.682668,167.883999 285.448,168.06 C285.066665,168.382668 284.861333,168.646666 284.832,168.852 L284.568,170.656 Z M299.176,168.5 C298.794665,168.705334 298.604,168.983998 298.604,169.336 C298.604,169.688002 298.618667,170.010665 298.648,170.304 C298.618667,170.480001 298.604,170.670666 298.604,170.876 C298.721334,170.876 298.853333,170.854 299,170.81 C299.146667,170.766 299.307999,170.714667 299.484,170.656 C299.572,171.154669 299.652666,171.594665 299.726,171.976 C299.799334,172.357335 299.923999,172.723998 300.1,173.076 L301.068,173.824 C301.65467,174.264002 302.358663,174.484 303.18,174.484 C304.001337,174.484 304.895995,174.249336 305.864,173.78 C306.509337,173.457332 307.315995,172.95867 308.284,172.284 C308.665335,172.078666 309.046665,171.814668 309.428,171.492 C309.956003,171.022664 310.278666,170.626668 310.396,170.304 C310.396,170.216 310.374,170.025335 310.33,169.732 C310.286,169.438665 310.308,169.233334 310.396,169.116 C310.131999,168.793332 309.970667,168.624667 309.912,168.61 C309.853333,168.595333 309.794667,168.675999 309.736,168.852 C309.736,169.233335 308.973341,169.893329 307.448,170.832 C306.919997,171.154668 306.36267,171.462665 305.776,171.756 C305.511999,171.873334 305.130669,171.932 304.632,171.932 C304.103997,171.932 303.664002,171.844001 303.312,171.668 C302.959998,171.491999 302.784,171.213335 302.784,170.832 C302.725333,170.655999 302.696,170.392002 302.696,170.04 C302.696,169.130662 303.267994,168.280004 304.412,167.488 C305.790674,166.519995 306.509333,165.992 306.568,165.904 C307.389337,165.493331 307.975998,165.112002 308.328,164.76 C308.797336,164.290664 309.032,163.777336 309.032,163.22 C309.032,162.897332 308.944001,162.530669 308.768,162.12 C308.210664,162.032 307.580004,162.178665 306.876,162.56 C306.406664,162.824001 306.010668,163.117332 305.688,163.44 C304.954663,163.792002 303.95734,164.459328 302.696,165.442 C301.43466,166.424672 300.804,167.047999 300.804,167.312 C300.422665,167.429334 299.982669,167.722664 299.484,168.192 L299.176,168.5 Z M311.54,172.724 C311.334666,172.401332 311.144001,172.064002 310.968,171.712 C310.615998,171.066663 310.44,170.084007 310.44,168.764 C310.44,168.529332 310.571999,168.082003 310.836,167.422 C311.100001,166.761997 311.349332,166.212002 311.584,165.772 C311.818668,165.331998 312.067999,164.899335 312.332,164.474 C312.596001,164.048665 312.830666,163.792 313.036,163.704 C313.300001,163.381332 313.637331,163.044002 314.048,162.692 C314.458669,162.339998 314.825332,162.076001 315.148,161.9 C315.206667,161.753333 315.382665,161.621334 315.676,161.504 C315.969335,161.386666 316.262665,161.328 316.556,161.328 C316.878668,161.328 317.164665,161.372 317.414,161.46 C317.663335,161.548 317.890666,161.723999 318.096,161.988 C318.389335,162.134667 318.536,162.559996 318.536,163.264 C318.536,163.880003 318.389335,164.246666 318.096,164.364 C318.154667,164.628001 317.795337,165.221995 317.018,166.146 C316.240663,167.070005 315.485337,167.707998 314.752,168.06 C314.605333,168.265334 314.414668,168.455999 314.18,168.632 C314.062666,168.72 313.872001,168.851999 313.608,169.028 C313.52,169.292001 313.476,169.526666 313.476,169.732 C313.476,170.201336 313.637332,170.531332 313.96,170.722 C314.282668,170.912668 314.722664,171.008 315.28,171.008 C316.453339,171.008 317.42133,170.773336 318.184,170.304 C318.418668,170.127999 318.726665,169.922668 319.108,169.688 C319.137333,169.688 319.430664,169.497335 319.988,169.116 C320.193334,169.086667 320.413332,169.042667 320.648,168.984 C320.648,169.130667 320.618667,169.262666 320.56,169.38 C320.56,170.230671 320.486667,170.773332 320.34,171.008 C320.046665,171.125334 319.020009,171.682662 317.26,172.68 C316.027994,173.384004 314.986671,173.736 314.136,173.736 C313.666664,173.736 313.234002,173.662667 312.838,173.516 C312.441998,173.369333 312.009336,173.105335 311.54,172.724 Z M315.588,164.452 C315.382666,164.452 315.111335,164.605998 314.774,164.914 C314.436665,165.222002 314.136001,165.551998 313.872,165.904 C313.666666,166.285335 313.556667,166.534666 313.542,166.652 C313.527333,166.769334 313.607999,166.813333 313.784,166.784 C314.282669,166.784 314.605333,166.578669 314.752,166.168 C314.928001,166.08 315.177332,165.808669 315.5,165.354 C315.822668,164.899331 315.852001,164.598667 315.588,164.452 Z M324.608,174.792 C325.28267,175.026668 325.949997,175.231999 326.61,175.408 C327.270003,175.584001 327.863997,175.672 328.392,175.672 C328.626668,175.672 328.897998,175.657333 329.206,175.628 C329.514002,175.598667 329.836665,175.54 330.174,175.452 C330.511335,175.364 331.075996,175.129335 331.868,174.748 C332.660004,174.366665 333.129333,174.146667 333.276,174.088 C333.334667,174 333.561998,173.787335 333.958,173.45 C334.354002,173.112665 334.639999,172.834001 334.816,172.614 C334.992001,172.393999 335.08,172.166668 335.08,171.932 C335.08,171.521331 334.962668,171.316 334.728,171.316 C334.610666,171.316 334.552,171.462665 334.552,171.756 C333.525328,172.284003 332.748003,172.650666 332.22,172.856 C331.222662,173.266669 330.372004,173.472 329.668,173.472 C329.257331,173.472 328.890668,173.413334 328.568,173.296 C328.186665,173.296 327.724669,173.083335 327.182,172.658 C326.639331,172.232665 326.089336,171.785336 325.532,171.316 C325.355999,170.699997 325.121335,170.025337 324.828,169.292 C324.270664,167.913326 323.992,166.784004 323.992,165.904 C323.992,165.639999 324.123999,164.848007 324.388,163.528 C324.534667,162.794663 324.608,162.222669 324.608,161.812 C325.341337,159.817323 326.118663,158.248006 326.94,157.104 C327.61467,156.135995 328.406662,155.344003 329.316,154.728 C329.609335,154.522666 329.968665,154.361334 330.394,154.244 C330.819335,154.126666 331.295997,154.068 331.824,154.068 C332.58667,154.068 333.209998,154.199999 333.694,154.464 C334.178002,154.728001 334.42,155.15333 334.42,155.74 C334.42,156.238669 334.185336,156.854663 333.716,157.588 C333.305331,158.116003 332.931335,159.127993 332.594,160.624 C332.256665,162.120007 332.088,163.601326 332.088,165.068 C332.146667,165.097333 332.315332,165.134 332.594,165.178 C332.872668,165.222 333.099999,165.244 333.276,165.244 C333.921337,165.244 334.419998,164.994669 334.772,164.496 C335.006668,164.143998 335.255999,163.469338 335.52,162.472 C335.784001,161.70933 336.091998,160.580007 336.444,159.084 C336.678668,158.086662 336.796,157.470668 336.796,157.236 C336.854667,157.089333 336.884,156.913334 336.884,156.708 L336.884,156.224 C336.884,155.226662 336.737335,154.332004 336.444,153.54 C336.444,152.835996 336.15067,152.278669 335.564,151.868 C334.97733,151.457331 334.214671,151.252 333.276,151.252 C333.011999,151.281333 332.806667,151.296 332.66,151.296 C331.486661,151.296 330.130008,151.779995 328.59,152.748 C327.049992,153.716005 326.177334,154.522663 325.972,155.168 C325.502664,155.402668 325.004003,155.871996 324.476,156.576 C324.153332,157.016002 323.830668,157.558663 323.508,158.204 C322.481328,160.022676 321.762669,161.723992 321.352,163.308 C321.058665,164.452006 320.912,165.669327 320.912,166.96 C320.912,168.720009 321.256663,170.355326 321.946,171.866 C322.635337,173.376674 323.522661,174.351998 324.608,174.792 Z M340.052,173.56 C339.611998,173.472 339.311334,173.288668 339.15,173.01 C338.988666,172.731332 338.908,172.386669 338.908,171.976 C338.908,171.653332 338.959333,171.17667 339.062,170.546 C339.164667,169.91533 339.216,169.541334 339.216,169.424 C338.951999,169.424 338.644002,169.599998 338.292,169.952 C337.558663,170.656004 337.148,171.008 337.06,171.008 C337.001333,170.890666 337.001333,170.641335 337.06,170.26 C337.118667,169.878665 337.089334,169.658667 336.972,169.6 L336.972,169.028 C337.676004,168.323996 338.350663,167.664003 338.996,167.048 C340.022672,166.050662 340.638666,165.508 340.844,165.42 C341.782671,164.481329 342.721329,163.528005 343.66,162.56 C343.689333,162.56 343.762666,162.530667 343.88,162.472 L344.144,162.472 C344.378668,162.472 344.686665,162.501333 345.068,162.56 C345.214667,162.589333 345.288,162.677333 345.288,162.824 C345.288,162.912 345.207334,163.087999 345.046,163.352 C344.884666,163.616001 344.862666,163.792 344.98,163.88 C345.65467,163.498665 346.28533,163.308 346.872,163.308 C347.693337,163.308 348.353331,163.659996 348.852,164.364 C349.057334,165.009337 349.16,165.66933 349.16,166.344 C349.16,167.10667 349.028001,167.766664 348.764,168.324 C348.705333,168.441334 348.412003,168.910663 347.884,169.732 C347.737333,169.966668 347.649333,170.157333 347.62,170.304 C347.532,170.392 347.370668,170.560665 347.136,170.81 C346.901332,171.059335 346.725334,171.286666 346.608,171.492 C346.226665,171.844002 345.610671,172.430663 344.76,173.252 C343.938663,173.868003 342.970672,174.176 341.856,174.176 C341.474665,174.117333 341.108002,174.073333 340.756,174.044 C340.403998,173.956 340.169334,173.794668 340.052,173.56 Z M346.168,169.512 C346.520002,169.159998 346.696,168.661337 346.696,168.016 C346.696,167.575998 346.586001,167.187335 346.366,166.85 C346.145999,166.512665 345.874668,166.344 345.552,166.344 C345.229332,166.344 344.892002,166.461332 344.54,166.696 L343.748,167.664 C343.483999,167.986668 343.205335,168.148 342.912,168.148 C342.207996,169.057338 341.856,169.89333 341.856,170.656 C341.738666,171.565338 342.01733,172.02 342.692,172.02 C343.220003,172.02 343.806663,171.741336 344.452,171.184 C344.921336,170.890665 345.317332,170.553335 345.64,170.172 C345.757334,170.054666 345.933332,169.834668 346.168,169.512 Z M347.532,173.076 C347.385333,173.046667 347.312,172.958667 347.312,172.812 C347.312,172.635999 347.414666,172.394002 347.62,172.086 C347.825334,171.777998 348.030666,171.550667 348.236,171.404 C348.353334,171.227999 348.587998,171.000668 348.94,170.722 C349.292002,170.443332 349.570666,170.098669 349.776,169.688 C349.952001,169.541333 350.142666,169.365334 350.348,169.16 C350.553334,168.954666 350.7,168.852 350.788,168.852 C350.905334,168.852 351.081332,169.18933 351.316,169.864 C351.316,170.333336 351.066669,170.758665 350.568,171.14 C350.303999,171.345334 349.922669,171.609332 349.424,171.932 C349.394667,171.932 348.954671,172.22533 348.104,172.812 C347.810665,172.988001 347.62,173.076 347.532,173.076 Z M354.264,173.912 C353.970665,174.205335 353.53067,174.352 352.944,174.352 C352.533331,174.352 352.196001,174.286001 351.932,174.154 C351.667999,174.021999 351.536,173.692003 351.536,173.164 C351.536,172.899999 351.616666,172.504003 351.778,171.976 C351.939334,171.447997 352.107999,170.920003 352.284,170.392 C352.137333,170.333333 351.844002,170.479998 351.404,170.832 C351.257333,170.978667 351.125334,170.949334 351.008,170.744 C351.008,170.391998 351.125332,170.098668 351.36,169.864 C351.330667,169.746666 351.272,169.526668 351.184,169.204 C351.184,169.057333 351.242666,168.881334 351.36,168.676 C351.506667,168.588 351.799998,168.353335 352.24,167.972 C352.533335,167.737332 352.841332,167.517334 353.164,167.312 C353.457335,166.930665 353.765332,166.549335 354.088,166.168 C354.968004,165.111995 355.627998,164.510667 356.068,164.364 C356.273334,164.099999 356.581331,163.748002 356.992,163.308 C357.138667,163.161333 357.754661,162.574672 358.84,161.548 L359.764,160.932 C359.969334,160.814666 360.203999,160.756 360.468,160.756 C360.673334,160.550666 360.937332,159.934672 361.26,158.908 C361.406667,158.379997 361.655998,157.573339 362.008,156.488 C362.59467,155.197327 362.961333,154.420001 363.108,154.156 C363.401335,153.598664 363.665332,153.144002 363.9,152.792 C364.134668,152.175997 364.457331,151.648002 364.868,151.208 C365.278669,150.767998 365.659998,150.548 366.012,150.548 C366.481336,150.548 366.716,150.943996 366.716,151.736 C366.716,151.853334 366.701333,152.043999 366.672,152.308 C366.672,152.953337 366.525335,153.56933 366.232,154.156 C366.232,154.566669 366.070668,155.123996 365.748,155.828 C365.601333,156.180002 365.410668,156.561331 365.176,156.972 C365.176,157.529336 365.117334,157.969332 365,158.292 C364.882666,158.614668 364.662668,159.010664 364.34,159.48 C364.281333,159.656001 364.193334,159.890665 364.076,160.184 C363.958666,160.477335 363.841334,160.697333 363.724,160.844 C363.636,161.460003 363.401335,162.031997 363.02,162.56 C362.697332,163.528005 362.536,164.481329 362.536,165.42 C362.536,166.710673 362.87333,167.825329 363.548,168.764 C363.812001,169.116002 364.222664,169.292 364.78,169.292 C365.044001,169.292 365.373998,169.233334 365.77,169.116 C366.166002,168.998666 366.539998,168.822668 366.892,168.588 C367.038667,168.5 367.134,168.492666 367.178,168.566 C367.222,168.639334 367.244,168.793332 367.244,169.028 C367.244,169.409335 367.156001,169.89333 366.98,170.48 C366.158663,171.477338 365.07334,171.976 363.724,171.976 C362.902663,171.976 362.191336,171.748669 361.59,171.294 C360.988664,170.839331 360.614667,170.201337 360.468,169.38 C360.291999,169.115999 360.189333,168.793335 360.16,168.412 C360.130667,168.030665 360.086667,167.825333 360.028,167.796 C359.793332,167.708 359.485335,167.942664 359.104,168.5 C358.869332,168.852002 358.664001,169.218665 358.488,169.6 C357.989331,170.18667 357.505336,170.77333 357.036,171.36 C355.950661,172.680007 355.02667,173.530665 354.264,173.912 Z M358.312,167.048 C358.517334,166.754665 358.715332,166.476001 358.906,166.212 C359.096668,165.947999 359.441331,165.420004 359.94,164.628 C359.94,164.393332 359.969333,164.173334 360.028,163.968 L360.028,163.44 C359.675998,163.674668 359.331335,163.953332 358.994,164.276 C358.656665,164.598668 358.400001,164.950665 358.224,165.332 C357.813331,165.596001 357.102005,166.483326 356.09,167.994 C355.077995,169.504674 354.674666,170.421332 354.88,170.744 C355.144001,170.744 355.701329,170.245338 356.552,169.248 C356.874668,168.895998 357.461329,168.162672 358.312,167.048 Z M368.256,172.724 C368.050666,172.401332 367.860001,172.064002 367.684,171.712 C367.331998,171.066663 367.156,170.084007 367.156,168.764 C367.156,168.529332 367.287999,168.082003 367.552,167.422 C367.816001,166.761997 368.065332,166.212002 368.3,165.772 C368.534668,165.331998 368.783999,164.899335 369.048,164.474 C369.312001,164.048665 369.546666,163.792 369.752,163.704 C370.016001,163.381332 370.353331,163.044002 370.764,162.692 C371.174669,162.339998 371.541332,162.076001 371.864,161.9 C371.922667,161.753333 372.098665,161.621334 372.392,161.504 C372.685335,161.386666 372.978665,161.328 373.272,161.328 C373.594668,161.328 373.880665,161.372 374.13,161.46 C374.379335,161.548 374.606666,161.723999 374.812,161.988 C375.105335,162.134667 375.252,162.559996 375.252,163.264 C375.252,163.880003 375.105335,164.246666 374.812,164.364 C374.870667,164.628001 374.511337,165.221995 373.734,166.146 C372.956663,167.070005 372.201337,167.707998 371.468,168.06 C371.321333,168.265334 371.130668,168.455999 370.896,168.632 C370.778666,168.72 370.588001,168.851999 370.324,169.028 C370.236,169.292001 370.192,169.526666 370.192,169.732 C370.192,170.201336 370.353332,170.531332 370.676,170.722 C370.998668,170.912668 371.438664,171.008 371.996,171.008 C373.169339,171.008 374.13733,170.773336 374.9,170.304 C375.134668,170.127999 375.442665,169.922668 375.824,169.688 C375.853333,169.688 376.146664,169.497335 376.704,169.116 C376.909334,169.086667 377.129332,169.042667 377.364,168.984 C377.364,169.130667 377.334667,169.262666 377.276,169.38 C377.276,170.230671 377.202667,170.773332 377.056,171.008 C376.762665,171.125334 375.736009,171.682662 373.976,172.68 C372.743994,173.384004 371.702671,173.736 370.852,173.736 C370.382664,173.736 369.950002,173.662667 369.554,173.516 C369.157998,173.369333 368.725336,173.105335 368.256,172.724 Z M372.304,164.452 C372.098666,164.452 371.827335,164.605998 371.49,164.914 C371.152665,165.222002 370.852001,165.551998 370.588,165.904 C370.382666,166.285335 370.272667,166.534666 370.258,166.652 C370.243333,166.769334 370.323999,166.813333 370.5,166.784 C370.998669,166.784 371.321333,166.578669 371.468,166.168 C371.644001,166.08 371.893332,165.808669 372.216,165.354 C372.538668,164.899331 372.568001,164.598667 372.304,164.452 Z M378.992,153.1 C378.904,153.1 378.838,153.261332 378.794,153.584 C378.75,153.906668 378.728,154.243998 378.728,154.596 C378.728,154.889335 378.537335,155.695993 378.156,157.016 C378.009333,157.485336 377.862667,157.939998 377.716,158.38 C377.598666,158.878669 377.774664,159.128 378.244,159.128 C378.684002,159.128 379.138664,158.680671 379.608,157.786 C380.077336,156.891329 380.312,156.194669 380.312,155.696 C380.458667,155.666667 380.766664,155.02134 381.236,153.76 C381.529335,152.99733 381.734666,152.440002 381.852,152.088 C381.969334,151.735998 382.028,151.530667 382.028,151.472 C382.028,151.325333 381.918001,151.200667 381.698,151.098 C381.477999,150.995333 381.324,150.929333 381.236,150.9 C380.913332,150.753333 380.737333,150.694667 380.708,150.724 C379.915996,151.017335 379.344002,151.442664 378.992,152 C378.904,152.146667 378.86,152.307999 378.86,152.484 C378.86,152.660001 378.867333,152.784666 378.882,152.858 C378.896667,152.931334 378.933333,153.012 378.992,153.1 Z M383.832,153.1 C383.744,153.1 383.678,153.261332 383.634,153.584 C383.59,153.906668 383.568,154.243998 383.568,154.596 C383.568,154.860001 383.443335,155.395329 383.194,156.202 C382.944665,157.008671 382.717334,157.734663 382.512,158.38 C382.482667,158.468 382.468,158.556 382.468,158.644 L382.468,158.82 C382.468,159.025334 382.629332,159.128 382.952,159.128 C383.392002,159.128 383.861331,158.680671 384.36,157.786 C384.858669,156.891329 385.108,156.194669 385.108,155.696 C385.225334,155.666667 385.459998,155.212004 385.812,154.332 C386.076001,153.627996 386.354665,152.909337 386.648,152.176 C386.765334,151.765331 386.824,151.530667 386.824,151.472 C386.824,151.325333 386.706668,151.208 386.472,151.12 C386.295999,151.002666 386.164,150.929333 386.076,150.9 C385.782665,150.753333 385.606667,150.694667 385.548,150.724 C384.697329,151.017335 384.125335,151.442664 383.832,152 C383.744,152.146667 383.7,152.307999 383.7,152.484 C383.7,152.660001 383.707333,152.784666 383.722,152.858 C383.736667,152.931334 383.773333,153.012 383.832,153.1 Z" id="С-уважением,-команда" transform="translate(257.772000, 145.920270) rotate(-6.000000) translate(-257.772000, -145.920270) "></path>
        </g>
    </g>
</svg>