<svg xmlns="http://www.w3.org/2000/svg" xmlns:xlink="http://www.w3.org/1999/xlink" viewBox="0 0 2299.54 1784.86"><defs><style>.cls-1,.cls-3,.cls-4,.cls-6{fill:none;}.cls-2,.cls-5,.cls-7{fill:#fff;}.cls-2,.cls-4,.cls-5,.cls-6{stroke:#291d10;}.cls-2,.cls-3,.cls-5{stroke-linecap:round;stroke-linejoin:round;}.cls-2{stroke-width:60px;}.cls-3{stroke:#201600;}.cls-3,.cls-5,.cls-6{stroke-width:40px;}.cls-4,.cls-6{stroke-miterlimit:10;}.cls-4{stroke-width:80px;}.cls-8{clip-path:url(#clip-path);}</style><clipPath id="clip-path"><rect class="cls-1" x="1080.79" y="791.61" width="1298.56" height="994.7"/></clipPath></defs><title>Ресурс 19</title><g id="Слой_2" data-name="Слой 2"><g id="Слой_1-2" data-name="Слой 1"><path class="cls-2" d="M2222.76,1651.21H76.79a46.51,46.51,0,0,1-33.08-14.38A50.17,50.17,0,0,1,30,1602.12V79.09C30,52,50.95,30,76.79,30h2146c25.84,0,46.79,22,46.79,49.09v1523C2269.54,1629.23,2248.6,1651.21,2222.76,1651.21Z"/><path class="cls-3" d="M71.83,27.93H2215.38a48,48,0,0,1,48,48V300.65a0,0,0,0,1,0,0H23.83a0,0,0,0,1,0,0V75.93A48,48,0,0,1,71.83,27.93Z"/><path class="cls-4" d="M1560.94,1344"/><path class="cls-4" d="M339.93,1344"/><path class="cls-5" d="M797.86,1401.52"/><circle class="cls-6" cx="159.8" cy="164.29" r="34.09"/><circle class="cls-6" cx="289.96" cy="164.29" r="34.09"/><circle class="cls-6" cx="414.95" cy="164.29" r="34.09"/><line class="cls-6" x1="288.4" y1="701.93" x2="1404.44" y2="701.93"/><line class="cls-6" x1="294" y1="934.36" x2="1410.04" y2="934.36"/><line class="cls-6" x1="292.83" y1="1157.56" x2="1408.88" y2="1157.56"/><rect class="cls-7" x="1285.28" y="1509.37" width="881.82" height="177.97"/><rect class="cls-7" x="852.5" y="1279.39" width="580" height="156"/><g class="cls-8"><path d="M1486.22,1197.19c0,70.52,25.7,141.94,70.48,195.95,47.11,56.8,108.6,88.07,173.15,88.07s125.95-31.26,172.93-88c44.63-53.94,70.25-125.33,70.25-195.87v-62.13a841,841,0,0,0,21.8-188c0-55.41-6.06-93.69-11.69-111a20.25,20.25,0,0,0-21.21-13.92,20.61,20.61,0,0,0-4.69.1c-37.7,5.39-84-3.9-132.94-13.74-79.36-15.92-169-33.91-237.58,13.62-.62-.05-1.23-.09-1.86-.09-38.48,0-72.65,15.37-96.21,43.3-21.75,25.79-33.74,61.28-33.74,99.92,0,63.29,26.93,180.27,31.3,198.89Zm385.31,170.15c-39.13,47.28-89.45,73.33-141.69,73.33s-102.67-26.07-141.93-73.41c-38.86-46.85-61.14-108.84-61.14-170.07v-24.32c0-50.14,33.67-118.31,46.45-142.38,182.34-20.83,304.37,29.51,332.08,42.48l27.18,64v60.31C1932.48,1258.57,1910.26,1320.55,1871.53,1367.33ZM1584.87,862.72a97.65,97.65,0,0,0,20.78-4.13c54.67-41.53,134-25.6,210.67-10.2,41,8.24,80.3,16.12,116.8,16.12q7.57,0,15-.48c6.11,34.34,11,108.24-2.7,199.66l-5.73-13.49a20.27,20.27,0,0,0-8.93-9.86c-5.82-3.19-144.91-77.5-371.25-49.09a20.27,20.27,0,0,0-16.56,10.1,572.87,572.87,0,0,0-34.2,72.45c-6.94-37.54-13.29-79.78-13.29-108.41,0-70.93,44.91-102.67,89.41-102.67Zm0,0"/></g><path d="M2079,1526.1c-.43-.12-.86-.24-1.31-.32l-120.63-25.23-31.89-48.36c-.22-.35-.47-.68-.71-1a35.64,35.64,0,0,0-51.08-6.2,4.88,4.88,0,0,0-.4.32l-143.42,123.46-143.43-123.46-.38-.32a35.64,35.64,0,0,0-51.08,6.2c-.25.32-.48.66-.7,1l-31.89,48.36-120.63,25.23c-.44.09-.89.2-1.32.32-35.07,9.82-64.92,31.57-86.29,62.88a174,174,0,0,0-30.24,97.1v38.11c0,33.45,29.77,60.65,66.38,60.65h799.18c36.6,0,66.39-27.2,66.39-60.65v-38.11a174,174,0,0,0-30.24-97.1c-21.38-31.32-51.22-53.06-86.3-62.88Zm-184.09-46.16,25.17,38.18-100.73,138.51-60-60Zm-178.63,224h26.6l8.07,40.39h-42.75Zm33.57-51.65c0,6.67-4.07,11.1-6.76,11.1h-27c-2.68,0-6.76-4.43-6.76-11.1v-7.81l20.28-20.27,20.27,20.27Zm-185.62-172.33,135.56,116.69-60,60L1539.06,1518.1ZM1304.14,1724.2v-38.11c0-47.83,29.65-104.54,86.3-120.77l115.28-24.11L1621,1699.66a20.25,20.25,0,0,0,14.81,8.28c.52.05,1.05.06,1.58.06a20.24,20.24,0,0,0,14.33-5.94l23.65-23.64a52.37,52.37,0,0,0,3.54,5.68l-12,60.19H1330c-14,0-25.84-9.2-25.84-20.1Zm850.85,0c0,10.9-11.83,20.11-25.83,20.11H1792.3l-12-60.2a52.44,52.44,0,0,0,3.55-5.68l23.65,23.64a20.26,20.26,0,0,0,14.33,5.94c.52,0,1.05,0,1.58-.06a20.34,20.34,0,0,0,14.81-8.29l115.24-158.46,115.27,24.11c56.66,16.24,86.3,72.95,86.3,120.77Zm0,0"/><path d="M1243.41,1235.21"/><path d="M1222.72,1602.43"/><path d="M2033.28,973.93"/><path d="M2294.28,1454.1"/></g></g></svg>