<svg xmlns="http://www.w3.org/2000/svg" viewBox="0 0 2366.08 1838.27"><defs><style>.cls-1,.cls-4,.cls-6,.cls-8{fill:#fff;}.cls-1,.cls-3,.cls-4,.cls-5,.cls-7,.cls-8{stroke:#291d10;}.cls-1,.cls-2,.cls-4,.cls-7,.cls-8{stroke-linecap:round;stroke-linejoin:round;}.cls-1{stroke-width:60px;}.cls-2,.cls-3,.cls-5,.cls-7{fill:none;}.cls-2{stroke:#201600;}.cls-2,.cls-5,.cls-7,.cls-8{stroke-width:40px;}.cls-3,.cls-5{stroke-miterlimit:10;}.cls-3,.cls-4{stroke-width:80px;}</style></defs><title>Ресурс 21</title><g id="Слой_2" data-name="Слой 2"><g id="Слой_1-2" data-name="Слой 1"><rect class="cls-1" x="30" y="30" width="2306.08" height="1591.08" rx="45.29" ry="45.29"/><path class="cls-2" d="M72.68,31.06H2282.76a48,48,0,0,1,48,48V311.88a0,0,0,0,1,0,0H24.68a0,0,0,0,1,0,0V79.06A48,48,0,0,1,72.68,31.06Z"/><path class="cls-3" d="M1607.45,1386.2"/><path class="cls-3" d="M350.17,1386.2"/><path class="cls-4" d="M821.7,1445.46"/><circle class="cls-5" cx="291.2" cy="173.47" r="35.1"/><circle class="cls-5" cx="155.16" cy="179.53" r="35.1"/><circle class="cls-5" cx="418.46" cy="172.47" r="35.1"/><line class="cls-5" x1="325.34" y1="1052.54" x2="1405.73" y2="1052.54"/><line class="cls-5" x1="327.34" y1="598.54" x2="1407.73" y2="598.54"/><line class="cls-5" x1="334.34" y1="823.54" x2="1414.73" y2="823.54"/><path class="cls-6" d="M2295.75,1376.53c0,32.12-86.67,53.41-94,83.41-7.52,30.83,59.4,89.59,45,117.31-14.47,27.93-101.35,7.41-121.82,31.3s13.53,106.3-11.83,125.17c-25,18.59-94.47-37.4-123.43-24.38-28.26,12.71-32.29,102-63.52,108.57-30.13,6.38-70.15-73.34-102.29-73.34s-72.16,79.72-102.29,73.34c-31.23-6.61-35.25-95.86-63.52-108.57-29-13-98.45,43-123.43,24.38-25.36-18.87,8.52-101.43-11.83-125.17s-107.36-3.37-121.82-31.3c-14.36-27.72,52.57-86.49,45-117.31-7.32-30-94-51.29-94-83.41s86.67-53.41,94-83.41c7.52-30.83-59.4-89.59-45-117.31,14.47-27.93,101.35-7.41,121.82-31.3s-13.53-106.3,11.83-125.17c25-18.59,94.47,37.4,123.43,24.38,28.26-12.71,32.29-102,63.52-108.57,30.13-6.38,70.15,73.34,102.29,73.34s72.16-79.72,102.29-73.34c31.23,6.61,35.25,95.86,63.52,108.57,29,13,98.45-43,123.43-24.38,25.36,18.87-8.52,101.43,11.83,125.17s107.36,3.37,121.82,31.3c14.36,27.72-52.57,86.49-45,117.31C2209.08,1323.11,2295.75,1344.41,2295.75,1376.53Z"/><path class="cls-7" d="M2295.75,1376.53c0,32.12-86.67,53.41-94,83.41-7.52,30.83,59.4,89.59,45,117.31-14.47,27.93-101.35,7.41-121.82,31.3s13.53,106.3-11.83,125.17c-25,18.59-94.47-37.4-123.43-24.38-28.26,12.71-32.29,102-63.52,108.57-30.13,6.38-70.15-73.34-102.29-73.34s-72.16,79.72-102.29,73.34c-31.23-6.61-35.25-95.86-63.52-108.57-29-13-98.45,43-123.43,24.38-25.36-18.87,8.52-101.43-11.83-125.17s-107.36-3.37-121.82-31.3c-14.36-27.72,52.57-86.49,45-117.31-7.32-30-94-51.29-94-83.41s86.67-53.41,94-83.41c7.52-30.83-59.4-89.59-45-117.31,14.47-27.93,101.35-7.41,121.82-31.3s-13.53-106.3,11.83-125.17c25-18.59,94.47,37.4,123.43,24.38,28.26-12.71,32.29-102,63.52-108.57,30.13-6.38,70.15,73.34,102.29,73.34s72.16-79.72,102.29-73.34c31.23,6.61,35.25,95.86,63.52,108.57,29,13,98.45-43,123.43-24.38,25.36,18.87-8.52,101.43,11.83,125.17s107.36,3.37,121.82,31.3c14.36,27.72-52.57,86.49-45,117.31C2209.08,1323.11,2295.75,1344.41,2295.75,1376.53Z"/><path class="cls-8" d="M2033.55,1367.91c0,110.31-96.27,199.74-215,199.74s-215-89.43-215-199.74,96.27-199.74,215-199.74S2033.55,1259.77,2033.55,1367.91Z"/></g></g></svg>